<svg width="701" height="300" viewBox="0 0 701 300" fill="none" xmlns="http://www.w3.org/2000/svg">
<g clip-path="url(#clip0_22_155)">
<path d="M289.871 54.0119C289.143 53.7067 288.389 53.4179 287.613 53.1448C287.741 52.5103 287.858 51.8839 287.962 51.2682C289.671 41.1584 288.554 33.0138 284.739 30.3322C281.081 27.761 275.098 30.4419 269.056 36.8511C268.475 37.4674 267.893 38.1199 267.31 38.8038C266.922 38.3513 266.535 37.9141 266.148 37.4958C259.816 30.6427 253.469 27.7547 249.658 30.444C246.003 33.0227 244.921 40.6794 246.459 50.2607C246.608 51.1861 246.781 52.1312 246.978 53.0921C246.08 53.4029 245.212 53.7342 244.383 54.0867C236.959 57.2416 232.218 62.186 232.218 67.3146C232.218 72.6115 237.307 77.9244 245.04 81.1459C245.65 81.4001 246.283 81.6405 246.936 81.8687C246.724 82.908 246.54 83.9263 246.385 84.9196C244.918 94.3346 246.064 101.81 249.708 104.373C253.473 107.019 259.792 104.299 265.944 97.7438C266.43 97.2256 266.918 96.6761 267.407 96.1001C268.041 96.8439 268.673 97.5478 269.303 98.2081C275.262 104.459 281.148 106.983 284.789 104.413C288.55 101.76 289.773 93.7288 288.186 83.958C288.065 83.2118 287.924 82.4494 287.765 81.6735C288.209 81.5136 288.644 81.3486 289.069 81.1769C297.108 77.9305 302.338 72.6823 302.338 67.3146C302.338 62.1674 297.444 57.1897 289.871 54.0119ZM288.127 77.7111C287.744 77.8659 287.35 78.0154 286.949 78.1604C286.062 74.736 284.864 71.0946 283.399 67.3324C284.797 63.6599 285.949 60.065 286.811 56.6628C287.529 56.9158 288.225 57.1827 288.896 57.4643C295.384 60.1871 299.342 64.2127 299.342 67.3146C299.342 70.6187 295.068 74.9079 288.127 77.7111ZM285.247 84.6671C285.949 88.9876 286.049 92.8938 285.584 95.9475C285.167 98.6914 284.327 100.521 283.288 101.254C281.079 102.813 276.353 100.786 271.256 95.4403C270.672 94.8275 270.084 94.1732 269.493 93.4806C271.469 90.8467 273.444 87.7847 275.371 84.384C278.761 84.0173 281.963 83.4179 284.868 82.5996C285.011 83.3029 285.138 83.9927 285.247 84.6671ZM256.123 100.984C253.964 101.914 252.245 101.94 251.205 101.21C248.993 99.6546 248.074 93.6522 249.328 85.6006C249.472 84.6785 249.643 83.7313 249.84 82.7631C252.712 83.5373 255.891 84.0945 259.289 84.4302C261.23 87.7579 263.261 90.8166 265.309 93.4948C264.861 94.0212 264.416 94.5223 263.973 94.9945C261.252 97.8932 258.526 99.9498 256.123 100.984ZM246.008 77.6909C242.589 76.2665 239.766 74.4151 237.83 72.3949C236.091 70.5795 235.213 68.7771 235.213 67.3146C235.213 64.2024 239.02 60.2327 245.369 57.5346C246.139 57.2072 246.945 56.8986 247.782 56.6088C248.66 60.0879 249.811 63.7253 251.2 67.4035C249.793 71.1363 248.625 74.8317 247.739 78.3515C247.143 78.1424 246.565 77.9225 246.008 77.6909ZM249.399 49.5595C248.081 41.3505 248.956 35.158 251.159 33.6041C253.505 31.9487 258.692 34.3089 264.159 40.2262C264.509 40.6044 264.86 41.0003 265.212 41.4098C263.174 44.0763 261.161 47.112 259.238 50.4201C255.94 50.7927 252.783 51.3912 249.881 52.1926C249.699 51.2979 249.537 50.4189 249.399 49.5595ZM279.646 58.6631C278.952 57.2023 278.24 55.776 277.513 54.3887C279.751 54.7334 281.894 55.1911 283.907 55.7511C283.303 58.1119 282.55 60.5803 281.663 63.1108C281.027 61.6389 280.354 60.1548 279.646 58.6631ZM267.311 44.0193C268.693 45.8438 270.077 47.8809 271.438 50.0912C270.066 50.0122 268.678 49.9711 267.278 49.9711C265.891 49.9711 264.513 50.0113 263.15 50.0889C264.512 47.8992 265.908 45.8648 267.311 44.0193ZM254.898 58.6884C254.205 60.1533 253.544 61.6293 252.918 63.1081C252.046 60.5864 251.3 58.1068 250.69 55.7124C252.691 55.1667 254.824 54.7205 257.047 54.3823C256.311 55.7824 255.593 57.2192 254.898 58.6881V58.6884ZM257.111 80.5074C254.814 80.1951 252.649 79.7718 250.649 79.2412C251.268 76.8041 252.031 74.2715 252.922 71.6955C253.549 73.1732 254.212 74.6499 254.91 76.118H254.91C255.62 77.6136 256.356 79.0787 257.111 80.5074ZM267.394 90.8674C265.974 89.0002 264.558 86.9348 263.175 84.7132C264.518 84.7774 265.887 84.8103 267.278 84.8103C268.707 84.8103 270.12 84.771 271.511 84.6955C270.145 86.9572 268.766 89.0258 267.394 90.8674ZM281.692 71.5642C282.629 74.168 283.419 76.6874 284.046 79.0829C282.013 79.6483 279.818 80.1036 277.505 80.442C278.233 79.0359 278.952 77.5852 279.658 76.0929C280.372 74.5831 281.05 73.071 281.692 71.5642ZM277.063 74.2688C275.967 76.5853 274.842 78.7968 273.699 80.8842C271.618 81.0656 269.469 81.159 267.278 81.159C265.096 81.159 262.973 81.0764 260.929 80.9147C259.741 78.7998 258.591 76.5818 257.502 74.2887H257.502C256.416 72.0018 255.416 69.6956 254.51 67.4023C255.416 65.1036 256.413 62.7948 257.493 60.512L257.493 60.5125C258.576 58.2236 259.715 56.0164 260.893 53.9148C262.978 53.7227 265.117 53.6224 267.278 53.6224H267.278C269.449 53.6224 271.59 53.7234 273.675 53.9172C274.834 56.0035 275.966 58.2035 277.053 60.4927C278.153 62.8076 279.163 65.1011 280.076 67.3504C279.165 69.6384 278.158 71.9549 277.063 74.2688ZM283.242 33.4954C285.591 35.1459 286.504 41.8025 285.028 50.5313C284.934 51.0883 284.828 51.6556 284.713 52.2305C281.804 51.4123 278.645 50.8035 275.338 50.4253C273.411 47.0809 271.414 44.0404 269.41 41.4082C269.949 40.7763 270.487 40.1739 271.023 39.6054C276.2 34.114 281.038 31.9459 283.242 33.4954ZM267.278 59.6824C270.736 59.6824 273.539 63.0994 273.539 67.3146C273.539 71.5297 270.736 74.9468 267.278 74.9468C263.82 74.9468 261.016 71.5297 261.016 67.3146C261.016 63.0994 263.82 59.6824 267.278 59.6824Z" fill="#00D8FF"/>
</g>
<g clip-path="url(#clip1_22_155)">
<path d="M106.358 111.117L80.4967 102.21L74.7337 22.0133H138.059L132.29 102.197L106.358 111.117Z" fill="#264DE4"/>
<path d="M127.352 97.0912L132.282 28.5706H106.397V104.299L127.352 97.0912Z" fill="#2965F1"/>
<path d="M87.9459 58.3142L88.6564 68.1498H106.397V58.3142H87.9459Z" fill="#EBEBEB"/>
<path d="M86.5182 38.4064L87.2388 48.2422H106.397V38.4064H86.5182Z" fill="#EBEBEB"/>
<path d="M106.397 83.8587L106.362 83.8702L97.5332 80.9123L96.9688 73.0679H89.0106L90.1213 88.5114L106.361 94.1045L106.397 94.092V83.8587Z" fill="#EBEBEB"/>
<path d="M89.6375 0.219482H99.2394V5.20119H93.6528V10.1829H99.2394V15.1646H89.6375V0.219482Z" fill="black"/>
<path d="M101.16 0.219482H110.762V4.5514H105.175V5.41779H110.762V15.3812H101.16V10.8327H106.746V9.96631H101.16V0.219482Z" fill="black"/>
<path d="M112.682 0.219482H122.284V4.5514H116.697V5.41779H122.284V15.3812H112.682V10.8327H118.268V9.96631H112.682V0.219482Z" fill="black"/>
<path d="M124.797 58.3142L126.229 38.4064H106.37V48.2422H117.541L116.819 58.3142H106.37V68.1498H116.132L115.212 80.906L106.37 83.8669V94.0997L122.622 88.5113L122.741 86.8496L124.604 60.9553L124.797 58.3142Z" fill="white"/>
</g>
<g clip-path="url(#clip2_22_155)">
<path d="M426.943 54.06H443.113V55.7248H428.426V68.255H442.237V69.9199H428.426V83.6768H443.282V85.3416H426.943V54.06ZM444.562 54.06H446.28L453.893 67.8169L461.675 54.06L472.259 36.5856L454.87 69.2627L463.831 85.3416H462.045L453.893 70.7085L445.707 85.3416H443.955L452.984 69.2627L444.562 54.06ZM464.471 55.7248V54.06H482.898V55.7248H474.409V85.3416H472.926V55.7248H464.471ZM406.714 54.06H408.567L434.116 103.585L423.558 85.3416L408.264 56.4258L408.196 85.3416H406.714V54.06ZM482.749 83.1743C482.446 83.1743 482.219 82.8704 482.219 82.4776C482.219 82.0848 482.446 81.7808 482.749 81.7808C483.055 81.7808 483.279 82.0848 483.279 82.4776C483.279 82.8704 483.055 83.1743 482.749 83.1743ZM484.205 81.3413H484.998C485.009 81.8978 485.323 82.2719 485.784 82.2719C486.3 82.2719 486.592 81.8697 486.592 81.1168V76.3471H487.399V81.1215C487.399 82.4776 486.794 83.2585 485.791 83.2585C484.85 83.2585 484.205 82.501 484.205 81.3413ZM488.455 81.2805H489.256C489.324 81.9211 489.807 82.328 490.503 82.328C491.152 82.328 491.628 81.8931 491.628 81.2945C491.628 80.7801 491.325 80.4715 490.637 80.2611L489.966 80.0507C489.025 79.7654 488.596 79.1762 488.596 78.1849C488.596 76.9831 489.353 76.1835 490.489 76.1835C491.545 76.1835 492.317 76.9831 492.363 78.1194H491.578C491.502 77.4975 491.084 77.1094 490.478 77.1094C489.84 77.1094 489.414 77.5068 489.414 78.1147C489.414 78.5964 489.688 78.8723 490.366 79.078L490.939 79.2604C492.007 79.583 492.446 80.1442 492.446 81.1589C492.446 82.4495 491.675 83.2585 490.442 83.2585C489.288 83.2585 488.513 82.487 488.455 81.2805Z" fill="black"/>
</g>
<g clip-path="url(#clip3_22_155)">
<path d="M534.309 119.957C534.022 119.957 533.754 119.837 533.505 119.626L530.961 117.246C530.578 116.915 530.77 116.794 530.884 116.734C531.401 116.463 531.497 116.402 532.032 115.92C532.09 115.86 532.166 115.89 532.224 115.95L534.175 117.788C534.252 117.848 534.347 117.848 534.405 117.788L542.038 110.829C542.115 110.769 542.153 110.648 542.153 110.498V96.6096C542.153 96.4589 542.115 96.3384 542.038 96.2782L534.405 89.3492C534.328 89.2889 534.232 89.2889 534.175 89.3492L526.541 96.2782C526.465 96.3384 526.427 96.489 526.427 96.6096V110.498C526.427 110.618 526.465 110.769 526.541 110.829L528.627 112.727C529.756 113.631 530.463 112.576 530.463 111.522V97.8146C530.463 97.6338 530.559 97.4531 530.693 97.4531H531.669C531.784 97.4531 531.898 97.6037 531.898 97.8146V111.522C531.898 113.902 531.076 115.288 529.641 115.288C529.201 115.288 528.856 115.288 527.881 114.535L525.872 112.727C525.374 112.275 525.068 111.432 525.068 110.528V96.6397C525.068 95.7359 525.374 94.8924 525.872 94.4405L533.505 87.4814C533.984 87.0596 534.634 87.0596 535.113 87.4814L542.746 94.4405C543.244 94.8924 543.55 95.7359 543.55 96.6397V110.528C543.55 111.432 543.244 112.275 542.746 112.727L535.113 119.686C534.864 119.867 534.577 119.957 534.309 119.957ZM536.662 110.407C533.314 110.407 532.625 107.997 532.625 105.949C532.625 105.768 532.721 105.587 532.855 105.587H533.85C533.965 105.587 534.06 105.708 534.06 105.888C534.213 107.485 534.653 108.268 536.681 108.268C538.288 108.268 538.977 107.696 538.977 106.34C538.977 105.557 538.786 104.985 536.28 104.593C534.194 104.262 532.893 103.539 532.893 100.918C532.893 98.4774 534.194 97.0313 536.375 97.0313C538.824 97.0313 540.029 98.3569 540.183 101.249C540.183 101.339 540.163 101.43 540.125 101.52C540.087 101.58 540.029 101.641 539.972 101.641H538.977C538.882 101.641 538.786 101.52 538.767 101.369C538.537 99.7125 537.944 99.1703 536.375 99.1703C534.615 99.1703 534.405 100.134 534.405 100.857C534.405 101.731 534.653 102.002 537.026 102.484C539.379 102.966 540.489 103.659 540.489 106.25C540.469 108.901 539.092 110.407 536.662 110.407Z" fill="#539E43"/>
<path d="M510.623 65.64C510.623 65.0977 510.432 64.5856 510.126 64.3144L502.014 56.9637C501.88 56.8432 501.727 56.7829 501.573 56.7528H501.497C501.344 56.7528 501.191 56.8432 501.057 56.9637L492.945 64.3144C492.639 64.5856 492.447 65.0977 492.447 65.64L492.467 85.4027C492.467 85.6738 492.562 85.9449 492.715 86.0654C492.868 86.2161 493.06 86.2161 493.194 86.0654L498.015 81.7273C498.321 81.4561 498.512 80.944 498.512 80.4017V71.153C498.512 70.6108 498.704 70.0986 499.01 69.8275L501.057 67.9597C501.21 67.8091 501.382 67.7488 501.554 67.7488C501.727 67.7488 501.899 67.8091 502.033 67.9597L504.08 69.8275C504.386 70.0986 504.577 70.6108 504.577 71.153V80.4017C504.577 80.944 504.769 81.4561 505.075 81.7273L509.896 86.0654C510.049 86.2161 510.24 86.2161 510.393 86.0654C510.546 85.9449 510.642 85.6738 510.642 85.4027L510.623 65.64Z" fill="#333333"/>
<path d="M549.615 38.4362C549.462 38.3157 549.27 38.3157 549.136 38.4362C548.983 38.5868 548.888 38.8278 548.888 39.099V58.6809C548.888 58.8616 548.83 59.0424 548.715 59.1629C548.601 59.2533 548.486 59.2533 548.371 59.1629L546.343 57.3252C546.037 57.0541 545.673 57.0541 545.367 57.3252L537.255 64.7061C536.949 64.9772 536.758 65.4894 536.758 66.0316V80.7633C536.758 81.3055 536.949 81.8177 537.255 82.0888L545.367 89.4697C545.673 89.7408 546.037 89.7408 546.343 89.4697L554.455 82.0888C554.761 81.8177 554.952 81.3055 554.952 80.7633V44.0396C554.952 43.4672 554.761 42.9551 554.455 42.684L549.615 38.4362ZM548.868 75.913C548.868 76.0636 548.83 76.1841 548.754 76.2444L545.98 78.775C545.903 78.8352 545.807 78.8352 545.731 78.775L542.957 76.2444C542.88 76.1841 542.842 76.0335 542.842 75.913V70.8518C542.842 70.7012 542.88 70.5807 542.957 70.5204L545.731 67.9898C545.807 67.9296 545.903 67.9296 545.98 67.9898L548.754 70.5204C548.83 70.5807 548.868 70.7313 548.868 70.8518V75.913Z" fill="#333333"/>
<path d="M576.61 70.7312C576.916 70.4601 577.088 69.948 577.088 69.4057V65.8207C577.088 65.2784 576.897 64.7663 576.61 64.4951L568.555 57.1444C568.249 56.8733 567.886 56.8733 567.58 57.1444L559.468 64.5253C559.162 64.7964 558.97 65.3085 558.97 65.8508V80.5825C558.97 81.1247 559.162 81.6369 559.468 81.908L567.522 89.1383C567.828 89.4094 568.192 89.4094 568.479 89.1383L573.358 84.8604C573.511 84.7399 573.606 84.4687 573.606 84.1976C573.606 83.9264 573.511 83.6553 573.358 83.5348L565.207 76.1539C565.054 76.0033 564.959 75.7623 564.959 75.4912V70.8819C564.959 70.6107 565.054 70.3396 565.207 70.2191L567.752 67.9295C567.905 67.7789 568.096 67.7789 568.249 67.9295L570.794 70.2191C570.947 70.3697 571.043 70.6107 571.043 70.8819V74.497C571.043 74.7681 571.138 75.0393 571.291 75.1598C571.444 75.3104 571.636 75.3104 571.789 75.1598L576.61 70.7312Z" fill="#333333"/>
<path d="M567.943 70.0384C568.001 69.9781 568.077 69.9781 568.135 70.0384L569.684 71.4543C569.742 71.5145 569.78 71.6049 569.78 71.7254V74.5573C569.78 74.6778 569.742 74.7681 569.684 74.8284L568.135 76.2443C568.077 76.3046 568.001 76.3046 567.943 76.2443L566.394 74.8284C566.336 74.7681 566.298 74.6778 566.298 74.5573V71.7254C566.298 71.6049 566.336 71.5145 566.394 71.4543L567.943 70.0384Z" fill="#539E43"/>
<mask id="mask0_22_155" style="mask-type:alpha" maskUnits="userSpaceOnUse" x="514" y="57" width="19" height="33">
<path d="M524.188 57.2047C523.882 56.9336 523.518 56.9336 523.212 57.2047L515.158 64.5253C514.852 64.7965 514.679 65.3086 514.679 65.8509V80.5222C514.679 81.0645 514.871 81.5766 515.158 81.8478L523.212 89.1684C523.518 89.4395 523.882 89.4395 524.188 89.1684L532.243 81.8478C532.549 81.5766 532.721 81.0645 532.721 80.5222V65.8509C532.721 65.3086 532.53 64.7965 532.243 64.5253L524.188 57.2047Z" fill="white"/>
</mask>
<g mask="url(#mask0_22_155)">
<path d="M524.188 57.2047C523.882 56.9336 523.518 56.9336 523.212 57.2047L515.158 64.5253C514.852 64.7965 514.679 65.3086 514.679 65.8509V80.5222C514.679 81.0645 514.871 81.5766 515.158 81.8478L523.212 89.1684C523.518 89.4395 523.882 89.4395 524.188 89.1684L532.243 81.8478C532.549 81.5766 532.721 81.0645 532.721 80.5222V65.8509C532.721 65.3086 532.53 64.7965 532.243 64.5253L524.188 57.2047Z" fill="url(#paint0_linear_22_155)"/>
<path d="M532.261 64.5257L524.168 57.2051C524.092 57.1448 523.996 57.0846 523.919 57.0544L514.851 81.5168C514.927 81.6674 515.023 81.7879 515.119 81.8783L523.212 89.1989C523.441 89.4098 523.709 89.4701 523.958 89.3495L532.472 64.827C532.414 64.7065 532.338 64.6161 532.261 64.5257Z" fill="url(#paint1_linear_22_155)"/>
<path fill-rule="evenodd" clip-rule="evenodd" d="M532.281 81.8477C532.511 81.6368 532.683 81.2753 532.759 80.8837L523.882 57.0239C523.652 56.9636 523.404 56.9937 523.193 57.2046L515.158 64.4951L523.825 89.3792C523.939 89.3491 524.073 89.2888 524.188 89.1985L532.281 81.8477Z" fill="url(#paint2_linear_22_155)"/>
<path fill-rule="evenodd" clip-rule="evenodd" d="M532.281 81.8477L524.207 89.1683C524.092 89.2587 523.978 89.3189 523.844 89.3491L523.997 89.8009L532.951 81.6368V81.456L532.721 80.8535C532.683 81.2753 532.511 81.6368 532.281 81.8477Z" fill="url(#paint3_linear_22_155)"/>
<path fill-rule="evenodd" clip-rule="evenodd" d="M532.281 81.8477L524.207 89.1683C524.092 89.2587 523.978 89.3189 523.844 89.3491L523.997 89.8009L532.951 81.6368V81.456L532.721 80.8535C532.683 81.2753 532.511 81.6368 532.281 81.8477Z" fill="url(#paint4_linear_22_155)"/>
</g>
</g>
<path d="M137.147 204.356C136.827 203.054 135.988 202.146 134.904 201.928C134.392 201.826 133.807 201.869 133.114 202.061C131.906 202.396 131.009 202.524 130.355 202.549C132.824 196.947 134.832 190.559 135.987 184.547C137.856 174.824 136.857 170.395 135.69 168.391C132.602 163.089 128.097 160.24 122.661 160.152C119.761 160.105 117.215 160.874 115.887 161.427C114.651 161.134 113.322 160.971 111.926 160.94C109.312 160.884 107.002 161.65 105.027 163.225C103.934 162.728 102.18 162.028 100.155 161.581C95.3906 160.53 91.5509 161.349 88.7424 164.015C85.3415 167.244 83.7648 172.853 84.0565 180.686C84.1489 183.174 85.1844 190.741 86.8146 197.918C87.7515 202.043 88.7505 205.469 89.784 208.1C91.2496 211.832 92.8177 214.03 94.5782 214.819C95.5651 215.261 97.3579 215.57 99.2437 213.46C99.4827 213.849 99.8014 214.236 100.225 214.595C100.762 215.05 101.419 215.422 102.076 215.643C104.441 216.438 106.657 216.239 108.547 215.125C108.559 215.577 108.568 216.008 108.575 216.381C108.588 216.986 108.6 217.579 108.617 218.133C108.729 221.881 108.918 224.796 109.481 226.835C109.512 226.948 109.553 227.118 109.597 227.3C109.877 228.454 110.347 230.386 111.54 231.9C112.776 233.467 114.271 233.948 115.64 233.948C116.326 233.948 116.981 233.827 117.556 233.661C119.604 233.071 121.93 232.173 123.613 228.953C125.204 225.909 125.977 221.325 126.117 214.101C126.135 213.896 126.152 213.701 126.168 213.516C126.179 213.39 126.19 213.262 126.201 213.134L126.576 213.178L126.673 213.187C128.759 213.315 131.31 212.72 132.876 211.742C134.114 210.97 138.081 208.156 137.147 204.356Z" fill="black"/>
<path d="M133.58 205.096C127.377 206.815 126.951 203.993 126.951 203.993C133.5 190.934 136.238 174.357 133.875 170.3C127.43 159.233 116.272 164.467 116.086 164.603L116.026 164.617C114.801 164.275 113.429 164.072 111.888 164.038C109.081 163.976 106.952 165.027 105.337 166.673C105.337 166.673 85.4328 155.654 86.3585 180.531C86.5554 185.824 92.0032 220.576 98.501 210.079C100.876 206.241 103.171 202.995 103.171 202.995C104.31 204.013 105.675 204.532 107.105 204.345L107.216 204.219C107.182 204.695 107.198 205.161 107.261 205.713C105.587 208.226 106.079 208.668 102.733 209.593C99.3466 210.531 101.336 212.201 102.634 212.637C104.209 213.166 107.851 213.916 110.313 209.286L110.214 209.814C110.87 210.52 111.331 214.406 111.254 217.928C111.176 221.451 111.125 223.87 111.642 225.759C112.158 227.648 112.674 231.898 117.073 230.632C120.748 229.573 122.653 226.83 122.918 222.254C123.106 219.001 123.532 219.482 123.559 216.574L123.9 215.197C124.294 210.787 123.962 209.365 126.227 210.026L126.777 210.091C128.444 210.193 130.626 209.731 131.906 208.931C134.663 207.212 136.298 204.341 133.58 205.096H133.58Z" fill="#336791"/>
<path d="M106.502 182.898C105.943 182.794 105.436 182.89 105.18 183.151C105.036 183.297 104.992 183.467 104.98 183.584C104.948 183.894 105.109 184.236 105.208 184.413C105.489 184.913 105.899 185.257 106.305 185.332C106.364 185.343 106.422 185.349 106.48 185.349C107.157 185.349 107.773 184.64 107.827 184.118C107.895 183.463 107.187 183.026 106.502 182.898Z" fill="white"/>
<path d="M125.019 182.919H125.019C124.966 182.406 124.286 182.259 123.641 182.38C122.997 182.5 122.373 182.891 122.425 183.405C122.467 183.805 123.004 184.488 123.64 184.488C123.694 184.488 123.748 184.483 123.803 184.473C124.228 184.394 124.539 184.032 124.687 183.823C124.913 183.504 125.043 183.149 125.019 182.919Z" fill="white"/>
<path d="M135.644 204.9C135.408 203.939 134.646 203.63 133.382 203.981C129.626 205.022 128.281 204.301 127.84 203.864C130.759 197.888 133.16 190.665 134.455 183.926C135.069 180.733 135.408 177.768 135.436 175.352C135.466 172.699 135.13 170.751 134.437 169.56C131.641 164.76 127.539 162.185 122.573 162.115C119.159 162.063 116.275 163.237 115.715 163.567C114.538 163.174 113.254 162.932 111.856 162.901C109.293 162.846 107.078 163.67 105.244 165.351C104.447 164.953 102.388 164.003 99.8702 163.458C95.5169 162.516 92.0576 163.229 89.5889 165.58C86.6433 168.384 85.2834 173.397 85.5469 180.479C85.6356 182.862 86.6458 190.192 88.2402 197.212C90.3388 206.451 92.6199 211.681 95.0203 212.757C95.3012 212.883 95.6252 212.971 95.9824 212.971C96.858 212.971 97.9314 212.44 99.0484 210.636C100.904 207.637 102.636 205.123 103.274 204.21C104.218 204.891 105.254 205.271 106.315 205.309C106.316 205.346 106.319 205.384 106.322 205.421C106.109 205.76 105.935 206.057 105.786 206.311C105.051 207.564 104.898 207.824 102.534 208.479C101.861 208.665 100.075 209.16 100.049 210.843C100.02 212.681 102.16 213.454 102.404 213.535C103.254 213.821 104.072 213.962 104.853 213.962C106.752 213.962 108.422 213.124 109.758 211.501C109.717 218.056 109.92 224.515 110.506 226.483C110.985 228.093 112.157 232.031 115.858 232.03C116.401 232.03 116.999 231.945 117.657 231.756C121.52 230.643 123.197 228.349 123.846 223.291C124.193 220.587 124.789 214.132 125.07 210.67C125.661 210.918 126.423 211.031 127.246 211.031C128.963 211.031 130.944 210.541 132.186 209.766C133.582 208.895 136.101 206.757 135.644 204.9ZM126.445 181.502C126.432 182.524 126.327 183.452 126.216 184.421C126.097 185.463 125.974 186.54 125.942 187.848C125.912 189.12 126.03 190.443 126.144 191.722C126.376 194.306 126.613 196.967 125.695 199.592C125.552 199.252 125.414 198.88 125.288 198.469C125.174 198.097 124.926 197.5 124.583 196.673C123.248 193.457 120.123 185.925 121.723 182.851C122.199 181.936 123.409 180.996 126.445 181.502ZM122.765 164.185C127.215 164.317 130.734 166.554 133.226 170.833C135.138 174.115 133.033 189.051 126.94 201.935C126.88 201.832 126.819 201.729 126.755 201.622C126.73 201.58 126.704 201.536 126.678 201.493C128.253 197.998 127.945 194.541 127.671 191.476C127.558 190.218 127.452 189.03 127.479 187.914C127.507 186.731 127.623 185.717 127.736 184.736C127.874 183.527 128.015 182.276 127.976 180.801C128.005 180.647 128.017 180.464 128.001 180.247C127.902 178.833 126.701 174.601 124.252 170.77C122.913 168.676 120.96 166.331 118.293 164.75C119.44 164.43 121.009 164.132 122.765 164.185ZM97.8664 209.315C96.6359 211.303 95.786 210.923 95.5066 210.797C93.6857 209.981 91.573 204.81 89.7103 196.608C88.0985 189.512 87.1565 182.377 87.082 180.376C86.8466 174.048 87.9881 169.637 90.4749 167.268C94.522 163.411 101.176 165.719 103.849 166.89C103.811 166.941 103.771 166.989 103.733 167.04C99.3457 172.995 99.4497 183.168 99.4605 183.79C99.4601 184.03 99.475 184.369 99.4956 184.837C99.5711 186.548 99.7115 189.732 99.3363 193.339C98.9874 196.69 99.7562 199.97 101.445 202.338C101.62 202.583 101.802 202.813 101.991 203.03C101.239 204.112 99.6053 206.504 97.8664 209.315ZM102.555 200.909C101.194 199 100.575 196.346 100.859 193.625C101.255 189.815 101.109 186.497 101.03 184.714C101.019 184.465 101.009 184.246 101.003 184.074C101.644 183.31 104.615 181.171 106.733 181.824C107.699 182.121 108.288 183.006 108.533 184.527C109.801 192.404 108.701 195.687 107.817 198.325C107.635 198.868 107.463 199.382 107.316 199.914L107.203 200.324C106.914 201.363 106.646 202.329 106.48 203.246C105.033 203.24 103.625 202.41 102.555 200.909ZM102.777 211.532C102.354 211.39 101.974 211.143 101.751 210.939C101.938 210.821 102.269 210.661 102.844 210.502C105.626 209.732 106.055 209.189 106.993 207.588C107.208 207.222 107.452 206.806 107.79 206.299C107.79 206.298 107.79 206.298 107.79 206.298C108.293 205.541 108.523 205.67 108.94 205.902C109.278 206.09 109.608 206.66 109.741 207.286C109.804 207.582 109.875 208.144 109.643 208.581C107.683 212.269 104.828 212.221 102.777 211.532ZM117.335 229.736C113.932 230.716 112.727 228.383 111.933 225.715C111.42 223.993 111.169 216.228 111.347 207.652C111.35 207.538 111.338 207.428 111.314 207.324C111.294 207.124 111.262 206.922 111.219 206.718C110.953 205.47 110.306 204.427 109.529 203.994C109.22 203.822 108.654 203.507 107.973 203.741C108.118 202.937 108.37 202.029 108.643 201.046L108.757 200.633C108.886 200.167 109.048 199.684 109.219 199.173C110.144 196.412 111.41 192.632 110.036 184.091C109.521 180.892 107.802 179.329 105.196 179.692C103.634 179.909 102.204 180.757 101.492 181.242C101.338 181.347 101.198 181.447 101.067 181.546C101.266 178.322 102.018 172.299 104.83 168.487C106.6 166.088 108.958 164.903 111.831 164.967C117.492 165.091 121.121 168.995 123.17 172.248C124.935 175.052 125.891 177.875 126.273 179.398C123.404 179.006 121.453 179.767 120.463 181.667C118.312 185.801 121.641 193.824 123.241 197.679C123.534 198.386 123.787 198.997 123.867 199.256C124.388 200.953 125.062 202.086 125.555 202.913C125.706 203.166 125.852 203.412 125.964 203.627C125.095 203.963 123.534 204.741 123.676 208.629C123.562 210.58 122.746 219.713 122.332 222.94C121.785 227.203 120.617 228.791 117.335 229.736ZM131.539 207.892C130.651 208.447 129.164 208.862 127.751 208.951C126.191 209.05 125.397 208.717 125.21 208.512C125.122 206.089 125.794 205.836 126.504 205.568C126.615 205.526 126.724 205.485 126.829 205.435C126.895 205.507 126.966 205.578 127.044 205.647C128.298 206.759 130.535 206.879 133.692 206.004C133.704 206 133.716 205.997 133.727 205.994C133.301 206.529 132.572 207.247 131.539 207.892Z" fill="white"/>
<g clip-path="url(#clip4_22_155)">
<path d="M150.329 21.4482H222.896V106.749H150.329V21.4482Z" fill="#F7DF1E"/>
<path d="M169.409 92.7306L174.963 88.7801C176.034 91.0129 177.009 92.9021 179.346 92.9021C181.587 92.9021 183 91.8717 183 87.864V60.6084H189.819V87.9773C189.819 96.2799 185.679 100.059 179.639 100.059C174.183 100.059 171.017 96.7378 169.409 92.7299" fill="black"/>
<path d="M193.523 91.8717L199.076 88.0926C200.538 90.8986 202.437 92.9597 205.798 92.9597C208.624 92.9597 210.426 91.2991 210.426 89.0087C210.426 86.2602 208.575 85.2867 205.457 83.684L203.753 82.8245C198.833 80.3629 195.569 77.2709 195.569 70.7433C195.569 64.7311 199.466 60.1501 205.555 60.1501C209.89 60.1501 213.008 61.9253 215.248 66.5634L209.939 70.5713C208.77 68.1094 207.503 67.1361 205.555 67.1361C203.558 67.1361 202.291 68.6248 202.291 70.5713C202.291 72.9762 203.558 73.9499 206.48 75.4387L208.185 76.2975C213.982 79.2179 217.245 82.1951 217.245 88.8941C217.245 96.1092 212.423 100.06 205.945 100.06C199.612 100.06 195.52 96.5098 193.523 91.8717" fill="black"/>
</g>
<path d="M354.982 33.2528C337.974 33.2528 324.186 50.2045 324.186 71.1156C324.186 92.0267 337.974 108.978 354.982 108.978C371.991 108.978 385.779 92.0266 385.779 71.1156C385.779 50.2045 371.991 33.2528 354.982 33.2528ZM330.803 71.5103L354.661 100.843C341.561 100.633 330.974 87.617 330.803 71.5103ZM360.395 100.099L331.408 64.4611C333.866 51.2445 343.487 41.3836 354.982 41.3836C363.018 41.3836 370.136 46.2031 374.534 53.6178L371.186 57.2501C367.619 50.9607 361.692 46.8446 354.982 46.8446C346.44 46.8446 339.165 53.5156 336.416 62.8513L361.704 93.9424C367.846 91.2082 372.569 84.8345 374.151 76.9406H363.669V71.1156H374.724V71.1155H379.166V71.1156C379.166 85.2483 371.145 97.0773 360.395 100.099Z" fill="#744C9E"/>
<path d="M75.6567 218.706C72.414 218.597 69.9009 219.033 67.7931 220.231C67.1851 220.558 66.2121 220.558 66.131 221.593C66.4555 222.029 66.4959 222.737 66.7797 223.337C67.2664 224.426 68.1173 225.897 68.8875 226.66C69.7386 227.531 70.59 228.403 71.4815 229.166C73.0625 230.473 74.846 231.236 76.3863 232.543C77.2783 233.305 78.1696 234.286 79.0614 235.104C79.5074 235.539 79.791 236.247 80.3585 236.52V236.357C80.0747 235.866 79.9936 235.158 79.7101 234.613C79.305 234.068 78.8994 233.578 78.4941 233.033C77.3185 230.909 75.8594 229.057 74.2785 227.531C72.9816 226.333 70.144 224.698 69.6171 222.683C69.6171 222.683 69.5764 222.628 69.536 222.574C70.4278 222.465 71.4815 222.029 72.3329 221.702C73.7112 221.212 74.9676 221.321 76.3863 220.831C77.0347 220.613 77.6834 220.34 78.3318 220.068V219.578C77.6026 218.597 77.0754 217.29 76.3052 216.364C74.238 213.966 71.968 211.624 69.6171 209.663C68.3604 208.574 66.739 207.865 65.4015 206.939C64.9153 206.612 64.1043 206.449 63.8208 205.904C63.091 204.706 62.6857 203.126 62.1588 201.709C60.9837 198.713 59.8483 195.39 58.835 192.231C58.1057 190.106 57.6596 187.981 56.7679 186.02C52.5929 176.759 48.0531 171.148 41.0812 165.646C39.5814 164.502 37.7981 164.012 35.893 163.413C34.8799 163.358 33.8663 163.249 32.8529 163.195C32.2045 162.813 31.5558 161.778 30.9882 161.288C28.6783 159.327 22.7195 155.078 21.017 160.689C19.9226 164.23 22.6384 167.716 23.5706 169.514C24.26 170.767 25.1515 172.183 25.638 173.6C25.9218 174.525 26.0026 175.506 26.2864 176.487C26.9351 178.883 27.5429 181.553 28.3942 183.787C28.8402 184.931 29.3264 186.129 29.894 187.164C30.2182 187.763 30.7856 188.036 30.9074 189.017C30.34 190.106 30.2994 191.74 29.9749 193.102C28.5158 199.258 29.0833 206.885 31.1505 211.406C31.7989 212.768 33.3394 215.765 35.4065 214.62C37.2305 213.64 36.8252 210.535 37.3521 207.811C37.4739 207.157 37.3928 206.721 37.6359 206.286C37.6361 206.34 37.6359 206.395 37.6359 206.395C38.2034 207.92 38.7708 209.391 39.2976 210.916C40.5543 213.585 42.743 216.364 44.567 218.216C45.5402 219.196 46.3102 220.885 47.5262 221.485V221.321H47.4451C47.2017 220.83 46.8371 220.613 46.5129 220.231C45.7833 219.251 44.9724 218.052 44.405 216.963C42.7028 213.912 41.2028 210.535 39.8652 207.048C39.2168 205.359 38.6492 203.507 38.1223 201.818C37.879 201.164 37.879 200.184 37.4736 199.857C36.8656 201.056 35.9741 202.091 35.5281 203.562C34.7583 205.904 34.677 208.791 34.3932 211.788C34.2312 211.842 34.312 211.788 34.2309 211.897C32.9341 211.46 32.488 209.663 32.0016 208.138C30.7856 204.27 30.5829 198.059 31.6369 193.593C31.9207 192.448 33.1367 188.853 32.6503 187.764C32.4072 186.728 31.5962 186.129 31.1505 185.312C30.6236 184.277 30.056 182.97 29.6913 181.826C28.7184 178.775 28.232 175.397 27.1782 172.347C26.6918 170.93 25.8406 169.459 25.1515 168.152C24.3815 166.681 23.5302 165.646 22.9222 163.903C22.7197 163.304 22.4357 162.323 22.7599 161.669C22.841 161.234 23.003 161.07 23.3275 160.961C23.8544 160.362 25.3542 161.125 25.8811 161.451C27.3809 162.268 28.6373 163.031 29.894 164.175C30.4613 164.72 31.0693 165.755 31.7989 166.027H32.6502C33.9474 166.409 35.4065 166.136 36.6225 166.627C38.771 167.552 40.7163 168.915 42.4595 170.386C47.7695 174.907 52.1469 181.336 55.1061 189.017C55.5925 190.269 55.7949 191.414 56.241 192.721C57.0923 195.39 58.1461 198.114 58.9972 200.729C59.8483 203.289 60.659 205.904 61.875 208.029C62.4832 209.172 64.915 209.772 66.0095 210.371C66.8201 210.861 68.0769 211.297 68.8064 211.897C70.1844 213.04 71.5627 214.348 72.8598 215.601C73.5085 216.254 75.5349 217.617 75.6567 218.706L75.6567 218.706Z" fill="#00546B"/>
<path d="M37.4989 173.362C36.9391 173.362 36.5442 173.455 36.1491 173.594C36.1491 173.594 36.1491 173.641 36.1491 173.687H36.215C36.4786 174.43 36.9392 174.941 37.2684 175.59C37.5319 176.333 37.7622 177.076 38.0258 177.819C38.0586 177.772 38.0915 177.726 38.0915 177.726C38.5527 177.262 38.783 176.519 38.783 175.405C38.5853 175.08 38.5525 174.755 38.3878 174.43C38.1904 173.965 37.7622 173.734 37.4989 173.362Z" fill="#00546B"/>
<path d="M65.0785 22.0693L59.6885 102.456L35.4603 111.398L11.2987 102.469L5.91446 22.0693H65.0785Z" fill="#E44D26"/>
<path d="M35.4965 104.563L55.0741 97.3374L59.6802 28.6432H35.4965V104.563Z" fill="#F16529"/>
<path d="M25.0186 48.3648H35.4965V38.504H16.924L17.1012 41.1495L18.9217 68.3228H35.4965V58.4622H25.6955L25.0186 48.3648Z" fill="#EBEBEB"/>
<path d="M26.6878 73.2532H19.2526L20.2903 88.7358L35.4624 94.3432L35.4965 94.3306V84.0713L35.464 84.0828L27.2151 81.1175L26.6878 73.2532Z" fill="#EBEBEB"/>
<path d="M11.4191 0.219482H15.1831V5.17038H18.6263V0.219482H22.3904V15.212H18.6264V10.1916H15.1833V15.212H11.4193V0.219482H11.4191Z" fill="black"/>
<path d="M27.3402 5.19123H24.0266V0.219482H34.4197V5.19123H31.1045V15.212H27.3404V5.19123H27.3402Z" fill="black"/>
<path d="M36.0691 0.219482H39.994L42.4083 5.48741L44.8201 0.219482H48.7464V15.212H44.9979V7.78089L42.4083 13.1116H42.3435L39.7521 7.78089V15.212H36.0691V0.219482Z" fill="black"/>
<path d="M50.6197 0.219482H54.3848V10.2563H59.6781V15.212H50.6197V0.219482Z" fill="black"/>
<path d="M35.3613 68.4671H44.4819L43.6221 81.2556L35.3613 84.224V94.4828L50.5455 88.8802L50.6569 87.2143L52.3974 61.2544L52.5781 58.6066H35.3613V68.4671Z" fill="white"/>
<path d="M35.4709 48.3407V48.3648H53.3616L53.5102 46.1484L53.8477 41.1495L54.0248 38.504H35.4709V48.3407Z" fill="white"/>
<g clip-path="url(#clip5_22_155)">
<path d="M391.068 200.695C388.628 200.709 386.508 201.37 384.733 202.347C384.082 200.896 383.43 199.604 383.315 198.656C383.187 197.55 383.034 196.875 383.187 195.553C383.341 194.232 384.03 192.351 384.018 192.207C384.005 192.063 383.864 191.388 382.459 191.374C381.054 191.36 379.841 191.676 379.701 192.092C379.56 192.509 379.292 193.456 379.113 194.433C378.87 195.869 376.303 200.997 374.834 203.682C374.362 202.634 373.953 201.715 373.864 200.982C373.736 199.876 373.583 199.201 373.736 197.88C373.889 196.559 374.579 194.677 374.566 194.534C374.553 194.39 374.413 193.715 373.008 193.701C371.603 193.686 370.39 194.002 370.249 194.419C370.109 194.835 369.955 195.812 369.662 196.76C369.368 197.708 365.958 206.268 365.063 208.479C364.604 209.614 364.208 210.519 363.927 211.137C363.927 211.137 363.914 211.18 363.876 211.251C363.633 211.783 363.492 212.07 363.492 212.07C363.492 212.07 363.492 212.07 363.492 212.084C363.301 212.472 363.097 212.831 362.994 212.831C362.918 212.831 362.777 211.797 363.02 210.39C363.531 207.417 364.744 202.792 364.731 202.634C364.731 202.548 364.961 201.744 363.94 201.327C362.943 200.911 362.586 201.6 362.496 201.6C362.407 201.6 362.343 201.844 362.343 201.844C362.343 201.844 363.454 196.645 360.223 196.645C358.205 196.645 355.42 199.13 354.041 201.37C353.172 201.902 351.32 203.036 349.341 204.257C348.587 204.731 347.808 205.205 347.08 205.65C347.029 205.593 346.978 205.521 346.927 205.463C343.018 200.767 335.789 197.449 336.096 191.144C336.211 188.846 336.913 182.814 349.979 175.489C360.734 169.529 369.291 171.181 370.773 174.843C372.893 180.071 366.187 189.78 355.076 191.187C350.835 191.719 348.613 189.88 348.051 189.191C347.463 188.473 347.374 188.43 347.157 188.573C346.799 188.789 347.029 189.435 347.157 189.808C347.489 190.785 348.855 192.509 351.167 193.356C353.211 194.103 358.179 194.519 364.195 191.905C370.926 188.975 376.188 180.832 374.643 174.01C373.097 167.087 362.879 164.804 353.211 168.667C347.463 170.965 341.23 174.584 336.747 179.295C331.421 184.897 330.578 189.765 330.923 191.805C332.162 199.043 341.039 203.754 344.589 207.244C344.411 207.359 344.245 207.46 344.104 207.546C342.329 208.537 335.559 212.515 333.873 216.723C331.958 221.492 334.18 224.91 335.649 225.37C340.208 226.791 344.896 224.235 347.412 220.012C349.928 215.79 349.622 210.304 348.459 207.79C348.447 207.761 348.434 207.733 348.408 207.704C348.868 207.402 349.341 207.086 349.801 206.785C350.707 206.182 351.601 205.621 352.368 205.162C351.934 206.497 351.614 208.092 351.461 210.39C351.269 213.09 352.253 216.594 353.543 217.973C354.118 218.576 354.795 218.591 355.229 218.591C356.736 218.591 357.413 217.183 358.166 215.517C359.086 213.478 359.916 211.108 359.916 211.108C359.916 211.108 358.882 217.513 361.692 217.513C362.713 217.513 363.748 216.02 364.208 215.259V215.273C364.208 215.273 364.233 215.23 364.284 215.129C364.387 214.943 364.45 214.828 364.45 214.828V214.799C364.859 213.995 365.779 212.171 367.145 209.14C368.908 205.234 370.607 200.35 370.607 200.35C370.607 200.35 370.76 201.542 371.284 203.524C371.59 204.688 372.229 205.966 372.74 207.201C372.331 207.848 372.076 208.207 372.076 208.207C372.076 208.207 372.076 208.207 372.088 208.221C371.756 208.709 371.399 209.241 371.003 209.758C369.61 211.625 367.95 213.765 367.72 214.382C367.452 215.115 367.516 215.646 368.027 216.077C368.397 216.393 369.061 216.436 369.738 216.393C370.99 216.293 371.871 215.948 372.305 215.732C372.982 215.46 373.774 215.043 374.515 214.426C375.882 213.291 376.712 211.668 376.635 209.528C376.597 208.35 376.252 207.173 375.831 206.067C375.958 205.866 376.073 205.664 376.201 205.463C378.36 201.916 380.033 198.024 380.033 198.024C380.033 198.024 380.186 199.216 380.71 201.198C380.965 202.203 381.489 203.295 381.949 204.358C379.918 206.21 378.666 208.365 378.219 209.772C377.414 212.386 378.04 213.564 379.228 213.837C379.764 213.966 380.531 213.679 381.093 213.406C381.808 213.147 382.651 212.702 383.456 212.041C384.822 210.907 386.138 209.327 386.061 207.187C386.023 206.21 385.793 205.248 385.474 204.314C387.198 203.51 389.42 203.065 392.256 203.438C398.335 204.243 399.536 208.508 399.306 210.304C399.076 212.099 397.799 213.075 397.378 213.377C396.956 213.679 396.816 213.779 396.854 213.995C396.905 214.311 397.109 214.296 397.467 214.239C397.965 214.138 400.66 212.788 400.775 209.485C400.967 205.262 397.39 200.652 391.068 200.695ZM344.168 218.476C342.15 220.946 339.34 221.88 338.127 221.09C336.824 220.242 337.335 216.594 339.813 213.98C341.32 212.386 343.261 210.907 344.551 210.002C344.845 209.801 345.279 209.514 345.803 209.155C345.892 209.097 345.943 209.068 345.943 209.068C346.045 208.997 346.148 208.925 346.25 208.853C347.157 212.587 346.288 215.876 344.168 218.476ZM358.856 207.244C358.154 209.169 356.685 214.095 355.791 213.822C355.024 213.592 354.552 209.858 355.637 206.167C356.187 204.314 357.349 202.103 358.026 201.241C359.124 199.862 360.338 199.403 360.631 199.963C361.002 200.695 359.29 206.038 358.856 207.244ZM370.977 213.765C370.683 213.937 370.402 214.052 370.275 213.966C370.185 213.908 370.402 213.679 370.402 213.679C370.402 213.679 371.922 211.84 372.523 211.007C372.867 210.519 373.276 209.944 373.71 209.298V209.485C373.71 211.682 371.82 213.162 370.977 213.765ZM380.326 211.366C380.109 211.194 380.148 210.619 380.876 208.824C381.157 208.12 381.821 206.943 382.958 205.808C383.085 206.268 383.175 206.713 383.162 207.129C383.149 209.901 381.387 210.935 380.326 211.366Z" fill="#CD6799"/>
</g>
<path fill-rule="evenodd" clip-rule="evenodd" d="M442.722 166.798L453.856 174.877C454.169 174.46 454.535 174.091 454.951 173.788C457.26 172.12 460.205 173.11 461.546 176.012C462.874 178.914 462.086 182.616 459.776 184.301C459.364 184.599 458.931 184.812 458.49 184.945V201.109C458.926 201.242 459.355 201.453 459.763 201.748C462.086 203.434 462.874 207.135 461.532 210.037C460.205 212.939 457.246 213.93 454.937 212.261C454.477 211.929 454.078 211.516 453.743 211.044L442.677 219.073C442.835 219.674 442.921 220.317 442.921 220.985C442.921 224.321 440.764 227.049 438.095 227.049C435.427 227.049 433.27 224.339 433.27 220.985C433.27 220.389 433.338 219.813 433.465 219.269L422.334 211.192C422.024 211.601 421.663 211.963 421.254 212.261C418.931 213.93 415.986 212.939 414.658 210.037C413.331 207.135 414.119 203.434 416.428 201.748C416.836 201.453 417.265 201.241 417.7 201.108V184.945C417.259 184.812 416.826 184.599 416.414 184.301C414.105 182.633 413.317 178.914 414.644 176.012C415.972 173.11 418.931 172.12 421.24 173.788C421.653 174.09 422.018 174.456 422.33 174.87L433.467 166.789C433.339 166.243 433.27 165.664 433.27 165.065C433.27 161.711 435.427 159 438.095 159C440.764 159 442.921 161.711 442.921 165.065C442.921 165.667 442.851 166.249 442.722 166.798ZM441.562 169.287L452.722 177.386C452.377 178.908 452.504 180.597 453.181 182.077C453.86 183.562 454.967 184.547 456.195 184.93V201.115C456.133 201.134 456.07 201.155 456.008 201.177L441.432 169.449C441.476 169.396 441.519 169.342 441.562 169.287ZM434.762 169.453L420.186 201.18C420.123 201.157 420.059 201.136 419.995 201.116V184.93C421.224 184.547 422.33 183.562 423.01 182.077C423.688 180.594 423.814 178.902 423.467 177.376L434.624 169.281C434.669 169.339 434.715 169.397 434.762 169.453ZM439.444 170.89L454.016 202.611C453.69 203.001 453.403 203.457 453.167 203.972C452.932 204.485 452.764 205.023 452.658 205.571H423.533C423.427 205.024 423.258 204.486 423.024 203.972C422.787 203.46 422.5 203.007 422.175 202.618L436.751 170.892C437.178 171.046 437.629 171.129 438.095 171.129C438.563 171.129 439.016 171.046 439.444 170.89ZM441.664 216.899L452.752 208.854C452.719 208.722 452.689 208.59 452.663 208.456H423.526C423.511 208.534 423.494 208.613 423.476 208.69L434.619 216.775C435.496 215.631 436.729 214.92 438.095 214.92C439.511 214.92 440.782 215.683 441.664 216.899Z" fill="#E535AB"/>
<path fill-rule="evenodd" clip-rule="evenodd" d="M232.27 192.899C232.189 192.93 232.108 193.276 232.108 193.464C232.092 194.72 232.076 198.048 232.076 200.309C232.076 200.372 232.124 200.497 232.173 200.497C232.416 200.529 233 200.56 233.503 200.56C234.2 200.56 234.605 200.372 234.832 200.183C235.416 199.618 235.692 198.393 235.692 197.043C235.692 193.998 234.589 192.836 232.951 192.836C232.838 192.805 232.514 192.805 232.27 192.899ZM236.454 206.934C236.454 203.826 235.27 202.099 233.13 202.099C233.033 202.099 232.352 202.067 232.189 202.13C232.141 202.161 232.076 202.224 232.076 202.319C232.076 204.548 232.06 208.096 232.108 209.477C232.141 210.074 232.368 210.922 232.643 211.173C232.935 211.487 233.6 211.55 234.054 211.55C235.335 211.55 236.454 210.168 236.454 206.934ZM228.963 191.172C229.125 191.172 229.611 191.266 230.86 191.266C232.043 191.266 232.984 191.203 234.135 191.203C235.546 191.203 237.492 192.177 237.492 196.258C237.492 198.268 236.762 199.869 235.805 200.654C235.757 200.686 235.757 200.748 235.805 200.78C237.167 201.439 238.367 203.072 238.367 206.149C238.367 209.164 237.394 211.079 235.984 212.272C235.124 212.994 234.054 213.245 232.968 213.245C232.141 213.245 229.919 213.057 228.687 213.12C228.557 213.026 228.8 211.895 228.914 211.707C229.206 211.675 229.433 211.644 229.741 211.456C230.179 211.236 230.227 210.985 230.292 209.697C230.325 208.598 230.325 204.705 230.325 201.942C230.325 198.142 230.341 195.568 230.325 194.312C230.308 193.338 230.13 193.024 229.773 192.836C229.498 192.742 229.044 192.616 228.671 192.522C228.589 192.365 228.865 191.297 228.963 191.172ZM219.606 210.702C219.996 211.298 220.758 211.55 221.439 211.55C222.314 211.55 223.19 211.236 224.033 209.76C224.893 208.253 225.492 205.929 225.492 202.224C225.492 198.676 224.795 195.787 223.368 194.092C222.558 193.118 221.52 192.71 220.32 192.71C219.963 192.71 219.622 192.742 219.412 192.93C219.363 192.993 219.25 193.276 219.25 193.432C219.217 194.061 219.217 198.896 219.217 201.722C219.217 204.642 219.217 208.724 219.25 209.195C219.25 209.666 219.363 210.388 219.606 210.702ZM215.925 191.172C216.233 191.172 217.417 191.266 217.985 191.266C219.006 191.266 219.736 191.172 221.666 191.172C223.287 191.172 224.649 192.02 225.622 193.621C226.806 195.599 227.422 198.331 227.422 201.659C227.422 206.4 226.303 209.132 225.184 210.702C224.066 212.303 222.606 213.245 220.531 213.245C219.428 213.245 217.531 213.182 215.958 213.151H215.942C215.861 212.869 216.071 211.77 216.201 211.738C216.623 211.644 216.736 211.613 216.947 211.456C217.287 211.204 217.352 210.859 217.401 209.697C217.45 207.531 217.433 204.925 217.433 201.973C217.433 199.869 217.45 195.756 217.417 194.437C217.369 193.338 217.125 193.056 216.639 192.867C216.396 192.773 216.071 192.648 215.617 192.554C215.552 192.333 215.844 191.36 215.925 191.172Z" fill="#8E714E"/>
<path fill-rule="evenodd" clip-rule="evenodd" d="M196.305 211.927C195.9 211.832 195.608 211.707 195.251 211.393C195.202 211.33 195.121 211.016 195.121 210.89C195.089 209.791 195.089 206.652 195.089 204.548C195.089 202.852 194.943 201.377 194.57 200.34C194.132 199.147 193.5 198.456 192.689 198.456C191.975 198.456 191.019 199.399 190.224 200.717C190.208 200.748 190.078 200.968 190.094 200.623C190.094 200.278 190.127 199.587 190.143 199.116C190.159 198.676 190.03 198.456 190.03 198.456C189.511 198.959 188.051 199.618 187.516 199.712C187.127 199.869 187.03 200.592 187.435 200.843H187.451C187.889 201.094 188.181 201.377 188.408 201.659C188.57 201.91 188.554 202.256 188.554 202.538C188.57 204.893 188.57 208.504 188.522 210.482C188.505 211.267 188.392 211.55 188.1 211.675L188.132 211.644C187.905 211.738 187.727 211.832 187.451 211.895C187.354 212.083 187.354 213.088 187.451 213.308C187.63 213.308 188.57 213.214 189.349 213.214C190.419 213.214 190.97 213.308 191.246 213.308C191.359 213.057 191.392 212.115 191.327 211.895C191.019 211.864 190.792 211.801 190.581 211.675C190.289 211.55 190.208 211.267 190.192 210.608C190.159 208.944 190.159 205.427 190.159 203.041C190.159 202.381 190.257 202.067 190.354 201.879C190.727 201.251 191.327 200.811 191.862 200.811C192.381 200.811 192.721 201.125 192.981 201.534C193.337 202.099 193.451 202.915 193.5 203.512C193.581 204.862 193.548 207.531 193.548 209.854C193.548 211.11 193.5 211.424 193.256 211.581C193.143 211.675 192.851 211.801 192.51 211.864C192.397 212.083 192.429 213.057 192.51 213.277C192.981 213.277 193.532 213.183 194.343 213.183C195.348 213.183 195.997 213.277 196.256 213.277C196.337 213.088 196.37 212.178 196.305 211.927H196.305ZM200.797 199.932C199.937 199.932 199.402 201.22 199.402 203.229C199.402 205.27 199.872 207.625 201.202 207.625C201.429 207.625 201.851 207.437 202.045 206.997C202.353 206.432 202.564 205.301 202.564 204.108C202.564 201.502 201.899 199.932 200.797 199.932ZM200.683 213.811C200.359 213.811 200.132 213.999 199.986 214.156C199.305 215.004 198.997 215.82 198.997 216.794C198.997 217.704 199.175 218.426 199.564 219.054C200.034 219.839 200.683 220.216 201.51 220.216C203.164 220.216 203.894 218.489 203.894 216.794C203.894 215.6 203.586 214.815 202.953 214.376C202.499 213.999 201.672 213.811 200.683 213.811ZM200.797 221.974C199.807 221.974 199.094 221.566 198.478 220.656C197.878 219.776 197.618 218.458 197.618 217.547C197.618 217.296 197.651 216.605 197.943 215.977C198.121 215.6 198.51 214.878 199.435 213.654C199.467 213.622 199.483 213.591 199.483 213.528C199.483 213.465 199.451 213.402 199.418 213.371C198.656 212.806 198.429 211.895 198.364 211.393V211.33C198.348 211.142 198.316 210.953 198.462 210.765C198.575 210.608 198.737 210.42 198.915 210.2C199.191 209.886 199.483 209.54 199.661 209.258C199.694 209.195 199.694 209.132 199.694 209.069C199.694 209.006 199.661 208.944 199.629 208.912C198.494 208.19 197.926 206.557 197.926 204.108C197.926 202.507 198.299 201.063 198.964 200.152C199.418 199.461 200.553 198.614 201.299 198.614H201.348C202.11 198.645 202.532 198.959 203.131 199.367C203.456 199.587 203.764 199.681 204.186 199.681C204.818 199.681 205.094 199.304 205.321 198.865C205.337 198.927 205.369 199.085 205.385 199.493C205.402 199.901 205.337 200.497 205.175 200.937C205.045 201.282 204.753 201.534 204.461 201.534H204.38C204.088 201.471 203.958 201.408 203.958 201.408L203.894 201.471C203.877 201.534 203.894 201.596 203.91 201.691L203.926 201.753C203.958 202.036 204.023 202.884 204.023 203.104C204.023 205.678 203.488 206.808 202.921 207.656C202.369 208.441 201.737 208.944 201.024 209.069C201.007 209.069 200.943 209.069 200.797 209.101C200.715 209.101 200.602 209.132 200.586 209.132H200.569C200.44 209.195 200.116 209.509 200.116 210.043C200.116 210.514 200.261 211.079 200.959 211.173C201.105 211.205 201.251 211.205 201.413 211.236C202.337 211.361 203.488 211.519 204.023 211.864C204.769 212.398 205.24 213.685 205.24 215.224C205.24 217.547 204.38 219.714 202.953 221.064C202.256 221.66 201.559 221.974 200.797 221.974ZM210.039 200.089C209.699 200.089 209.391 200.246 209.164 200.56C208.531 201.314 208.207 202.821 208.207 205.019C208.207 209.132 209.277 212.021 210.801 212.021C211.255 212.021 211.612 211.77 211.92 211.267C212.39 210.514 212.634 209.006 212.634 206.903C212.634 202.821 211.58 200.089 210.039 200.089ZM210.331 213.528C207.575 213.528 206.585 209.603 206.585 205.929C206.585 203.355 207.12 201.377 208.191 199.963C208.953 199.053 209.861 198.551 210.672 198.551C212.78 198.551 214.255 201.471 214.255 205.678C214.255 208.536 213.672 210.796 212.553 212.178C212.018 212.868 211.093 213.528 210.331 213.528H210.331ZM181.435 200.089C181.095 200.089 180.787 200.246 180.56 200.56C179.927 201.314 179.603 202.821 179.603 205.019C179.603 209.132 180.673 212.021 182.198 212.021C182.652 212.021 183.008 211.77 183.316 211.267C183.787 210.514 184.03 209.006 184.03 206.903C184.03 202.821 182.992 200.089 181.435 200.089ZM181.727 213.528C178.971 213.528 177.982 209.603 177.982 205.929C177.982 203.355 178.517 201.377 179.587 199.963C180.349 199.053 181.257 198.551 182.068 198.551C184.176 198.551 185.651 201.471 185.651 205.678C185.651 208.536 185.068 210.796 183.949 212.178C183.43 212.868 182.506 213.528 181.727 213.528ZM163.193 213.214C163.161 213.12 163.128 212.837 163.145 212.492C163.145 212.241 163.177 212.083 163.193 212.021C163.534 211.927 163.712 211.832 163.907 211.738C164.231 211.581 164.361 211.236 164.377 210.451C164.426 208.567 164.426 204.987 164.409 202.507V202.444C164.409 202.162 164.409 201.816 164.231 201.565C163.972 201.251 163.663 200.968 163.258 200.748C163.112 200.654 163.015 200.497 163.031 200.309C163.031 200.121 163.128 199.901 163.339 199.838C163.874 199.744 165.269 199.085 165.82 198.614C165.852 198.676 165.901 198.865 165.901 199.116L165.885 199.461C165.869 199.807 165.852 200.215 165.852 200.623C165.852 200.748 165.917 200.843 165.982 200.843C166.015 200.843 166.047 200.811 166.08 200.78C167.117 199.21 168.058 198.645 168.544 198.645C169.339 198.645 169.955 199.367 170.425 200.874C170.458 200.968 170.49 201 170.539 201C170.571 201 170.62 200.968 170.636 200.906C171.593 199.493 172.549 198.645 173.182 198.645C174.69 198.645 175.582 200.811 175.582 204.485C175.582 205.521 175.582 206.871 175.566 208.096C175.566 209.195 175.549 210.2 175.549 210.922C175.549 211.079 175.663 211.581 175.841 211.675C176.068 211.895 176.376 211.989 176.782 212.115H176.798C176.83 212.335 176.765 213.151 176.701 213.308C176.603 213.308 176.457 213.308 176.295 213.277C175.987 213.245 175.549 213.214 175.063 213.214C174.057 213.214 173.539 213.245 173.036 213.308C173.004 213.057 172.987 212.304 173.036 212.115C173.328 212.021 173.474 211.927 173.652 211.832C173.976 211.644 174.057 211.361 174.074 210.545C174.074 209.949 174.138 204.862 174.041 203.637C173.944 202.381 173.457 200.906 172.387 200.906C171.982 200.906 171.35 201.22 170.733 202.13C170.701 202.193 170.668 202.35 170.668 202.444V202.476C170.733 203.135 170.733 203.889 170.733 205.05V207.091C170.733 208.504 170.717 209.823 170.733 210.828C170.733 211.519 170.944 211.675 171.123 211.801C171.22 211.832 171.285 211.864 171.366 211.895C171.512 211.958 171.658 212.021 171.885 212.115C171.917 212.241 171.917 212.649 171.868 212.994C171.852 213.183 171.82 213.277 171.804 213.308C171.252 213.277 170.685 213.245 169.858 213.245C169.615 213.245 169.193 213.277 168.836 213.277C168.544 213.277 168.269 213.308 168.106 213.308C168.09 213.245 168.058 213.026 168.058 212.68C168.058 212.398 168.09 212.178 168.123 212.115C168.204 212.083 168.269 212.052 168.35 212.052C168.544 211.989 168.706 211.927 168.869 211.864C169.144 211.707 169.241 211.424 169.258 210.734C169.306 209.164 169.355 204.674 169.241 203.543C169.047 201.722 168.512 200.811 167.652 200.811C167.15 200.811 166.517 201.282 165.998 202.036C165.917 202.162 165.852 202.476 165.852 202.758V204.611C165.852 206.871 165.852 209.697 165.869 210.922C165.885 211.299 165.95 211.738 166.323 211.895C166.404 211.927 166.534 211.989 166.696 212.021L166.988 212.115C167.02 212.304 167.004 213.057 166.939 213.308C166.777 213.308 166.582 213.277 166.355 213.277C166.015 213.245 165.577 213.214 165.09 213.214C164.523 213.214 164.117 213.245 163.793 213.277C163.566 213.214 163.388 213.214 163.193 213.214Z" fill="#442D22"/>
<path fill-rule="evenodd" clip-rule="evenodd" d="M154.664 220.75L153.999 220.31C153.999 220.31 154.08 213.748 152.864 213.277C152.053 211.456 152.994 136.035 155.912 213.026C155.912 213.026 154.907 213.999 154.729 215.663C154.534 217.296 154.664 220.75 154.664 220.75Z" fill="white"/>
<path fill-rule="evenodd" clip-rule="evenodd" d="M154.664 220.75L153.999 220.31C153.999 220.31 154.08 213.748 152.864 213.277C152.053 211.456 152.994 136.035 155.912 213.026C155.912 213.026 154.907 213.999 154.729 215.663C154.534 217.296 154.664 220.75 154.664 220.75Z" fill="#A6A385"/>
<path fill-rule="evenodd" clip-rule="evenodd" d="M155.021 214.407C155.021 214.407 160.842 206.996 159.48 191.579C158.166 180.37 155.069 176.697 154.729 175.283C154.356 174.279 153.999 172.521 153.999 172.521L154.242 203.699C154.242 203.731 153.74 213.245 155.021 214.407Z" fill="white"/>
<path fill-rule="evenodd" clip-rule="evenodd" d="M155.021 214.407C155.021 214.407 160.842 206.996 159.48 191.579C158.166 180.37 155.069 176.697 154.729 175.283C154.356 174.279 153.999 172.521 153.999 172.521L154.242 203.699C154.242 203.731 153.74 213.245 155.021 214.407Z" fill="#499D4A"/>
<path fill-rule="evenodd" clip-rule="evenodd" d="M153.659 214.815C153.659 214.815 148.194 207.593 148.518 194.877C148.826 182.16 152.686 175.912 153.432 174.782C153.918 173.777 153.934 173.4 153.967 172.395C154.307 173.808 154.242 193.527 154.291 195.85C154.437 204.799 154.032 213.12 153.659 214.815Z" fill="white"/>
<path fill-rule="evenodd" clip-rule="evenodd" d="M153.659 214.815C153.659 214.815 148.194 207.593 148.518 194.877C148.826 182.16 152.686 175.912 153.432 174.782C153.918 173.777 153.934 173.4 153.967 172.395C154.307 173.808 154.242 193.527 154.291 195.85C154.437 204.799 154.032 213.12 153.659 214.815Z" fill="#58AA50"/>
<mask id="path-54-inside-1_22_155" fill="white">
<path d="M588.241 85.9315V71.6916H600.494V70.8589H588.241V57.8681H601.268V57.0354H587.668V86.7642H601.383V85.9315H588.241ZM612.43 65.3628L607.351 75.0642L602.387 65.3628H601.641L607.007 75.6888L601.125 86.7642H601.813L607.351 76.3133L612.918 86.7642H613.635L607.724 75.6888L613.119 65.3628H612.43ZM615.357 94.0923V80.7685H615.414C615.758 82.7116 616.437 84.2729 617.451 85.4527C618.465 86.6324 619.756 87.2222 621.325 87.2222C622.339 87.2222 623.238 86.9238 624.022 86.327C624.806 85.7302 625.461 84.9183 625.988 83.8913C626.514 82.8642 626.915 81.6706 627.193 80.3105C627.47 78.9503 627.609 77.5208 627.609 76.0219C627.609 74.4119 627.465 72.9269 627.178 71.5667C626.891 70.2066 626.475 69.0269 625.93 68.0276C625.385 67.0283 624.725 66.2511 623.95 65.6959C623.176 65.1407 622.3 64.8632 621.325 64.8632C620.579 64.8632 619.885 65.0228 619.245 65.342C618.604 65.6612 618.035 66.1123 617.537 66.6952C617.04 67.2781 616.61 67.9651 616.246 68.7562C615.883 69.5473 615.605 70.4148 615.414 71.3585H615.357V65.3628H614.783V94.0923H615.357ZM621.325 86.4311C619.527 86.4311 618.083 85.5359 616.992 83.7455C615.902 81.9551 615.357 79.3806 615.357 76.0219C615.357 74.634 615.491 73.3155 615.758 72.0664C616.026 70.8172 616.414 69.7208 616.92 68.777C617.427 67.8333 618.054 67.0838 618.8 66.5286C619.546 65.9735 620.388 65.6959 621.325 65.6959C622.281 65.6959 623.118 65.9735 623.836 66.5286C624.553 67.0838 625.146 67.8402 625.615 68.7979C626.083 69.7555 626.437 70.8519 626.676 72.0872C626.915 73.3224 627.035 74.634 627.035 76.0219C627.035 77.271 626.925 78.5131 626.705 79.7484C626.485 80.9836 626.145 82.0939 625.686 83.0793C625.227 84.0648 624.639 84.8697 623.922 85.4943C623.204 86.1189 622.339 86.4311 621.325 86.4311ZM630.765 86.7642V74.6479C630.765 73.482 630.88 72.3439 631.109 71.2336C631.339 70.1233 631.693 69.1448 632.171 68.2982C632.649 67.4516 633.256 66.7854 633.993 66.2996C634.729 65.8139 635.605 65.6126 636.618 65.6959V64.8632C635.738 64.8354 634.969 64.9742 634.309 65.2795C633.649 65.5849 633.08 66.0012 632.601 66.5286C632.123 67.056 631.741 67.6737 631.454 68.3815C631.167 69.0893 630.956 69.8457 630.822 70.6507H630.765V65.3628H630.191V86.7642H630.765ZM637.336 76.2301H649.674C649.712 74.7589 649.612 73.3432 649.373 71.9831C649.133 70.6229 648.751 69.4155 648.225 68.3607C647.699 67.3059 647.02 66.4592 646.188 65.8208C645.356 65.1824 644.366 64.8632 643.218 64.8632C642.395 64.8632 641.592 65.113 640.808 65.6126C640.023 66.1123 639.335 66.8409 638.742 67.7986C638.149 68.7562 637.67 69.929 637.307 71.3169C636.944 72.7048 636.762 74.287 636.762 76.0635C636.762 77.6457 636.886 79.1238 637.135 80.4979C637.384 81.8719 637.766 83.0655 638.283 84.0786C638.799 85.0918 639.464 85.876 640.277 86.4311C641.09 86.9863 642.07 87.25 643.218 87.2222C644.901 87.2222 646.317 86.5352 647.464 85.1612C648.612 83.7872 649.291 81.8511 649.502 79.3528H648.928C648.679 81.7123 648.043 83.4818 647.02 84.6616C645.996 85.8413 644.71 86.4311 643.16 86.4311C642.108 86.4311 641.219 86.1674 640.492 85.64C639.765 85.1126 639.172 84.3909 638.713 83.4749C638.254 82.5589 637.914 81.4833 637.694 80.248C637.474 79.0128 637.355 77.6735 637.336 76.2301ZM649.1 75.3973H637.336C637.393 73.8984 637.584 72.5521 637.91 71.3585C638.235 70.1649 638.66 69.1448 639.186 68.2982C639.712 67.4516 640.325 66.8062 641.023 66.3621C641.721 65.918 642.472 65.6959 643.275 65.6959C644.232 65.6959 645.073 65.9527 645.8 66.4662C646.527 66.9797 647.134 67.6806 647.622 68.5689C648.11 69.4571 648.478 70.4911 648.727 71.6708C648.976 72.8505 649.1 74.0927 649.1 75.3973ZM661.582 71.6916H662.155C662.155 69.3044 661.677 67.5696 660.721 66.487C659.764 65.4044 658.464 64.8632 656.818 64.8632C655.9 64.8632 655.126 65.0297 654.494 65.3628C653.863 65.6959 653.347 66.1261 652.945 66.6535C652.543 67.181 652.256 67.7639 652.084 68.4023C651.912 69.0407 651.826 69.6514 651.826 70.2343C651.826 71.4002 651.969 72.3301 652.256 73.024C652.543 73.718 652.993 74.2592 653.605 74.6479C654.026 74.9254 654.504 75.1753 655.04 75.3973C655.575 75.6194 656.197 75.8553 656.905 76.1051C657.536 76.3272 658.158 76.5493 658.77 76.7713C659.382 76.9934 659.922 77.2918 660.391 77.6665C660.859 78.0413 661.242 78.5201 661.539 79.103C661.835 79.6859 661.983 80.4493 661.983 81.393C661.983 82.3091 661.835 83.0863 661.539 83.7247C661.242 84.3632 660.864 84.8836 660.405 85.2861C659.946 85.6886 659.434 85.9801 658.87 86.1605C658.306 86.3409 657.756 86.4311 657.22 86.4311C655.479 86.4311 654.145 85.869 653.217 84.7448C652.29 83.6206 651.826 81.8511 651.826 79.4361H651.252C651.252 82.1286 651.754 84.0994 652.758 85.3486C653.763 86.5977 655.25 87.2222 657.22 87.2222C657.851 87.2222 658.487 87.1181 659.128 86.91C659.769 86.7018 660.343 86.3617 660.85 85.8898C661.357 85.418 661.768 84.8073 662.084 84.0578C662.399 83.3083 662.557 82.3923 662.557 81.3098C662.557 80.2827 662.418 79.45 662.141 78.8116C661.864 78.1731 661.5 77.6457 661.051 77.2293C660.601 76.813 660.094 76.4868 659.53 76.2509C658.966 76.0149 658.397 75.7859 657.823 75.5639C657.019 75.2585 656.316 74.9948 655.714 74.7728C655.111 74.5507 654.552 74.287 654.035 73.9817C653.538 73.6763 653.141 73.2391 652.844 72.6701C652.548 72.1011 652.4 71.2891 652.4 70.2343C652.4 70.04 652.438 69.6931 652.514 69.1934C652.591 68.6938 652.773 68.1872 653.06 67.6737C653.347 67.1601 653.787 66.7021 654.38 66.2996C654.973 65.8971 655.786 65.6959 656.818 65.6959C657.526 65.6959 658.172 65.8069 658.755 66.029C659.339 66.2511 659.841 66.605 660.262 67.0907C660.683 67.5765 661.008 68.1941 661.237 68.9436C661.467 69.6931 661.582 70.6091 661.582 71.6916ZM674.867 71.6916H675.44C675.44 69.3044 674.962 67.5696 674.006 66.487C673.049 65.4044 671.749 64.8632 670.104 64.8632C669.185 64.8632 668.411 65.0297 667.779 65.3628C667.148 65.6959 666.632 66.1261 666.23 66.6535C665.828 67.181 665.541 67.7639 665.369 68.4023C665.197 69.0407 665.111 69.6514 665.111 70.2343C665.111 71.4002 665.254 72.3301 665.541 73.024C665.828 73.718 666.278 74.2592 666.89 74.6479C667.311 74.9254 667.789 75.1753 668.325 75.3973C668.86 75.6194 669.482 75.8553 670.19 76.1051C670.821 76.3272 671.443 76.5493 672.055 76.7713C672.667 76.9934 673.207 77.2918 673.676 77.6665C674.144 78.0413 674.527 78.5201 674.824 79.103C675.12 79.6859 675.268 80.4493 675.268 81.393C675.268 82.3091 675.12 83.0863 674.824 83.7247C674.527 84.3632 674.149 84.8836 673.69 85.2861C673.231 85.6886 672.719 85.9801 672.155 86.1605C671.591 86.3409 671.041 86.4311 670.505 86.4311C668.764 86.4311 667.43 85.869 666.502 84.7448C665.575 83.6206 665.111 81.8511 665.111 79.4361H664.537C664.537 82.1286 665.039 84.0994 666.043 85.3486C667.048 86.5977 668.535 87.2222 670.505 87.2222C671.136 87.2222 671.772 87.1181 672.413 86.91C673.054 86.7018 673.628 86.3617 674.135 85.8898C674.642 85.418 675.053 84.8073 675.369 84.0578C675.684 83.3083 675.842 82.3923 675.842 81.3098C675.842 80.2827 675.703 79.45 675.426 78.8116C675.149 78.1731 674.785 77.6457 674.336 77.2293C673.886 76.813 673.379 76.4868 672.815 76.2509C672.251 76.0149 671.682 75.7859 671.108 75.5639C670.304 75.2585 669.601 74.9948 668.999 74.7728C668.396 74.5507 667.837 74.287 667.32 73.9817C666.823 73.6763 666.426 73.2391 666.129 72.6701C665.833 72.1011 665.685 71.2891 665.685 70.2343C665.685 70.04 665.723 69.6931 665.799 69.1934C665.876 68.6938 666.058 68.1872 666.345 67.6737C666.632 67.1601 667.072 66.7021 667.665 66.2996C668.258 65.8971 669.071 65.6959 670.104 65.6959C670.811 65.6959 671.457 65.8069 672.04 66.029C672.624 66.2511 673.126 66.605 673.547 67.0907C673.968 67.5765 674.293 68.1941 674.522 68.9436C674.752 69.6931 674.867 70.6091 674.867 71.6916Z"/>
</mask>
<path d="M588.241 85.9315V71.6916H600.494V70.8589H588.241V57.8681H601.268V57.0354H587.668V86.7642H601.383V85.9315H588.241ZM612.43 65.3628L607.351 75.0642L602.387 65.3628H601.641L607.007 75.6888L601.125 86.7642H601.813L607.351 76.3133L612.918 86.7642H613.635L607.724 75.6888L613.119 65.3628H612.43ZM615.357 94.0923V80.7685H615.414C615.758 82.7116 616.437 84.2729 617.451 85.4527C618.465 86.6324 619.756 87.2222 621.325 87.2222C622.339 87.2222 623.238 86.9238 624.022 86.327C624.806 85.7302 625.461 84.9183 625.988 83.8913C626.514 82.8642 626.915 81.6706 627.193 80.3105C627.47 78.9503 627.609 77.5208 627.609 76.0219C627.609 74.4119 627.465 72.9269 627.178 71.5667C626.891 70.2066 626.475 69.0269 625.93 68.0276C625.385 67.0283 624.725 66.2511 623.95 65.6959C623.176 65.1407 622.3 64.8632 621.325 64.8632C620.579 64.8632 619.885 65.0228 619.245 65.342C618.604 65.6612 618.035 66.1123 617.537 66.6952C617.04 67.2781 616.61 67.9651 616.246 68.7562C615.883 69.5473 615.605 70.4148 615.414 71.3585H615.357V65.3628H614.783V94.0923H615.357ZM621.325 86.4311C619.527 86.4311 618.083 85.5359 616.992 83.7455C615.902 81.9551 615.357 79.3806 615.357 76.0219C615.357 74.634 615.491 73.3155 615.758 72.0664C616.026 70.8172 616.414 69.7208 616.92 68.777C617.427 67.8333 618.054 67.0838 618.8 66.5286C619.546 65.9735 620.388 65.6959 621.325 65.6959C622.281 65.6959 623.118 65.9735 623.836 66.5286C624.553 67.0838 625.146 67.8402 625.615 68.7979C626.083 69.7555 626.437 70.8519 626.676 72.0872C626.915 73.3224 627.035 74.634 627.035 76.0219C627.035 77.271 626.925 78.5131 626.705 79.7484C626.485 80.9836 626.145 82.0939 625.686 83.0793C625.227 84.0648 624.639 84.8697 623.922 85.4943C623.204 86.1189 622.339 86.4311 621.325 86.4311ZM630.765 86.7642V74.6479C630.765 73.482 630.88 72.3439 631.109 71.2336C631.339 70.1233 631.693 69.1448 632.171 68.2982C632.649 67.4516 633.256 66.7854 633.993 66.2996C634.729 65.8139 635.605 65.6126 636.618 65.6959V64.8632C635.738 64.8354 634.969 64.9742 634.309 65.2795C633.649 65.5849 633.08 66.0012 632.601 66.5286C632.123 67.056 631.741 67.6737 631.454 68.3815C631.167 69.0893 630.956 69.8457 630.822 70.6507H630.765V65.3628H630.191V86.7642H630.765ZM637.336 76.2301H649.674C649.712 74.7589 649.612 73.3432 649.373 71.9831C649.133 70.6229 648.751 69.4155 648.225 68.3607C647.699 67.3059 647.02 66.4592 646.188 65.8208C645.356 65.1824 644.366 64.8632 643.218 64.8632C642.395 64.8632 641.592 65.113 640.808 65.6126C640.023 66.1123 639.335 66.8409 638.742 67.7986C638.149 68.7562 637.67 69.929 637.307 71.3169C636.944 72.7048 636.762 74.287 636.762 76.0635C636.762 77.6457 636.886 79.1238 637.135 80.4979C637.384 81.8719 637.766 83.0655 638.283 84.0786C638.799 85.0918 639.464 85.876 640.277 86.4311C641.09 86.9863 642.07 87.25 643.218 87.2222C644.901 87.2222 646.317 86.5352 647.464 85.1612C648.612 83.7872 649.291 81.8511 649.502 79.3528H648.928C648.679 81.7123 648.043 83.4818 647.02 84.6616C645.996 85.8413 644.71 86.4311 643.16 86.4311C642.108 86.4311 641.219 86.1674 640.492 85.64C639.765 85.1126 639.172 84.3909 638.713 83.4749C638.254 82.5589 637.914 81.4833 637.694 80.248C637.474 79.0128 637.355 77.6735 637.336 76.2301ZM649.1 75.3973H637.336C637.393 73.8984 637.584 72.5521 637.91 71.3585C638.235 70.1649 638.66 69.1448 639.186 68.2982C639.712 67.4516 640.325 66.8062 641.023 66.3621C641.721 65.918 642.472 65.6959 643.275 65.6959C644.232 65.6959 645.073 65.9527 645.8 66.4662C646.527 66.9797 647.134 67.6806 647.622 68.5689C648.11 69.4571 648.478 70.4911 648.727 71.6708C648.976 72.8505 649.1 74.0927 649.1 75.3973ZM661.582 71.6916H662.155C662.155 69.3044 661.677 67.5696 660.721 66.487C659.764 65.4044 658.464 64.8632 656.818 64.8632C655.9 64.8632 655.126 65.0297 654.494 65.3628C653.863 65.6959 653.347 66.1261 652.945 66.6535C652.543 67.181 652.256 67.7639 652.084 68.4023C651.912 69.0407 651.826 69.6514 651.826 70.2343C651.826 71.4002 651.969 72.3301 652.256 73.024C652.543 73.718 652.993 74.2592 653.605 74.6479C654.026 74.9254 654.504 75.1753 655.04 75.3973C655.575 75.6194 656.197 75.8553 656.905 76.1051C657.536 76.3272 658.158 76.5493 658.77 76.7713C659.382 76.9934 659.922 77.2918 660.391 77.6665C660.859 78.0413 661.242 78.5201 661.539 79.103C661.835 79.6859 661.983 80.4493 661.983 81.393C661.983 82.3091 661.835 83.0863 661.539 83.7247C661.242 84.3632 660.864 84.8836 660.405 85.2861C659.946 85.6886 659.434 85.9801 658.87 86.1605C658.306 86.3409 657.756 86.4311 657.22 86.4311C655.479 86.4311 654.145 85.869 653.217 84.7448C652.29 83.6206 651.826 81.8511 651.826 79.4361H651.252C651.252 82.1286 651.754 84.0994 652.758 85.3486C653.763 86.5977 655.25 87.2222 657.22 87.2222C657.851 87.2222 658.487 87.1181 659.128 86.91C659.769 86.7018 660.343 86.3617 660.85 85.8898C661.357 85.418 661.768 84.8073 662.084 84.0578C662.399 83.3083 662.557 82.3923 662.557 81.3098C662.557 80.2827 662.418 79.45 662.141 78.8116C661.864 78.1731 661.5 77.6457 661.051 77.2293C660.601 76.813 660.094 76.4868 659.53 76.2509C658.966 76.0149 658.397 75.7859 657.823 75.5639C657.019 75.2585 656.316 74.9948 655.714 74.7728C655.111 74.5507 654.552 74.287 654.035 73.9817C653.538 73.6763 653.141 73.2391 652.844 72.6701C652.548 72.1011 652.4 71.2891 652.4 70.2343C652.4 70.04 652.438 69.6931 652.514 69.1934C652.591 68.6938 652.773 68.1872 653.06 67.6737C653.347 67.1601 653.787 66.7021 654.38 66.2996C654.973 65.8971 655.786 65.6959 656.818 65.6959C657.526 65.6959 658.172 65.8069 658.755 66.029C659.339 66.2511 659.841 66.605 660.262 67.0907C660.683 67.5765 661.008 68.1941 661.237 68.9436C661.467 69.6931 661.582 70.6091 661.582 71.6916ZM674.867 71.6916H675.44C675.44 69.3044 674.962 67.5696 674.006 66.487C673.049 65.4044 671.749 64.8632 670.104 64.8632C669.185 64.8632 668.411 65.0297 667.779 65.3628C667.148 65.6959 666.632 66.1261 666.23 66.6535C665.828 67.181 665.541 67.7639 665.369 68.4023C665.197 69.0407 665.111 69.6514 665.111 70.2343C665.111 71.4002 665.254 72.3301 665.541 73.024C665.828 73.718 666.278 74.2592 666.89 74.6479C667.311 74.9254 667.789 75.1753 668.325 75.3973C668.86 75.6194 669.482 75.8553 670.19 76.1051C670.821 76.3272 671.443 76.5493 672.055 76.7713C672.667 76.9934 673.207 77.2918 673.676 77.6665C674.144 78.0413 674.527 78.5201 674.824 79.103C675.12 79.6859 675.268 80.4493 675.268 81.393C675.268 82.3091 675.12 83.0863 674.824 83.7247C674.527 84.3632 674.149 84.8836 673.69 85.2861C673.231 85.6886 672.719 85.9801 672.155 86.1605C671.591 86.3409 671.041 86.4311 670.505 86.4311C668.764 86.4311 667.43 85.869 666.502 84.7448C665.575 83.6206 665.111 81.8511 665.111 79.4361H664.537C664.537 82.1286 665.039 84.0994 666.043 85.3486C667.048 86.5977 668.535 87.2222 670.505 87.2222C671.136 87.2222 671.772 87.1181 672.413 86.91C673.054 86.7018 673.628 86.3617 674.135 85.8898C674.642 85.418 675.053 84.8073 675.369 84.0578C675.684 83.3083 675.842 82.3923 675.842 81.3098C675.842 80.2827 675.703 79.45 675.426 78.8116C675.149 78.1731 674.785 77.6457 674.336 77.2293C673.886 76.813 673.379 76.4868 672.815 76.2509C672.251 76.0149 671.682 75.7859 671.108 75.5639C670.304 75.2585 669.601 74.9948 668.999 74.7728C668.396 74.5507 667.837 74.287 667.32 73.9817C666.823 73.6763 666.426 73.2391 666.129 72.6701C665.833 72.1011 665.685 71.2891 665.685 70.2343C665.685 70.04 665.723 69.6931 665.799 69.1934C665.876 68.6938 666.058 68.1872 666.345 67.6737C666.632 67.1601 667.072 66.7021 667.665 66.2996C668.258 65.8971 669.071 65.6959 670.104 65.6959C670.811 65.6959 671.457 65.8069 672.04 66.029C672.624 66.2511 673.126 66.605 673.547 67.0907C673.968 67.5765 674.293 68.1941 674.522 68.9436C674.752 69.6931 674.867 70.6091 674.867 71.6916Z" fill="#222222" stroke="black" stroke-width="200" mask="url(#path-54-inside-1_22_155)"/>
<path d="M308.022 233.865C308.022 238.905 297.449 242.965 284.412 242.965C271.376 242.965 260.803 238.869 260.803 233.865C260.803 228.826 271.376 224.766 284.412 224.766C297.449 224.766 308.022 228.826 308.022 233.865Z" fill="#9EDCF2"/>
<path d="M308.022 233.865C308.022 238.905 297.449 242.965 284.412 242.965C271.376 242.965 260.803 238.869 260.803 233.865C260.803 228.826 271.376 224.766 284.412 224.766C297.449 224.766 308.022 228.826 308.022 233.865Z" fill="#7DBCE7"/>
<path d="M257.453 207.073L256.764 209.683C256.764 209.683 256.599 210.626 257.388 210.807C258.241 210.771 258.176 209.901 258.11 209.647L257.453 207.073Z" fill="#9EDCF2"/>
<path d="M326.05 196.088L326.115 195.761C319.187 194.239 312.094 194.202 307.792 194.42C308.482 191.628 308.712 188.365 308.712 184.776C308.712 179.592 306.939 175.459 304.115 172.341C304.607 170.564 305.264 166.612 303.458 161.573C303.458 161.573 300.24 160.449 292.917 165.851C290.06 165.053 287.007 164.655 283.953 164.655C280.603 164.655 277.221 165.126 274.036 166.069C266.483 160.376 263.167 161.537 263.167 161.537C261 167.519 262.346 171.978 262.74 173.066C260.179 176.111 258.635 179.99 258.635 184.74C258.635 188.329 258.997 191.556 259.916 194.347C255.581 194.166 248.751 194.239 242.053 195.725L242.118 196.051C248.817 194.565 255.713 194.529 260.014 194.71C260.211 195.29 260.441 195.87 260.671 196.414C256.402 196.559 249.145 197.175 242.184 199.351L242.282 199.677C249.31 197.502 256.632 196.922 260.868 196.777C263.43 201.997 268.421 205.405 277.352 206.457C276.072 207.399 274.791 208.995 274.266 211.714C272.525 212.62 267.074 214.868 263.791 208.632C263.791 208.632 261.952 204.934 258.438 204.644C258.438 204.644 255.023 204.571 258.208 207C258.208 207 260.474 208.197 262.05 212.656C262.05 212.656 264.119 220.27 274.003 217.804V225.599C274.003 225.599 273.806 228.391 271.475 229.297C271.475 229.297 270.095 230.349 271.573 230.929C271.573 230.929 277.976 231.509 277.976 225.708V217.152C277.976 217.152 277.714 213.744 279.224 212.584V226.651C279.224 226.651 279.126 230.022 277.549 231.291C277.549 231.291 276.499 233.358 278.797 232.814C278.797 232.814 283.197 232.125 283.394 226.433L283.493 212.185H284.544L284.642 226.433C284.839 232.089 289.239 232.814 289.239 232.814C291.538 233.394 290.487 231.291 290.487 231.291C288.911 230.022 288.813 226.651 288.813 226.651V212.693C290.323 213.998 290.06 217.152 290.06 217.152V225.708C290.06 231.509 296.464 230.929 296.464 230.929C297.941 230.349 296.562 229.297 296.562 229.297C294.264 228.355 294.034 225.599 294.034 225.599V214.36C294.034 209.973 292.359 207.653 290.717 206.457C300.24 205.405 304.804 202.034 306.906 196.74C311.076 196.849 318.596 197.429 325.754 199.677L325.853 199.351C318.727 197.139 311.273 196.559 307.037 196.414C307.234 195.87 307.398 195.326 307.563 194.746C311.963 194.565 319.088 194.565 326.05 196.088Z" fill="#010101"/>
<path d="M299.386 184.522C301.422 186.589 302.637 189.054 302.637 191.701C302.637 204.173 294.231 204.499 283.854 204.499C273.478 204.499 265.071 202.759 265.071 191.701C265.071 189.054 266.254 186.589 268.289 184.559C271.672 181.151 277.385 182.963 283.854 182.963C290.323 182.963 296.004 181.114 299.386 184.522Z" fill="#F5CCB3"/>
<path d="M277.615 192.353C277.615 195.798 275.875 198.553 273.708 198.553C271.54 198.553 269.8 195.761 269.8 192.353C269.8 188.909 271.54 186.154 273.708 186.154C275.875 186.118 277.615 188.909 277.615 192.353Z" fill="white"/>
<path d="M276.367 192.426C276.367 194.71 275.185 196.559 273.773 196.559C272.328 196.559 271.179 194.71 271.179 192.426C271.179 190.142 272.361 188.293 273.773 188.293C275.185 188.293 276.367 190.142 276.367 192.426Z" fill="#AF5C51"/>
<path d="M298.598 192.353C298.598 195.798 296.858 198.553 294.69 198.553C292.523 198.553 290.783 195.761 290.783 192.353C290.783 188.909 292.523 186.154 294.69 186.154C296.825 186.118 298.598 188.909 298.598 192.353Z" fill="white"/>
<path d="M297.317 192.426C297.317 194.71 296.135 196.559 294.723 196.559C293.278 196.559 292.129 194.71 292.129 192.426C292.129 190.142 293.311 188.293 294.723 188.293C296.168 188.293 297.317 190.142 297.317 192.426Z" fill="#AF5C51"/>
<path d="M284.905 197.864C284.905 198.444 284.478 198.952 283.92 198.952C283.394 198.952 282.935 198.48 282.935 197.864C282.935 197.248 283.362 196.776 283.92 196.776C284.445 196.776 284.905 197.248 284.905 197.864Z" fill="#AF5C51"/>
<path d="M281.654 200.583C281.588 200.402 281.687 200.221 281.851 200.148C282.015 200.076 282.179 200.185 282.245 200.366C282.508 201.163 283.165 201.671 283.92 201.671C284.675 201.671 285.332 201.127 285.595 200.366C285.66 200.185 285.824 200.076 285.989 200.148C286.153 200.221 286.251 200.402 286.186 200.583C285.857 201.635 284.938 202.36 283.92 202.36C282.902 202.36 281.982 201.635 281.654 200.583Z" fill="#AF5C51"/>
<path d="M259.949 205.514C259.949 205.804 259.653 206.022 259.259 206.022C258.898 206.022 258.57 205.804 258.57 205.514C258.57 205.224 258.865 205.006 259.259 205.006C259.653 205.006 259.949 205.224 259.949 205.514Z" fill="#C4E5D9"/>
<path d="M261.853 206.674C261.853 206.964 261.558 207.182 261.164 207.182C260.803 207.182 260.474 206.964 260.474 206.674C260.474 206.384 260.77 206.167 261.164 206.167C261.558 206.167 261.853 206.384 261.853 206.674Z" fill="#C4E5D9"/>
<path d="M263.003 208.197C263.003 208.487 262.707 208.704 262.313 208.704C261.952 208.704 261.624 208.487 261.624 208.197C261.624 207.907 261.919 207.689 262.313 207.689C262.707 207.653 263.003 207.907 263.003 208.197Z" fill="#C4E5D9"/>
<path d="M264.053 209.937C264.053 210.227 263.758 210.445 263.364 210.445C263.003 210.445 262.674 210.227 262.674 209.937C262.674 209.647 262.97 209.43 263.364 209.43C263.758 209.393 264.053 209.647 264.053 209.937Z" fill="#C4E5D9"/>
<path d="M265.203 211.532C265.203 211.822 264.907 212.04 264.513 212.04C264.152 212.04 263.824 211.822 263.824 211.532C263.824 211.242 264.119 211.025 264.513 211.025C264.907 211.025 265.203 211.242 265.203 211.532Z" fill="#C4E5D9"/>
<path d="M266.779 212.946C266.779 213.236 266.483 213.454 266.089 213.454C265.728 213.454 265.4 213.236 265.4 212.946C265.4 212.656 265.695 212.439 266.089 212.439C266.483 212.403 266.779 212.656 266.779 212.946Z" fill="#C4E5D9"/>
<path d="M268.979 213.853C268.979 214.143 268.683 214.36 268.289 214.36C267.928 214.36 267.6 214.143 267.6 213.853C267.6 213.563 267.895 213.345 268.289 213.345C268.683 213.345 268.979 213.563 268.979 213.853Z" fill="#C4E5D9"/>
<path d="M271.179 213.853C271.179 214.143 270.884 214.36 270.489 214.36C270.128 214.36 269.8 214.143 269.8 213.853C269.8 213.563 270.095 213.345 270.489 213.345C270.884 213.345 271.179 213.563 271.179 213.853Z" fill="#C4E5D9"/>
<path d="M273.412 213.454C273.412 213.744 273.116 213.961 272.722 213.961C272.361 213.961 272.033 213.744 272.033 213.454C272.033 213.164 272.328 212.946 272.722 212.946C273.084 212.946 273.412 213.164 273.412 213.454Z" fill="#C4E5D9"/>
<path d="M508.448 190.885C508.448 191.956 508.549 192.823 508.727 193.459C508.929 194.096 509.182 194.79 509.537 195.542C509.663 195.773 509.714 196.004 509.714 196.207C509.714 196.496 509.562 196.785 509.233 197.075L507.638 198.289C507.41 198.463 507.182 198.55 506.98 198.55C506.727 198.55 506.474 198.405 506.221 198.145C505.866 197.711 505.562 197.248 505.309 196.785C505.056 196.294 504.803 195.744 504.525 195.079C502.55 197.74 500.07 199.07 497.083 199.07C494.956 199.07 493.26 198.376 492.02 196.988C490.78 195.6 490.147 193.749 490.147 191.435C490.147 188.977 490.906 186.981 492.45 185.477C493.994 183.973 496.045 183.221 498.652 183.221C499.513 183.221 500.399 183.308 501.335 183.453C502.272 183.597 503.234 183.829 504.246 184.089V181.978C504.246 179.78 503.841 178.247 503.056 177.35C502.246 176.454 500.88 176.02 498.93 176.02C498.045 176.02 497.133 176.136 496.197 176.396C495.26 176.656 494.349 176.974 493.463 177.379C493.058 177.582 492.754 177.697 492.577 177.755C492.4 177.813 492.273 177.842 492.172 177.842C491.818 177.842 491.64 177.553 491.64 176.945V175.528C491.64 175.066 491.691 174.719 491.818 174.516C491.944 174.314 492.172 174.111 492.526 173.909C493.412 173.388 494.475 172.954 495.716 172.607C496.956 172.231 498.272 172.058 499.665 172.058C502.677 172.058 504.879 172.839 506.297 174.4C507.689 175.962 508.397 178.334 508.397 181.515V190.885H508.448ZM498.171 195.281C499.006 195.281 499.867 195.108 500.778 194.761C501.69 194.414 502.5 193.778 503.183 192.91C503.588 192.36 503.892 191.753 504.044 191.059C504.196 190.365 504.297 189.526 504.297 188.543V187.328C503.563 187.126 502.778 186.952 501.968 186.836C501.158 186.721 500.373 186.663 499.589 186.663C497.893 186.663 496.652 187.039 495.817 187.82C494.982 188.601 494.577 189.7 494.577 191.146C494.577 192.505 494.88 193.517 495.513 194.211C496.121 194.934 497.007 195.281 498.171 195.281ZM518.497 198.405C518.042 198.405 517.738 198.318 517.535 198.116C517.333 197.942 517.156 197.537 517.004 196.988L511.055 174.632C510.903 174.053 510.828 173.677 510.828 173.475C510.828 173.012 511.03 172.752 511.435 172.752H513.916C514.397 172.752 514.726 172.839 514.903 173.041C515.105 173.215 515.257 173.62 515.409 174.169L519.662 193.315L523.611 174.169C523.737 173.591 523.889 173.215 524.091 173.041C524.294 172.868 524.648 172.752 525.104 172.752H527.129C527.61 172.752 527.939 172.839 528.142 173.041C528.344 173.215 528.521 173.62 528.622 174.169L532.622 193.546L537.001 174.169C537.153 173.591 537.33 173.215 537.507 173.041C537.71 172.868 538.039 172.752 538.495 172.752H540.849C541.254 172.752 541.481 172.983 541.481 173.475C541.481 173.62 541.456 173.764 541.431 173.938C541.406 174.111 541.355 174.343 541.254 174.661L535.153 197.017C535.001 197.595 534.824 197.971 534.622 198.145C534.419 198.318 534.09 198.434 533.66 198.434H531.483C531.002 198.434 530.673 198.347 530.47 198.145C530.268 197.942 530.091 197.566 529.989 196.988L526.066 178.334L522.168 196.959C522.041 197.537 521.889 197.913 521.687 198.116C521.484 198.318 521.13 198.405 520.674 198.405H518.497ZM551.024 199.186C549.708 199.186 548.392 199.012 547.126 198.665C545.861 198.318 544.873 197.942 544.215 197.508C543.81 197.248 543.532 196.959 543.431 196.699C543.329 196.438 543.279 196.149 543.279 195.889V194.414C543.279 193.806 543.481 193.517 543.861 193.517C544.013 193.517 544.165 193.546 544.316 193.604C544.468 193.662 544.696 193.778 544.949 193.893C545.81 194.327 546.747 194.674 547.734 194.905C548.746 195.137 549.733 195.253 550.746 195.253C552.341 195.253 553.581 194.934 554.442 194.298C555.302 193.662 555.758 192.736 555.758 191.551C555.758 190.741 555.53 190.076 555.074 189.526C554.619 188.977 553.758 188.485 552.518 188.022L548.847 186.721C547 186.056 545.633 185.072 544.797 183.771C543.962 182.498 543.532 181.081 543.532 179.577C543.532 178.363 543.76 177.293 544.215 176.367C544.671 175.442 545.278 174.632 546.038 173.996C546.797 173.33 547.658 172.839 548.67 172.492C549.683 172.145 550.746 172 551.86 172C552.417 172 552.999 172.029 553.556 172.116C554.138 172.202 554.669 172.318 555.201 172.434C555.707 172.578 556.188 172.723 556.644 172.897C557.1 173.07 557.454 173.244 557.707 173.417C558.061 173.648 558.315 173.88 558.466 174.14C558.618 174.372 558.694 174.69 558.694 175.095V176.454C558.694 177.061 558.492 177.379 558.112 177.379C557.91 177.379 557.58 177.264 557.15 177.032C555.707 176.28 554.087 175.904 552.29 175.904C550.847 175.904 549.708 176.165 548.923 176.714C548.139 177.264 547.734 178.102 547.734 179.288C547.734 180.098 547.987 180.792 548.493 181.341C548.999 181.891 549.936 182.44 551.278 182.932L554.872 184.234C556.694 184.899 558.011 185.824 558.795 187.01C559.58 188.196 559.96 189.555 559.96 191.059C559.96 192.303 559.732 193.43 559.302 194.414C558.846 195.397 558.239 196.265 557.454 196.959C556.669 197.682 555.733 198.202 554.644 198.578C553.505 198.983 552.315 199.186 551.024 199.186Z" fill="#252F3E"/>
<path d="M555.809 213.241C547.481 220.269 535.381 224 524.977 224C510.397 224 497.26 217.84 487.337 207.602C486.552 206.792 487.261 205.693 488.198 206.329C498.93 213.444 512.169 217.753 525.863 217.753C535.103 217.753 545.253 215.555 554.594 211.043C555.986 210.32 557.175 212.085 555.809 213.241ZM559.276 208.73C558.213 207.168 552.239 207.978 549.531 208.354C548.721 208.469 548.594 207.66 549.328 207.052C554.087 203.235 561.909 204.334 562.82 205.606C563.732 206.908 562.567 215.844 558.112 220.125C557.429 220.79 556.77 220.443 557.074 219.575C558.087 216.712 560.34 210.263 559.276 208.73Z" fill="#FF9900"/>
<path d="M662.237 182.717C660.829 181.428 657.603 180.944 655.08 181.589C654.787 178.367 653.437 175.547 651.091 173.05L649.741 171.761L648.803 173.614C647.629 176.031 647.043 179.414 647.219 182.636C647.277 183.764 647.571 185.778 648.451 187.55C647.629 188.194 645.928 189 643.699 189H601.282L601.165 189.644C600.754 192.867 600.754 202.936 605.565 210.669C609.202 216.55 614.6 219.53 621.698 219.53C637.069 219.53 648.451 209.783 653.789 192.142C655.901 192.222 660.419 192.142 662.707 186.1C662.765 185.939 662.883 185.617 663.293 184.408L663.528 183.764L662.237 182.717ZM635.192 160H628.738V168.056H635.192V160ZM635.192 169.667H628.738V177.722H635.192V169.667ZM627.565 169.667H621.112V177.722H627.565V169.667ZM619.938 169.667H613.485V177.722H619.938V169.667ZM612.312 179.333H605.858V187.389H612.312V179.333ZM619.938 179.333H613.485V187.389H619.938V179.333ZM627.565 179.333H621.112V187.389H627.565V179.333ZM635.192 179.333H628.738V187.389H635.192V179.333ZM642.819 179.333H636.365V187.389H642.819V179.333Z" fill="#2396ED"/>
<defs>
<linearGradient id="paint0_linear_22_155" x1="526.982" y1="62.6619" x2="511.636" y2="77.9747" gradientUnits="userSpaceOnUse">
<stop stop-color="#41873F"/>
<stop offset="0.3288" stop-color="#418B3D"/>
<stop offset="0.6352" stop-color="#419637"/>
<stop offset="0.9319" stop-color="#3FA92D"/>
<stop offset="1" stop-color="#3FAE2A"/>
</linearGradient>
<linearGradient id="paint1_linear_22_155" x1="522.476" y1="74.9051" x2="548.067" y2="66.0756" gradientUnits="userSpaceOnUse">
<stop offset="0.1376" stop-color="#41873F"/>
<stop offset="0.4032" stop-color="#54A044"/>
<stop offset="0.7136" stop-color="#66B848"/>
<stop offset="0.9081" stop-color="#6CC04A"/>
</linearGradient>
<linearGradient id="paint2_linear_22_155" x1="514.385" y1="73.1869" x2="533.023" y2="73.1869" gradientUnits="userSpaceOnUse">
<stop offset="0.0919165" stop-color="#6CC04A"/>
<stop offset="0.2864" stop-color="#66B848"/>
<stop offset="0.5968" stop-color="#54A044"/>
<stop offset="0.8624" stop-color="#41873F"/>
</linearGradient>
<linearGradient id="paint3_linear_22_155" x1="514.385" y1="85.3519" x2="533.023" y2="85.3519" gradientUnits="userSpaceOnUse">
<stop offset="0.0919165" stop-color="#6CC04A"/>
<stop offset="0.2864" stop-color="#66B848"/>
<stop offset="0.5968" stop-color="#54A044"/>
<stop offset="0.8624" stop-color="#41873F"/>
</linearGradient>
<linearGradient id="paint4_linear_22_155" x1="535.738" y1="61.9682" x2="524.61" y2="99.002" gradientUnits="userSpaceOnUse">
<stop stop-color="#41873F"/>
<stop offset="0.3288" stop-color="#418B3D"/>
<stop offset="0.6352" stop-color="#419637"/>
<stop offset="0.9319" stop-color="#3FA92D"/>
<stop offset="1" stop-color="#3FAE2A"/>
</linearGradient>
<clipPath id="clip0_22_155">
<rect width="70.1204" height="85.4703" fill="white" transform="translate(232.41 24.5272)"/>
</clipPath>
<clipPath id="clip1_22_155">
<rect width="63.5466" height="111.178" fill="white" transform="translate(74.6238 0.219482)"/>
</clipPath>
<clipPath id="clip2_22_155">
<rect width="85.7322" height="67.0247" fill="white" transform="translate(406.678 36.7347)"/>
</clipPath>
<clipPath id="clip3_22_155">
<rect width="84.7551" height="81.8475" fill="white" transform="translate(492.41 38.3458)"/>
</clipPath>
<clipPath id="clip4_22_155">
<rect width="78.7166" height="85.3006" fill="white" transform="translate(144.069 21.7225)"/>
</clipPath>
<clipPath id="clip5_22_155">
<rect width="70.1202" height="64.1027" fill="white" transform="translate(319.724 164.017)"/>
</clipPath>
</defs>
</svg>
