<svg width="2870" height="931" viewBox="0 0 2870 931" fill="none" xmlns="http://www.w3.org/2000/svg">
<g clip-path="url(#clip0)">
<path d="M1186.77 167.617C1183.79 166.67 1180.71 165.773 1177.53 164.926C1178.05 162.957 1178.53 161.013 1178.96 159.102C1185.95 127.728 1181.38 102.452 1165.76 94.1308C1150.78 86.1513 1126.29 94.4712 1101.55 114.361C1099.18 116.274 1096.79 118.299 1094.41 120.421C1092.82 119.017 1091.23 117.66 1089.65 116.362C1063.72 95.0944 1037.74 86.132 1022.14 94.4778C1007.17 102.48 1002.74 126.242 1009.04 155.975C1009.65 158.847 1010.36 161.78 1011.16 164.762C1007.48 165.727 1003.93 166.755 1000.54 167.849C970.143 177.639 950.732 192.984 950.732 208.899C950.732 225.338 971.569 241.825 1003.23 251.823C1005.73 252.611 1008.32 253.357 1010.99 254.066C1010.12 257.291 1009.37 260.451 1008.73 263.534C1002.73 292.751 1007.42 315.951 1022.34 323.903C1037.76 332.116 1063.62 323.674 1088.81 303.331C1090.8 301.723 1092.8 300.018 1094.8 298.23C1097.4 300.539 1099.99 302.723 1102.56 304.772C1126.96 324.171 1151.06 332.004 1165.97 324.029C1181.37 315.794 1186.37 290.871 1179.87 260.549C1179.38 258.234 1178.8 255.868 1178.15 253.46C1179.97 252.964 1181.75 252.451 1183.49 251.919C1216.4 241.844 1237.82 225.557 1237.82 208.899C1237.82 192.926 1217.78 177.478 1186.77 167.617ZM1179.63 241.163C1178.06 241.643 1176.45 242.108 1174.81 242.558C1171.18 231.93 1166.27 220.63 1160.27 208.955C1166 197.558 1170.71 186.402 1174.25 175.843C1177.18 176.629 1180.03 177.457 1182.78 178.331C1209.35 186.78 1225.55 199.273 1225.55 208.899C1225.55 219.153 1208.05 232.464 1179.63 241.163ZM1167.84 262.75C1170.72 276.158 1171.13 288.28 1169.22 297.757C1167.51 306.272 1164.07 311.95 1159.82 314.223C1150.78 319.062 1131.43 312.772 1110.56 296.183C1108.17 294.281 1105.76 292.25 1103.34 290.101C1111.43 281.927 1119.52 272.425 1127.41 261.871C1141.29 260.734 1154.4 258.873 1166.29 256.334C1166.87 258.516 1167.39 260.657 1167.84 262.75ZM1048.6 313.387C1039.77 316.271 1032.73 316.354 1028.47 314.087C1019.41 309.261 1015.65 290.634 1020.78 265.647C1021.37 262.785 1022.07 259.846 1022.88 256.841C1034.64 259.244 1047.66 260.973 1061.57 262.015C1069.51 272.342 1077.83 281.834 1086.21 290.145C1084.38 291.779 1082.56 293.334 1080.74 294.799C1069.6 303.795 1058.44 310.177 1048.6 313.387ZM1007.19 241.101C993.195 236.68 981.635 230.935 973.71 224.665C966.59 219.031 962.995 213.438 962.995 208.899C962.995 199.241 978.58 186.922 1004.57 178.549C1007.73 177.533 1011.03 176.575 1014.46 175.676C1018.05 186.472 1022.76 197.761 1028.45 209.175C1022.69 220.759 1017.91 232.227 1014.28 243.151C1011.84 242.502 1009.47 241.819 1007.19 241.101ZM1021.07 153.799C1015.68 128.324 1019.26 109.107 1028.28 104.284C1037.88 99.1471 1059.12 106.472 1081.51 124.835C1082.94 126.009 1084.37 127.237 1085.81 128.508C1077.47 136.783 1069.23 146.204 1061.36 156.47C1047.86 157.626 1034.93 159.484 1023.05 161.971C1022.3 159.194 1021.64 156.466 1021.07 153.799ZM1144.91 182.051C1142.07 177.518 1139.15 173.091 1136.18 168.786C1145.34 169.856 1154.12 171.276 1162.36 173.014C1159.88 180.34 1156.8 188.001 1153.17 195.854C1150.56 191.286 1147.81 186.68 1144.91 182.051ZM1094.41 136.606C1100.07 142.268 1105.73 148.59 1111.3 155.449C1105.69 155.204 1100 155.077 1094.27 155.077C1088.6 155.077 1082.95 155.202 1077.37 155.442C1082.95 148.647 1088.67 142.334 1094.41 136.606ZM1043.59 182.129C1040.75 186.675 1038.05 191.256 1035.48 195.845C1031.91 188.02 1028.86 180.324 1026.36 172.894C1034.55 171.201 1043.29 169.816 1052.39 168.766C1049.37 173.111 1046.43 177.57 1043.59 182.128V182.129ZM1052.65 249.841C1043.25 248.872 1034.38 247.558 1026.19 245.912C1028.73 238.349 1031.85 230.489 1035.5 222.495C1038.07 227.081 1040.78 231.663 1043.64 236.219H1043.64C1046.54 240.861 1049.56 245.407 1052.65 249.841ZM1094.75 281.992C1088.94 276.197 1083.14 269.788 1077.48 262.893C1082.97 263.092 1088.58 263.194 1094.27 263.194C1100.12 263.194 1105.91 263.072 1111.6 262.838C1106.01 269.857 1100.37 276.276 1094.75 281.992ZM1153.29 222.087C1157.12 230.168 1160.36 237.986 1162.93 245.421C1154.6 247.175 1145.62 248.588 1136.15 249.638C1139.13 245.275 1142.07 240.772 1144.96 236.141C1147.88 231.456 1150.66 226.763 1153.29 222.087ZM1134.34 230.48C1129.85 237.67 1125.24 244.532 1120.56 251.011C1112.04 251.573 1103.24 251.863 1094.27 251.863C1085.34 251.863 1076.65 251.607 1068.28 251.105C1063.42 244.542 1058.71 237.659 1054.25 230.542H1054.25C1049.8 223.445 1045.71 216.288 1042 209.171C1045.71 202.038 1049.79 194.873 1054.21 187.789L1054.21 187.79C1058.65 180.687 1063.31 173.837 1068.13 167.315C1076.67 166.719 1085.42 166.408 1094.27 166.408H1094.27C1103.16 166.408 1111.93 166.721 1120.46 167.323C1125.21 173.797 1129.84 180.625 1134.3 187.729C1138.8 194.913 1142.93 202.03 1146.67 209.01C1142.94 216.111 1138.82 223.3 1134.34 230.48ZM1159.63 103.947C1169.25 109.069 1172.99 129.727 1166.95 156.815C1166.56 158.544 1166.13 160.304 1165.66 162.088C1153.75 159.549 1140.81 157.66 1127.27 156.486C1119.38 146.107 1111.21 136.672 1103 128.503C1105.21 126.542 1107.41 124.673 1109.61 122.908C1130.8 105.867 1150.61 99.1386 1159.63 103.947ZM1094.27 185.214C1108.43 185.214 1119.91 195.818 1119.91 208.899C1119.91 221.98 1108.43 232.585 1094.27 232.585C1080.12 232.585 1068.64 221.98 1068.64 208.899C1068.64 195.818 1080.12 185.214 1094.27 185.214Z" fill="#00D8FF"/>
</g>
<g clip-path="url(#clip1)">
<path d="M435.449 344.834L329.57 317.193L305.975 68.3171H565.239L541.62 317.154L435.449 344.834Z" fill="#264DE4"/>
<path d="M521.397 301.309L541.582 88.6663H435.606V323.676L521.397 301.309Z" fill="#2965F1"/>
<path d="M360.064 180.971L362.973 211.494H435.606V180.971H360.064Z" fill="#EBEBEB"/>
<path d="M354.219 119.19L357.169 149.714H435.606V119.19H354.219Z" fill="#EBEBEB"/>
<path d="M435.606 260.244L435.463 260.279L399.316 251.1L397.005 226.756H364.423L368.97 274.683L435.456 292.04L435.606 292.001V260.244Z" fill="#EBEBEB"/>
<path d="M366.99 0.68335H406.301V16.1433H383.429V31.6032H406.301V47.0631H366.99V0.68335Z" fill="black"/>
<path d="M414.163 0.68335H453.474V14.1267H430.602V16.8154H453.474V47.7352H414.163V33.6197H437.035V30.931H414.163V0.68335Z" fill="black"/>
<path d="M461.337 0.68335H500.648V14.1267H477.776V16.8154H500.648V47.7352H461.337V33.6197H484.209V30.931H461.337V0.68335Z" fill="black"/>
<path d="M510.94 180.971L516.799 119.19H435.494V149.714H481.229L478.276 180.971H435.494V211.494H475.461L471.694 251.081L435.494 260.269V292.025L502.033 274.683L502.521 269.526L510.148 189.167L510.94 180.971Z" fill="white"/>
</g>
<g clip-path="url(#clip2)">
<path d="M1747.72 167.576H1813.85V172.741H1753.78V211.612H1810.27V216.777H1753.78V259.453H1814.54V264.618H1747.72V167.576ZM1819.78 167.576H1826.8L1857.94 210.253L1889.76 167.576L1933.05 113.367L1861.93 214.738L1898.58 264.618H1891.28L1857.94 219.223L1824.46 264.618H1817.3L1854.22 214.738L1819.78 167.576ZM1901.2 172.741V167.576H1976.56V172.741H1941.84V264.618H1935.78V172.741H1901.2ZM1664.99 167.576H1672.56L1777.05 321.213L1733.87 264.618L1671.32 174.916L1671.05 264.618H1664.99V167.576ZM1975.95 257.895C1974.71 257.895 1973.78 256.952 1973.78 255.733C1973.78 254.515 1974.71 253.572 1975.95 253.572C1977.21 253.572 1978.12 254.515 1978.12 255.733C1978.12 256.952 1977.21 257.895 1975.95 257.895ZM1981.91 252.208H1985.15C1985.2 253.934 1986.48 255.095 1988.37 255.095C1990.48 255.095 1991.67 253.847 1991.67 251.512V236.715H1994.97V251.526C1994.97 255.733 1992.5 258.156 1988.4 258.156C1984.55 258.156 1981.91 255.806 1981.91 252.208ZM1999.29 252.019H2002.57C2002.85 254.007 2004.82 255.269 2007.67 255.269C2010.32 255.269 2012.27 253.92 2012.27 252.063C2012.27 250.467 2011.03 249.51 2008.21 248.857L2005.47 248.204C2001.62 247.319 1999.87 245.492 1999.87 242.416C1999.87 238.688 2002.96 236.208 2007.61 236.208C2011.93 236.208 2015.08 238.688 2015.28 242.213H2012.06C2011.75 240.284 2010.04 239.08 2007.56 239.08C2004.95 239.08 2003.21 240.313 2003.21 242.199C2003.21 243.693 2004.33 244.549 2007.11 245.187L2009.45 245.753C2013.82 246.754 2015.61 248.494 2015.61 251.642C2015.61 255.646 2012.46 258.156 2007.42 258.156C2002.7 258.156 1999.53 255.762 1999.29 252.019Z" fill="black"/>
</g>
<g clip-path="url(#clip3)">
<path d="M2292.51 344.232C2291.17 344.232 2289.91 343.857 2288.74 343.202L2276.8 335.806C2275 334.777 2275.9 334.402 2276.44 334.215C2278.86 333.372 2279.31 333.185 2281.83 331.687C2282.1 331.5 2282.46 331.594 2282.73 331.781L2291.89 337.492C2292.25 337.679 2292.69 337.679 2292.96 337.492L2328.8 315.866C2329.16 315.679 2329.34 315.304 2329.34 314.836V271.678C2329.34 271.21 2329.16 270.836 2328.8 270.649L2292.96 249.117C2292.6 248.929 2292.16 248.929 2291.89 249.117L2256.05 270.649C2255.69 270.836 2255.51 271.304 2255.51 271.678V314.836C2255.51 315.211 2255.69 315.679 2256.05 315.866L2265.84 321.764C2271.14 324.572 2274.46 321.296 2274.46 318.019V275.423C2274.46 274.861 2274.91 274.3 2275.54 274.3H2280.12C2280.66 274.3 2281.2 274.768 2281.2 275.423V318.019C2281.2 325.415 2277.34 329.721 2270.6 329.721C2268.54 329.721 2266.92 329.721 2262.34 327.381L2252.91 321.764C2250.57 320.36 2249.14 317.738 2249.14 314.93V271.772C2249.14 268.964 2250.57 266.342 2252.91 264.938L2288.74 243.312C2290.99 242.002 2294.04 242.002 2296.29 243.312L2332.12 264.938C2334.45 266.342 2335.89 268.964 2335.89 271.772V314.93C2335.89 317.738 2334.45 320.36 2332.12 321.764L2296.29 343.389C2295.12 343.951 2293.77 344.232 2292.51 344.232ZM2303.56 314.555C2287.84 314.555 2284.61 307.066 2284.61 300.7C2284.61 300.138 2285.06 299.576 2285.69 299.576H2290.36C2290.9 299.576 2291.35 299.951 2291.35 300.513C2292.07 305.474 2294.13 307.908 2303.65 307.908C2311.19 307.908 2314.43 306.13 2314.43 301.917C2314.43 299.483 2313.53 297.704 2301.76 296.487C2291.98 295.457 2285.87 293.21 2285.87 285.066C2285.87 277.483 2291.98 272.989 2302.21 272.989C2313.71 272.989 2319.37 277.108 2320.09 286.096C2320.09 286.376 2320 286.657 2319.82 286.938C2319.64 287.125 2319.37 287.313 2319.1 287.313H2314.43C2313.98 287.313 2313.53 286.938 2313.44 286.47C2312.36 281.321 2309.58 279.636 2302.21 279.636C2293.95 279.636 2292.96 282.632 2292.96 284.878C2292.96 287.593 2294.13 288.436 2305.27 289.934C2316.31 291.432 2321.52 293.585 2321.52 301.636C2321.43 309.874 2314.97 314.555 2303.56 314.555Z" fill="#539E43"/>
<path d="M2181.33 175.44C2181.33 173.755 2180.43 172.163 2179 171.32L2140.92 148.478C2140.29 148.103 2139.57 147.916 2138.85 147.823H2138.49C2137.78 147.823 2137.06 148.103 2136.43 148.478L2098.35 171.32C2096.91 172.163 2096.01 173.755 2096.01 175.44L2096.1 236.853C2096.1 237.695 2096.55 238.538 2097.27 238.912C2097.99 239.38 2098.89 239.38 2099.52 238.912L2122.15 225.431C2123.59 224.589 2124.48 222.997 2124.48 221.312V192.572C2124.48 190.887 2125.38 189.295 2126.82 188.452L2136.43 182.648C2137.15 182.18 2137.95 181.993 2138.76 181.993C2139.57 181.993 2140.38 182.18 2141.01 182.648L2150.62 188.452C2152.05 189.295 2152.95 190.887 2152.95 192.572V221.312C2152.95 222.997 2153.85 224.589 2155.29 225.431L2177.92 238.912C2178.64 239.38 2179.54 239.38 2180.25 238.912C2180.97 238.538 2181.42 237.695 2181.42 236.853L2181.33 175.44Z" fill="#333333"/>
<path d="M2364.36 90.9031C2363.64 90.5286 2362.74 90.5286 2362.12 90.9031C2361.4 91.3712 2360.95 92.1201 2360.95 92.9627V153.814C2360.95 154.376 2360.68 154.937 2360.14 155.312C2359.6 155.593 2359.06 155.593 2358.52 155.312L2349 149.601C2347.57 148.759 2345.86 148.759 2344.42 149.601L2306.34 172.538C2304.91 173.38 2304.01 174.972 2304.01 176.657V222.436C2304.01 224.121 2304.91 225.712 2306.34 226.555L2344.42 249.491C2345.86 250.334 2347.57 250.334 2349 249.491L2387.08 226.555C2388.52 225.712 2389.42 224.121 2389.42 222.436V108.316C2389.42 106.537 2388.52 104.946 2387.08 104.103L2364.36 90.9031ZM2360.86 207.363C2360.86 207.831 2360.68 208.206 2360.32 208.393L2347.3 216.257C2346.94 216.444 2346.49 216.444 2346.13 216.257L2333.11 208.393C2332.75 208.206 2332.57 207.738 2332.57 207.363V191.635C2332.57 191.167 2332.75 190.793 2333.11 190.606L2346.13 182.742C2346.49 182.555 2346.94 182.555 2347.3 182.742L2360.32 190.606C2360.68 190.793 2360.86 191.261 2360.86 191.635V207.363Z" fill="#333333"/>
<path d="M2491.08 191.261C2492.52 190.418 2493.32 188.827 2493.32 187.142V176.001C2493.32 174.316 2492.43 172.725 2491.08 171.882L2453.27 149.04C2451.83 148.197 2450.13 148.197 2448.69 149.04L2410.61 171.976C2409.17 172.818 2408.28 174.41 2408.28 176.095V221.874C2408.28 223.559 2409.17 225.151 2410.61 225.993L2448.42 248.461C2449.86 249.304 2451.56 249.304 2452.91 248.461L2475.81 235.168C2476.53 234.793 2476.98 233.951 2476.98 233.108C2476.98 232.265 2476.53 231.423 2475.81 231.048L2437.55 208.112C2436.84 207.644 2436.39 206.895 2436.39 206.053V191.729C2436.39 190.887 2436.84 190.044 2437.55 189.67L2449.5 182.555C2450.22 182.086 2451.11 182.086 2451.83 182.555L2463.78 189.67C2464.5 190.138 2464.95 190.887 2464.95 191.729V202.963C2464.95 203.806 2465.39 204.648 2466.11 205.023C2466.83 205.491 2467.73 205.491 2468.45 205.023L2491.08 191.261Z" fill="#333333"/>
<path d="M2450.4 189.108C2450.67 188.921 2451.02 188.921 2451.29 189.108L2458.57 193.508C2458.84 193.695 2459.02 193.976 2459.02 194.35V203.15C2459.02 203.525 2458.84 203.806 2458.57 203.993L2451.29 208.393C2451.02 208.58 2450.67 208.58 2450.4 208.393L2443.12 203.993C2442.85 203.806 2442.67 203.525 2442.67 203.15V194.35C2442.67 193.976 2442.85 193.695 2443.12 193.508L2450.4 189.108Z" fill="#539E43"/>
<mask id="mask0" mask-type="alpha" maskUnits="userSpaceOnUse" x="2200" y="148" width="86" height="102">
<path d="M2245.01 149.227C2243.57 148.384 2241.86 148.384 2240.43 149.227L2202.62 171.976C2201.18 172.818 2200.37 174.41 2200.37 176.095V221.687C2200.37 223.372 2201.27 224.963 2202.62 225.806L2240.43 248.555C2241.86 249.397 2243.57 249.397 2245.01 248.555L2282.82 225.806C2284.25 224.963 2285.06 223.372 2285.06 221.687V176.095C2285.06 174.41 2284.16 172.818 2282.82 171.976L2245.01 149.227Z" fill="white"/>
</mask>
<g mask="url(#mask0)">
<path d="M2245.01 149.227C2243.57 148.384 2241.86 148.384 2240.43 149.227L2202.62 171.976C2201.18 172.818 2200.37 174.41 2200.37 176.095V221.687C2200.37 223.372 2201.27 224.963 2202.62 225.806L2240.43 248.555C2241.86 249.397 2243.57 249.397 2245.01 248.555L2282.82 225.806C2284.25 224.963 2285.06 223.372 2285.06 221.687V176.095C2285.06 174.41 2284.16 172.818 2282.82 171.976L2245.01 149.227Z" fill="url(#paint0_linear)"/>
<path d="M2282.91 171.977L2244.92 149.228C2244.56 149.04 2244.11 148.853 2243.75 148.76L2201.18 224.777C2201.54 225.245 2201.99 225.62 2202.44 225.9L2240.43 248.649C2241.5 249.305 2242.76 249.492 2243.93 249.118L2283.89 172.913C2283.62 172.538 2283.26 172.258 2282.91 171.977Z" fill="url(#paint1_linear)"/>
<path fill-rule="evenodd" clip-rule="evenodd" d="M2282.99 225.806C2284.07 225.151 2284.88 224.027 2285.24 222.81L2243.57 148.665C2242.49 148.478 2241.32 148.571 2240.34 149.227L2202.62 171.882L2243.3 249.21C2243.84 249.117 2244.47 248.929 2245.01 248.649L2282.99 225.806Z" fill="url(#paint2_linear)"/>
<path fill-rule="evenodd" clip-rule="evenodd" d="M2282.99 225.806L2245.1 248.555C2244.56 248.836 2244.02 249.023 2243.39 249.117L2244.11 250.521L2286.14 225.151V224.589L2285.06 222.716C2284.88 224.027 2284.07 225.151 2282.99 225.806Z" fill="url(#paint3_linear)"/>
<path fill-rule="evenodd" clip-rule="evenodd" d="M2282.99 225.806L2245.1 248.555C2244.56 248.836 2244.02 249.023 2243.39 249.117L2244.11 250.521L2286.14 225.151V224.589L2285.06 222.716C2284.88 224.027 2284.07 225.151 2282.99 225.806Z" fill="url(#paint4_linear)"/>
</g>
</g>
<path d="M1168.59 641.855C1167.28 637.812 1163.84 634.996 1159.4 634.319C1157.31 634.001 1154.91 634.137 1152.07 634.733C1147.13 635.772 1143.46 636.168 1140.78 636.245C1150.89 618.862 1159.11 599.038 1163.84 580.378C1171.49 550.206 1167.4 536.461 1162.62 530.243C1149.98 513.787 1131.53 504.946 1109.28 504.675C1097.41 504.528 1086.98 506.915 1081.55 508.632C1076.49 507.723 1071.04 507.215 1065.33 507.121C1054.63 506.947 1045.17 509.324 1037.09 514.209C1032.61 512.668 1025.43 510.496 1017.14 509.109C997.631 505.847 981.91 508.389 970.412 516.663C956.488 526.682 950.033 544.088 951.227 568.399C951.606 576.118 955.845 599.602 962.519 621.875C966.355 634.676 970.445 645.307 974.676 653.474C980.677 665.055 987.097 671.876 994.305 674.325C998.345 675.696 1005.69 676.656 1013.41 670.107C1014.38 671.314 1015.69 672.514 1017.42 673.627C1019.62 675.041 1022.31 676.196 1025 676.881C1034.68 679.347 1043.76 678.73 1051.49 675.274C1051.54 676.675 1051.58 678.015 1051.61 679.172C1051.66 681.048 1051.71 682.887 1051.78 684.608C1052.24 696.241 1053.02 705.286 1055.32 711.614C1055.44 711.963 1055.61 712.493 1055.79 713.055C1056.94 716.638 1058.86 722.634 1063.75 727.33C1068.81 732.195 1074.93 733.687 1080.53 733.686C1083.34 733.686 1086.03 733.311 1088.38 732.797C1096.76 730.967 1106.29 728.178 1113.18 718.186C1119.69 708.74 1122.86 694.513 1123.43 672.094C1123.5 671.461 1123.57 670.856 1123.64 670.279C1123.68 669.889 1123.73 669.491 1123.77 669.094L1125.31 669.232L1125.7 669.259C1134.25 669.655 1144.69 667.81 1151.1 664.776C1156.17 662.38 1172.41 653.647 1168.59 641.855Z" fill="black"/>
<path d="M1153.98 644.149C1128.59 649.484 1126.84 640.726 1126.84 640.726C1153.66 600.199 1164.86 548.757 1155.19 536.166C1128.8 501.822 1083.12 518.065 1082.36 518.487L1082.12 518.531C1077.1 517.47 1071.48 516.838 1065.17 516.733C1053.68 516.542 1044.96 519.802 1038.35 524.911C1038.35 524.911 956.862 490.716 960.652 567.918C961.458 584.342 983.762 692.189 1010.37 659.614C1020.09 647.703 1029.48 637.631 1029.48 637.631C1034.15 640.789 1039.74 642.399 1045.59 641.821L1046.05 641.427C1045.91 642.906 1045.97 644.353 1046.23 646.065C1039.38 653.865 1041.39 655.234 1027.69 658.107C1013.83 661.017 1021.97 666.198 1027.29 667.552C1033.73 669.194 1048.65 671.52 1058.72 657.152L1058.32 658.791C1061.01 660.982 1062.89 673.042 1062.58 683.974C1062.26 694.906 1062.05 702.411 1064.17 708.274C1066.28 714.136 1068.39 727.327 1086.4 723.396C1101.45 720.111 1109.25 711.598 1110.33 697.398C1111.1 687.303 1112.84 688.795 1112.95 679.77L1114.35 675.497C1115.96 661.812 1114.61 657.397 1123.88 659.451L1126.13 659.652C1132.96 659.968 1141.89 658.534 1147.13 656.052C1158.42 650.717 1165.11 641.808 1153.98 644.149H1153.98Z" fill="#336791"/>
<path d="M1043.12 575.263C1040.83 574.938 1038.76 575.238 1037.71 576.047C1037.12 576.502 1036.94 577.029 1036.89 577.392C1036.76 578.353 1037.42 579.416 1037.83 579.964C1038.97 581.515 1040.65 582.582 1042.32 582.817C1042.56 582.851 1042.8 582.867 1043.03 582.867C1045.81 582.867 1048.32 580.669 1048.55 579.047C1048.82 577.015 1045.93 575.661 1043.12 575.263Z" fill="white"/>
<path d="M1118.93 575.327H1118.93C1118.72 573.734 1115.93 573.28 1113.29 573.654C1110.66 574.028 1108.1 575.241 1108.31 576.837C1108.48 578.078 1110.68 580.197 1113.29 580.197C1113.51 580.197 1113.73 580.182 1113.95 580.15C1115.69 579.905 1116.97 578.78 1117.57 578.132C1118.5 577.144 1119.03 576.043 1118.93 575.327Z" fill="white"/>
<path d="M1162.43 643.542C1161.47 640.56 1158.35 639.6 1153.17 640.689C1137.8 643.921 1132.29 641.682 1130.48 640.326C1142.43 621.781 1152.26 599.366 1157.57 578.451C1160.08 568.544 1161.47 559.344 1161.58 551.845C1161.71 543.613 1160.33 537.565 1157.49 533.87C1146.05 518.974 1129.25 510.984 1108.92 510.765C1094.94 510.605 1083.13 514.249 1080.84 515.273C1076.02 514.052 1070.77 513.302 1065.04 513.206C1054.55 513.033 1045.48 515.592 1037.97 520.808C1034.71 519.572 1026.28 516.624 1015.97 514.933C998.148 512.009 983.985 514.224 973.878 521.518C961.818 530.221 956.25 545.778 957.329 567.756C957.692 575.15 961.828 597.897 968.356 619.682C976.948 648.354 986.287 664.585 996.114 667.924C997.265 668.315 998.591 668.588 1000.05 668.588C1003.64 668.588 1008.03 666.942 1012.61 661.343C1020.2 652.035 1027.29 644.235 1029.91 641.401C1033.77 643.514 1038.01 644.693 1042.35 644.811C1042.36 644.927 1042.37 645.042 1042.38 645.158C1041.51 646.21 1040.8 647.132 1040.19 647.919C1037.18 651.808 1036.56 652.617 1026.88 654.648C1024.12 655.227 1016.81 656.762 1016.7 661.984C1016.58 667.69 1025.35 670.086 1026.34 670.34C1029.82 671.227 1033.17 671.665 1036.37 671.665C1044.14 671.665 1050.98 669.062 1056.45 664.027C1056.28 684.368 1057.12 704.412 1059.51 710.52C1061.48 715.519 1066.27 727.737 1081.43 727.736C1083.65 727.736 1086.1 727.473 1088.79 726.885C1104.61 723.431 1111.47 716.311 1114.13 700.614C1115.55 692.225 1117.99 672.192 1119.14 661.447C1121.56 662.216 1124.68 662.568 1128.05 662.568C1135.08 662.568 1143.19 661.047 1148.28 658.642C1153.99 655.939 1164.3 649.305 1162.43 643.542ZM1124.77 570.931C1124.72 574.103 1124.29 576.983 1123.84 579.989C1123.35 583.222 1122.84 586.565 1122.71 590.623C1122.59 594.572 1123.07 598.677 1123.54 602.647C1124.49 610.667 1125.46 618.923 1121.7 627.069C1121.12 626.013 1120.55 624.86 1120.03 623.583C1119.57 622.429 1118.55 620.577 1117.15 618.012C1111.68 608.03 1098.89 584.656 1105.44 575.118C1107.39 572.278 1112.34 569.36 1124.77 570.931ZM1109.71 517.189C1127.92 517.598 1142.33 524.54 1152.54 537.82C1160.36 548.006 1151.74 594.356 1126.8 634.341C1126.55 634.022 1126.3 633.7 1126.04 633.37C1125.94 633.238 1125.83 633.104 1125.73 632.968C1132.17 622.124 1130.91 611.395 1129.79 601.883C1129.33 597.979 1128.89 594.292 1129 590.829C1129.12 587.157 1129.6 584.009 1130.06 580.965C1130.62 577.213 1131.2 573.332 1131.04 568.755C1131.16 568.276 1131.21 567.708 1131.14 567.035C1130.74 562.647 1125.82 549.514 1115.79 537.626C1110.31 531.125 1102.31 523.849 1091.4 518.942C1096.09 517.95 1102.51 517.026 1109.71 517.189ZM1007.77 657.244C1002.73 663.414 999.25 662.232 998.106 661.843C990.65 659.31 982.001 643.261 974.374 617.81C967.776 595.789 963.919 573.645 963.614 567.435C962.65 547.797 967.324 534.11 977.505 526.756C994.074 514.787 1021.32 521.951 1032.26 525.584C1032.1 525.742 1031.94 525.89 1031.79 526.051C1013.82 544.529 1014.25 576.1 1014.29 578.029C1014.29 578.774 1014.35 579.828 1014.44 581.278C1014.75 586.588 1015.32 596.471 1013.78 607.663C1012.36 618.063 1015.5 628.242 1022.42 635.591C1023.13 636.352 1023.88 637.066 1024.65 637.738C1021.58 641.096 1014.89 648.52 1007.77 657.244ZM1026.96 631.156C1021.39 625.233 1018.86 616.994 1020.02 608.55C1021.64 596.727 1021.04 586.431 1020.72 580.899C1020.67 580.125 1020.63 579.447 1020.61 578.911C1023.23 576.542 1035.4 569.904 1044.07 571.928C1048.02 572.852 1050.44 575.596 1051.44 580.318C1056.63 604.762 1052.13 614.95 1048.51 623.137C1047.76 624.824 1047.06 626.418 1046.46 628.068L1045.99 629.342C1044.81 632.566 1043.71 635.563 1043.03 638.41C1037.11 638.391 1031.34 635.814 1026.96 631.156ZM1027.87 664.122C1026.14 663.681 1024.59 662.917 1023.67 662.283C1024.44 661.917 1025.79 661.42 1028.15 660.927C1039.53 658.538 1041.29 656.853 1045.13 651.885C1046.01 650.746 1047.01 649.455 1048.4 647.883C1048.4 647.882 1048.4 647.881 1048.4 647.881C1050.46 645.532 1051.4 645.931 1053.11 646.652C1054.49 647.236 1055.84 649.003 1056.38 650.948C1056.64 651.866 1056.93 653.61 1055.98 654.966C1047.96 666.409 1036.27 666.262 1027.87 664.122ZM1087.47 720.617C1073.54 723.658 1068.61 716.417 1065.36 708.139C1063.26 702.795 1062.23 678.695 1062.96 652.082C1062.97 651.728 1062.92 651.386 1062.82 651.065C1062.74 650.444 1062.61 649.816 1062.43 649.184C1061.35 645.312 1058.7 642.073 1055.51 640.73C1054.25 640.197 1051.93 639.218 1049.14 639.944C1049.74 637.45 1050.77 634.633 1051.89 631.583L1052.36 630.299C1052.88 628.852 1053.55 627.354 1054.25 625.768C1058.03 617.202 1063.22 605.469 1057.59 578.963C1055.48 569.036 1048.44 564.188 1037.77 565.313C1031.38 565.988 1025.53 568.616 1022.61 570.124C1021.98 570.448 1021.41 570.76 1020.87 571.065C1021.69 561.062 1024.76 542.369 1036.28 530.542C1043.52 523.095 1053.18 519.418 1064.94 519.616C1088.12 520.003 1102.98 532.117 1111.36 542.212C1118.59 550.912 1122.5 559.675 1124.07 564.401C1112.32 563.184 1104.33 565.546 1100.28 571.443C1091.47 584.271 1105.1 609.168 1111.65 621.134C1112.85 623.327 1113.89 625.222 1114.22 626.028C1116.35 631.293 1119.11 634.809 1121.13 637.376C1121.75 638.162 1122.35 638.924 1122.8 639.59C1119.24 640.635 1112.85 643.049 1113.44 655.113C1112.97 661.168 1109.63 689.511 1107.93 699.525C1105.69 712.754 1100.91 717.682 1087.47 720.617ZM1145.63 652.828C1141.99 654.548 1135.9 655.838 1130.12 656.115C1123.73 656.42 1120.48 655.386 1119.72 654.75C1119.36 647.232 1122.11 646.446 1125.01 645.615C1125.47 645.484 1125.92 645.357 1126.35 645.203C1126.61 645.425 1126.91 645.645 1127.23 645.861C1132.36 649.312 1141.52 649.685 1154.44 646.967C1154.49 646.956 1154.54 646.947 1154.59 646.937C1152.84 648.598 1149.86 650.827 1145.63 652.828Z" fill="white"/>
<g clip-path="url(#clip4)">
<path d="M615.469 66.5579H912.569V331.274H615.469V66.5579Z" fill="#F7DF1E"/>
<path d="M693.587 287.774L716.323 275.514C720.71 282.444 724.7 288.306 734.27 288.306C743.445 288.306 749.229 285.109 749.229 272.671V188.088H777.149V273.023C777.149 298.789 760.198 310.516 735.467 310.516C713.133 310.516 700.168 300.21 693.587 287.772" fill="black"/>
<path d="M792.314 285.108L815.047 273.381C821.032 282.088 828.809 288.485 842.569 288.485C854.138 288.485 861.515 283.331 861.515 276.224C861.515 267.694 853.937 264.673 841.173 259.699L834.195 257.032C814.051 249.393 800.689 239.797 800.689 219.54C800.689 200.882 816.643 186.666 841.573 186.666C859.323 186.666 872.086 192.175 881.259 206.568L859.521 219.006C854.734 211.366 849.55 208.346 841.573 208.346C833.397 208.346 828.211 212.966 828.211 219.006C828.211 226.47 833.397 229.491 845.361 234.111L852.341 236.777C876.073 245.84 889.436 255.079 889.436 275.868C889.436 298.259 869.692 310.519 843.168 310.519C817.242 310.519 800.49 299.502 792.314 285.108" fill="black"/>
</g>
<path d="M1453.35 103.194C1383.72 103.194 1327.27 155.801 1327.27 220.695C1327.27 285.589 1383.72 338.196 1453.35 338.196C1522.99 338.196 1579.44 285.589 1579.44 220.695C1579.44 155.801 1522.99 103.194 1453.35 103.194ZM1354.36 221.92L1452.04 312.948C1398.4 312.296 1355.06 271.905 1354.36 221.92ZM1475.51 310.641L1356.83 200.044C1366.9 159.029 1406.29 128.427 1453.35 128.427C1486.25 128.427 1515.4 143.383 1533.4 166.394L1519.69 177.666C1505.09 158.148 1480.82 145.374 1453.35 145.374C1418.38 145.374 1388.59 166.077 1377.34 195.048L1480.87 291.534C1506.02 283.049 1525.35 263.269 1531.83 238.772H1488.91V220.695H1534.18V220.695H1552.36V220.695C1552.36 264.554 1519.52 301.263 1475.51 310.641Z" fill="#744C9E"/>
<g clip-path="url(#clip5)">
<path d="M233.979 693.804C233.979 709.443 190.689 722.045 137.316 722.045C83.9437 722.045 40.6541 709.331 40.6541 693.804C40.6541 678.165 83.9437 665.564 137.316 665.564C190.689 665.564 233.979 678.165 233.979 693.804Z" fill="#9EDCF2"/>
<path d="M233.979 693.804C233.979 709.443 190.689 722.045 137.316 722.045C83.9437 722.045 40.6541 709.331 40.6541 693.804C40.6541 678.165 83.9437 665.564 137.316 665.564C190.689 665.564 233.979 678.165 233.979 693.804Z" fill="#7DBCE7"/>
<path d="M26.9412 610.658L24.118 618.759C24.118 618.759 23.4458 621.684 26.6723 622.247C30.1677 622.134 29.8989 619.434 29.63 618.647L26.9412 610.658Z" fill="#9EDCF2"/>
<path d="M307.786 576.567L308.055 575.555C279.688 570.829 250.649 570.717 233.037 571.392C235.861 562.728 236.802 552.602 236.802 541.464C236.802 525.375 229.542 512.548 217.98 502.872C219.997 497.359 222.686 485.095 215.291 469.456C215.291 469.456 202.116 465.968 172.136 482.733C160.44 480.257 147.937 479.02 135.434 479.02C121.721 479.02 107.874 480.482 94.8333 483.408C63.9122 465.743 50.3337 469.344 50.3337 469.344C41.4607 487.908 46.9727 501.747 48.586 505.122C38.0997 514.573 31.781 526.612 31.781 541.351C31.781 552.49 33.2599 562.503 37.0242 571.167C19.2781 570.604 -8.68534 570.829 -36.1111 575.442L-35.8422 576.455C-8.41646 571.842 19.8159 571.729 37.4275 572.292C38.2342 574.092 39.1752 575.892 40.1163 577.58C22.6391 578.03 -7.07206 579.943 -35.5733 586.693L-35.17 587.706C-6.39986 580.955 23.5802 579.155 40.9229 578.705C51.4092 594.907 71.8441 605.483 108.412 608.746C103.169 611.671 97.9254 616.621 95.7744 625.06C88.6491 627.873 66.3321 634.848 52.8881 615.496C52.8881 615.496 45.3595 604.02 30.9744 603.12C30.9744 603.12 16.9927 602.895 30.0333 610.433C30.0333 610.433 39.3097 614.146 45.7628 627.985C45.7628 627.985 54.2325 651.613 94.6989 643.962V668.152C94.6989 668.152 93.8922 676.815 84.347 679.628C84.347 679.628 78.7005 682.891 84.7503 684.691C84.7503 684.691 110.966 686.491 110.966 668.489V641.937C110.966 641.937 109.891 631.36 116.075 627.76V671.415C116.075 671.415 115.671 681.878 109.218 685.816C109.218 685.816 104.916 692.229 114.327 690.542C114.327 690.542 132.342 688.404 133.149 670.739L133.552 626.522H137.854L138.257 670.739C139.064 688.291 157.079 690.542 157.079 690.542C166.49 692.342 162.188 685.816 162.188 685.816C155.735 681.878 155.331 671.415 155.331 671.415V628.098C161.515 632.148 160.44 641.937 160.44 641.937V668.489C160.44 686.491 186.656 684.691 186.656 684.691C192.705 682.891 187.059 679.628 187.059 679.628C177.648 676.703 176.707 668.152 176.707 668.152V633.273C176.707 619.659 169.851 612.458 163.129 608.746C202.116 605.483 220.803 595.019 229.408 578.592C246.481 578.93 277.268 580.73 306.576 587.706L306.979 586.693C277.806 579.83 247.288 578.03 229.945 577.58C230.752 575.892 231.424 574.205 232.096 572.404C250.111 571.842 279.285 571.842 307.786 576.567Z" fill="#010101"/>
<path d="M198.621 540.676C206.956 547.089 211.93 554.74 211.93 562.953C211.93 601.657 177.514 602.67 135.031 602.67C92.5478 602.67 58.1312 597.269 58.1312 562.953C58.1312 554.74 62.9711 547.089 71.3063 540.789C85.1536 530.212 108.546 535.838 135.031 535.838C161.515 535.838 184.774 530.1 198.621 540.676Z" fill="#F5CCB3"/>
<path d="M109.487 564.979C109.487 575.667 102.362 584.218 93.4889 584.218C84.6159 584.218 77.4906 575.555 77.4906 564.979C77.4906 554.29 84.6159 545.739 93.4889 545.739C102.362 545.627 109.487 554.29 109.487 564.979Z" fill="white"/>
<path d="M104.379 565.204C104.379 572.292 99.5387 578.03 93.7578 578.03C87.8424 578.03 83.137 572.292 83.137 565.204C83.137 558.115 87.9769 552.377 93.7578 552.377C99.5387 552.377 104.379 558.115 104.379 565.204Z" fill="#AF5C51"/>
<path d="M195.394 564.979C195.394 575.667 188.269 584.218 179.396 584.218C170.523 584.218 163.398 575.555 163.398 564.979C163.398 554.29 170.523 545.739 179.396 545.739C188.134 545.627 195.394 554.29 195.394 564.979Z" fill="white"/>
<path d="M190.151 565.204C190.151 572.292 185.311 578.03 179.53 578.03C173.615 578.03 168.91 572.292 168.91 565.204C168.91 558.115 173.749 552.377 179.53 552.377C185.446 552.377 190.151 558.115 190.151 565.204Z" fill="#AF5C51"/>
<path d="M139.333 582.08C139.333 583.88 137.585 585.456 135.3 585.456C133.149 585.456 131.267 583.993 131.267 582.08C131.267 580.168 133.014 578.705 135.3 578.705C137.451 578.705 139.333 580.168 139.333 582.08Z" fill="#AF5C51"/>
<path d="M126.023 590.519C125.754 589.956 126.158 589.394 126.83 589.169C127.502 588.944 128.174 589.281 128.443 589.844C129.519 592.319 132.208 593.894 135.3 593.894C138.392 593.894 141.081 592.206 142.156 589.844C142.425 589.281 143.097 588.944 143.769 589.169C144.442 589.394 144.845 589.956 144.576 590.519C143.232 593.782 139.467 596.032 135.3 596.032C131.132 596.032 127.368 593.782 126.023 590.519Z" fill="#AF5C51"/>
<path d="M37.1586 605.82C37.1586 606.72 35.9487 607.395 34.3354 607.395C32.8566 607.395 31.5122 606.72 31.5122 605.82C31.5122 604.92 32.7221 604.245 34.3354 604.245C35.9487 604.245 37.1586 604.92 37.1586 605.82Z" fill="#C4E5D9"/>
<path d="M44.9561 609.421C44.9561 610.321 43.7462 610.996 42.1329 610.996C40.6541 610.996 39.3096 610.321 39.3096 609.421C39.3096 608.521 40.5196 607.845 42.1329 607.845C43.7462 607.845 44.9561 608.521 44.9561 609.421Z" fill="#C4E5D9"/>
<path d="M49.6615 614.146C49.6615 615.046 48.4516 615.721 46.8383 615.721C45.3595 615.721 44.0151 615.046 44.0151 614.146C44.0151 613.246 45.225 612.571 46.8383 612.571C48.4516 612.458 49.6615 613.246 49.6615 614.146Z" fill="#C4E5D9"/>
<path d="M53.9636 619.547C53.9636 620.447 52.7537 621.122 51.1404 621.122C49.6615 621.122 48.3171 620.447 48.3171 619.547C48.3171 618.647 49.5271 617.972 51.1404 617.972C52.7537 617.859 53.9636 618.647 53.9636 619.547Z" fill="#C4E5D9"/>
<path d="M58.669 624.497C58.669 625.397 57.459 626.072 55.8457 626.072C54.3669 626.072 53.0225 625.397 53.0225 624.497C53.0225 623.597 54.2325 622.922 55.8457 622.922C57.459 622.922 58.669 623.597 58.669 624.497Z" fill="#C4E5D9"/>
<path d="M65.1221 628.885C65.1221 629.785 63.9122 630.46 62.2989 630.46C60.82 630.46 59.4756 629.785 59.4756 628.885C59.4756 627.985 60.6856 627.31 62.2989 627.31C63.9122 627.197 65.1221 627.985 65.1221 628.885Z" fill="#C4E5D9"/>
<path d="M74.1296 631.698C74.1296 632.598 72.9196 633.273 71.3063 633.273C69.8275 633.273 68.4831 632.598 68.4831 631.698C68.4831 630.798 69.6931 630.123 71.3063 630.123C72.9196 630.123 74.1296 630.798 74.1296 631.698Z" fill="#C4E5D9"/>
<path d="M83.137 631.698C83.137 632.598 81.9271 633.273 80.3138 633.273C78.835 633.273 77.4906 632.598 77.4906 631.698C77.4906 630.798 78.7005 630.123 80.3138 630.123C81.9271 630.123 83.137 630.798 83.137 631.698Z" fill="#C4E5D9"/>
<path d="M92.2789 630.46C92.2789 631.36 91.069 632.035 89.4557 632.035C87.9768 632.035 86.6324 631.36 86.6324 630.46C86.6324 629.56 87.8424 628.885 89.4557 628.885C90.9345 628.885 92.2789 629.56 92.2789 630.46Z" fill="#C4E5D9"/>
</g>
<path d="M266.441 68.4883L244.374 317.955L145.18 345.706L46.2587 317.994L24.2146 68.4883H266.441Z" fill="#E44D26"/>
<path d="M145.328 324.495L225.482 302.07L244.34 88.8892H145.328V324.495Z" fill="#F16529"/>
<path d="M102.43 150.092H145.328V119.49H69.2892L70.015 127.7L77.4681 212.028H145.328V181.427H105.201L102.43 150.092Z" fill="#EBEBEB"/>
<path d="M109.264 227.329H78.823L83.0714 275.377L145.188 292.778L145.328 292.739V260.901L145.195 260.937L111.423 251.735L109.264 227.329Z" fill="#EBEBEB"/>
<path d="M46.7515 0.68335H62.1619V16.0476H76.2588V0.68335H91.6698V47.2102H76.2594V31.6303H62.1626V47.2102H46.7522V0.68335H46.7515Z" fill="black"/>
<path d="M111.935 16.1123H98.3683V0.68335H140.919V16.1123H127.347V47.2102H111.936V16.1123H111.935Z" fill="black"/>
<path d="M147.672 0.68335H163.741L173.626 17.0315L183.5 0.68335H199.575V47.2102H184.228V24.1489L173.626 40.6918H173.361L162.751 24.1489V47.2102H147.672V0.68335Z" fill="black"/>
<path d="M207.245 0.68335H222.66V31.8311H244.331V47.2102H207.245V0.68335Z" fill="black"/>
<path d="M144.775 212.476H182.115L178.596 252.163L144.775 261.375V293.212L206.941 275.825L207.397 270.655L214.523 190.093L215.263 181.876H144.775V212.476Z" fill="white"/>
<path d="M145.223 150.017V150.092H218.471L219.079 143.213L220.461 127.7L221.186 119.49H145.223V150.017Z" fill="white"/>
<path d="M772.263 657.405H803.248L753.785 538.803H719.527L670.065 657.405H701.052L709.135 637.315H755.87L747.41 615.085H716.638L736.656 564.052L772.263 657.405ZM874.438 569.595C873.337 565.931 869.241 563.779 865.259 564.801C861.293 565.818 858.968 569.615 860.069 573.279C863.179 583.625 864.754 594.318 864.754 605.063C864.754 670.594 807.051 723.906 736.123 723.906C665.196 723.906 607.493 670.594 607.493 605.063C607.493 539.53 665.196 486.218 736.123 486.218C766.169 486.218 795.242 496.079 818.187 513.629C817.295 515.597 816.799 517.758 816.799 520.025C816.799 529.179 824.831 536.599 834.738 536.599C844.646 536.599 852.678 529.179 852.678 520.025C852.678 510.871 844.646 503.45 834.738 503.45C832.831 503.45 830.995 503.731 829.27 504.241C803.433 483.897 770.341 472.441 736.123 472.441C656.974 472.441 592.581 531.935 592.581 605.063C592.581 678.19 656.974 737.683 736.123 737.683C815.272 737.683 879.665 678.19 879.665 605.063C879.665 593.073 877.907 581.139 874.438 569.595Z" fill="#112B49"/>
<path d="M305.15 672.507C305.15 688.525 319.011 701.506 336.11 701.506H514.304C531.405 701.506 545.265 688.523 545.265 672.507V505.599C545.265 489.582 531.403 476.6 514.304 476.6H336.11C319.009 476.6 305.15 489.583 305.15 505.599V672.507Z" fill="#563D7C"/>
<path d="M404.72 576.084V544.234H434.652C437.502 544.234 440.251 544.456 442.898 544.901C445.545 545.346 447.887 546.141 449.923 547.285C451.959 548.43 453.588 550.019 454.81 552.053C456.031 554.088 456.642 556.694 456.642 559.873C456.642 565.595 454.81 569.727 451.145 572.27C447.48 574.813 442.796 576.084 437.095 576.084H404.72ZM372.752 520.966V657.14H443.204C449.719 657.14 456.065 656.377 462.242 654.851C468.418 653.325 473.916 650.973 478.735 647.795C483.554 644.616 487.388 640.516 490.239 635.493C493.09 630.471 494.515 624.527 494.515 617.661C494.515 609.142 492.309 601.863 487.897 595.824C483.486 589.784 476.8 585.556 467.841 583.141C474.357 580.216 479.278 576.466 482.603 571.888C485.929 567.311 487.592 561.589 487.592 554.723C487.592 548.366 486.472 543.026 484.232 538.703C481.993 534.38 478.837 530.915 474.764 528.309C470.692 525.702 465.805 523.827 460.104 522.683C454.403 521.538 448.09 520.966 441.167 520.966H372.752ZM404.72 633.872V596.491H439.539C446.462 596.491 452.027 597.985 456.235 600.973C460.443 603.961 462.547 608.951 462.547 615.944C462.547 619.505 461.902 622.429 460.613 624.718C459.323 627.006 457.593 628.818 455.421 630.153C453.249 631.488 450.737 632.442 447.887 633.014C445.036 633.586 442.05 633.872 438.928 633.872H404.72Z" fill="white"/>
<g clip-path="url(#clip6)">
<path d="M1539.54 611.317C1529.55 611.366 1520.87 613.588 1513.6 616.873C1510.93 611.994 1508.27 607.646 1507.79 604.457C1507.27 600.737 1506.64 598.466 1507.27 594.021C1507.9 589.576 1510.72 583.247 1510.67 582.764C1510.62 582.281 1510.04 580.01 1504.29 579.962C1498.54 579.913 1493.57 580.976 1493 582.377C1492.42 583.779 1491.32 586.967 1490.59 590.253C1489.6 595.084 1479.09 612.332 1473.07 621.367C1471.14 617.84 1469.46 614.748 1469.1 612.284C1468.58 608.564 1467.95 606.293 1468.58 601.848C1469.2 597.403 1472.03 591.074 1471.97 590.591C1471.92 590.108 1471.35 587.837 1465.59 587.789C1459.84 587.74 1454.87 588.803 1454.3 590.204C1453.72 591.605 1453.1 594.891 1451.89 598.079C1450.69 601.268 1436.73 630.063 1433.07 637.503C1431.19 641.32 1429.57 644.364 1428.42 646.442C1428.42 646.442 1428.36 646.586 1428.21 646.828C1427.21 648.616 1426.64 649.582 1426.64 649.582C1426.64 649.582 1426.64 649.582 1426.64 649.63C1425.85 650.935 1425.02 652.143 1424.6 652.143C1424.28 652.143 1423.71 648.664 1424.7 643.929C1426.79 633.928 1431.76 618.371 1431.71 617.84C1431.71 617.55 1432.65 614.844 1428.47 613.443C1424.39 612.042 1422.92 614.361 1422.56 614.361C1422.19 614.361 1421.93 615.183 1421.93 615.183C1421.93 615.183 1426.48 597.693 1413.25 597.693C1404.99 597.693 1393.59 606.051 1387.94 613.588C1384.39 615.376 1376.8 619.193 1368.7 623.299C1365.61 624.894 1362.42 626.488 1359.44 627.986C1359.23 627.792 1359.02 627.551 1358.81 627.358C1342.81 611.559 1313.22 600.399 1314.47 579.189C1314.94 571.459 1317.82 551.167 1371.31 526.527C1415.34 506.477 1450.38 512.033 1456.44 524.353C1465.12 541.939 1437.67 574.599 1392.18 579.334C1374.82 581.121 1365.72 574.937 1363.42 572.618C1361.01 570.202 1360.64 570.057 1359.76 570.541C1358.29 571.265 1359.23 573.439 1359.76 574.696C1361.12 577.981 1366.71 583.779 1376.18 586.629C1384.54 589.141 1404.88 590.542 1429.51 581.749C1457.07 571.893 1478.62 544.499 1472.29 521.55C1465.96 498.263 1424.13 490.581 1384.54 503.578C1361.01 511.308 1335.49 523.483 1317.14 539.33C1295.33 558.172 1291.88 574.551 1293.29 581.411C1298.36 605.761 1334.71 621.608 1349.24 633.348C1348.51 633.735 1347.83 634.073 1347.26 634.363C1339.99 637.697 1312.27 651.08 1305.37 665.236C1297.53 681.276 1306.63 692.774 1312.64 694.32C1331.31 699.104 1350.5 690.504 1360.8 676.299C1371.1 662.095 1369.85 643.639 1365.09 635.184C1365.04 635.088 1364.98 634.991 1364.88 634.895C1366.76 633.88 1368.7 632.817 1370.58 631.802C1374.29 629.773 1377.95 627.889 1381.09 626.343C1379.31 630.836 1378.01 636.199 1377.38 643.929C1376.59 653.012 1380.62 664.801 1385.9 669.439C1388.25 671.468 1391.03 671.516 1392.8 671.516C1398.97 671.516 1401.75 666.782 1404.83 661.177C1408.6 654.317 1412 646.345 1412 646.345C1412 646.345 1407.76 667.893 1419.26 667.893C1423.45 667.893 1427.68 662.868 1429.57 660.308V660.356C1429.57 660.356 1429.67 660.211 1429.88 659.873C1430.3 659.245 1430.56 658.858 1430.56 658.858V658.762C1432.23 656.056 1436 649.92 1441.59 639.726C1448.81 626.585 1455.76 610.158 1455.76 610.158C1455.76 610.158 1456.39 614.168 1458.54 620.835C1459.79 624.749 1462.4 629.049 1464.5 633.204C1462.82 635.378 1461.78 636.586 1461.78 636.586C1461.78 636.586 1461.78 636.586 1461.83 636.634C1460.47 638.276 1459.01 640.064 1457.38 641.803C1451.69 648.084 1444.89 655.283 1443.95 657.36C1442.85 659.824 1443.11 661.612 1445.2 663.061C1446.72 664.124 1449.44 664.269 1452.21 664.124C1457.33 663.786 1460.94 662.627 1462.72 661.902C1465.49 660.984 1468.73 659.583 1471.77 657.505C1477.36 653.689 1480.76 648.229 1480.45 641.03C1480.29 637.069 1478.88 633.107 1477.15 629.387C1477.67 628.71 1478.14 628.034 1478.67 627.358C1487.51 615.424 1494.36 602.331 1494.36 602.331C1494.36 602.331 1494.98 606.341 1497.13 613.008C1498.17 616.39 1500.32 620.062 1502.2 623.637C1493.88 629.87 1488.76 637.117 1486.93 641.852C1483.64 650.645 1486.2 654.607 1491.06 655.525C1493.26 655.959 1496.39 654.993 1498.7 654.075C1501.62 653.205 1505.08 651.708 1508.37 649.485C1513.96 645.668 1519.35 640.354 1519.04 633.155C1518.88 629.87 1517.94 626.633 1516.63 623.492C1523.69 620.787 1532.79 619.289 1544.4 620.545C1569.29 623.251 1574.21 637.6 1573.26 643.639C1572.32 649.679 1567.09 652.964 1565.37 653.978C1563.64 654.993 1563.07 655.331 1563.22 656.056C1563.43 657.119 1564.27 657.071 1565.73 656.877C1567.77 656.539 1578.81 651.998 1579.28 640.885C1580.06 626.681 1565.42 611.172 1539.54 611.317ZM1347.52 671.13C1339.26 679.44 1327.75 682.58 1322.79 679.923C1317.45 677.072 1319.54 664.801 1329.69 656.008C1335.86 650.645 1343.81 645.668 1349.09 642.625C1350.29 641.948 1352.07 640.982 1354.21 639.774C1354.58 639.581 1354.79 639.484 1354.79 639.484C1355.21 639.243 1355.62 639.001 1356.04 638.76C1359.76 651.321 1356.2 662.385 1347.52 671.13ZM1407.66 633.348C1404.78 639.823 1398.77 656.394 1395.11 655.476C1391.97 654.703 1390.03 642.142 1394.48 629.725C1396.73 623.492 1401.48 616.052 1404.26 613.153C1408.75 608.515 1413.72 606.969 1414.92 608.853C1416.44 611.317 1409.43 629.29 1407.66 633.348ZM1457.28 655.283C1456.08 655.863 1454.93 656.249 1454.4 655.959C1454.04 655.766 1454.93 654.993 1454.93 654.993C1454.93 654.993 1461.15 648.809 1463.61 646.007C1465.02 644.364 1466.69 642.431 1468.47 640.257V640.885C1468.47 648.277 1460.73 653.254 1457.28 655.283ZM1495.56 647.215C1494.67 646.635 1494.83 644.702 1497.81 638.663C1498.96 636.296 1501.68 632.334 1506.33 628.517C1506.85 630.063 1507.22 631.561 1507.17 632.962C1507.11 642.287 1499.9 645.765 1495.56 647.215Z" fill="#CD6799"/>
</g>
<path fill-rule="evenodd" clip-rule="evenodd" d="M2764.29 469.789L2824.23 502.063C2825.92 500.396 2827.89 498.924 2830.13 497.712C2842.56 491.048 2858.41 495.005 2865.63 506.598C2872.78 518.191 2868.54 532.978 2856.11 539.712C2853.89 540.901 2851.56 541.753 2849.18 542.282V606.856C2851.53 607.387 2853.83 608.233 2856.03 609.41C2868.54 616.144 2872.78 630.931 2865.56 642.524C2858.41 654.117 2842.48 658.074 2830.05 651.41C2827.58 650.083 2825.43 648.431 2823.62 646.546L2764.05 678.623C2764.9 681.023 2765.36 683.59 2765.36 686.259C2765.36 699.588 2753.75 710.487 2739.38 710.487C2725.01 710.487 2713.4 699.657 2713.4 686.259C2713.4 683.877 2713.77 681.577 2714.45 679.404L2654.52 647.138C2652.85 648.773 2650.91 650.217 2648.71 651.41C2636.2 658.074 2620.35 654.117 2613.2 642.524C2606.05 630.931 2610.3 616.144 2622.73 609.41C2624.93 608.232 2627.23 607.385 2629.58 606.855V542.282C2627.2 541.753 2624.87 540.901 2622.65 539.712C2610.22 533.047 2605.98 518.191 2613.13 506.598C2620.27 495.005 2636.2 491.048 2648.63 497.712C2650.86 498.917 2652.82 500.38 2654.5 502.036L2714.46 469.753C2713.77 467.57 2713.4 465.257 2713.4 462.863C2713.4 449.465 2725.01 438.635 2739.38 438.635C2753.75 438.635 2765.36 449.465 2765.36 462.863C2765.36 465.27 2764.99 467.595 2764.29 469.789ZM2758.04 479.733L2818.13 512.084C2816.27 518.167 2816.95 524.912 2820.6 530.826C2824.25 536.759 2830.21 540.692 2836.82 542.225V606.879C2836.49 606.957 2836.15 607.04 2835.82 607.13L2757.34 480.379C2757.58 480.167 2757.81 479.952 2758.04 479.733ZM2721.43 480.393L2642.96 607.142C2642.62 607.05 2642.28 606.965 2641.93 606.886V542.225C2648.55 540.692 2654.51 536.759 2658.16 530.826C2661.82 524.9 2662.49 518.14 2660.62 512.047L2720.69 479.706C2720.93 479.939 2721.18 480.169 2721.43 480.393ZM2746.64 486.135L2825.1 612.855C2823.34 614.417 2821.79 616.236 2820.52 618.296C2819.26 620.344 2818.35 622.494 2817.78 624.683H2660.98C2660.41 622.495 2659.5 620.346 2658.24 618.296C2656.96 616.249 2655.42 614.44 2653.67 612.885L2732.14 486.141C2734.44 486.76 2736.87 487.091 2739.38 487.091C2741.9 487.091 2744.34 486.757 2746.64 486.135ZM2758.59 669.937L2818.29 637.796C2818.11 637.271 2817.95 636.741 2817.81 636.206H2660.94C2660.86 636.521 2660.77 636.833 2660.68 637.144L2720.66 669.443C2725.39 664.871 2732.02 662.031 2739.38 662.031C2747 662.031 2753.84 665.077 2758.59 669.937Z" fill="#E535AB"/>
<path d="M2867.7 250.652L2759.83 58.1684C2757.1 53.3424 2751.44 50.1628 2745.09 49.8866C2738.72 49.5282 2732.65 52.1743 2729.33 56.7518L2612.33 215.976C2608.7 220.885 2608.77 227.116 2612.52 231.96L2669.73 306.391C2674.17 312.129 2682.58 314.726 2690.39 312.775L2856.39 271.518C2861.45 270.275 2865.61 267.252 2867.81 263.229C2869.98 259.226 2869.95 254.623 2867.71 250.645L2867.7 250.652ZM2843.55 258.907L2702.69 293.905C2698.39 294.979 2694.27 291.85 2695.16 288.206L2745.49 85.7347C2746.43 81.9463 2752.66 81.3467 2754.62 84.8518L2847.79 251.08C2848.62 252.579 2848.63 254.31 2847.81 255.816C2847 257.322 2845.44 258.451 2843.55 258.907H2843.55Z" fill="black"/>
<path fill-rule="evenodd" clip-rule="evenodd" d="M2008.01 582.539C2007.68 582.636 2007.35 583.708 2007.35 584.293C2007.28 588.19 2007.22 598.519 2007.22 605.535C2007.22 605.73 2007.41 606.119 2007.61 606.119C2008.61 606.217 2011 606.314 2013.06 606.314C2015.91 606.314 2017.57 605.73 2018.5 605.146C2020.89 603.392 2022.02 599.591 2022.02 595.401C2022.02 585.949 2017.51 582.343 2010.8 582.343C2010.34 582.247 2009.01 582.247 2008.01 582.539ZM2025.14 626.095C2025.14 616.449 2020.29 611.089 2011.53 611.089C2011.13 611.089 2008.34 610.991 2007.68 611.186C2007.48 611.284 2007.22 611.479 2007.22 611.772C2007.22 618.69 2007.15 629.701 2007.35 633.988C2007.48 635.839 2008.41 638.47 2009.54 639.25C2010.73 640.224 2013.46 640.419 2015.31 640.419C2020.56 640.419 2025.14 636.132 2025.14 626.095ZM1994.47 577.18C1995.13 577.18 1997.12 577.471 2002.24 577.471C2007.08 577.471 2010.93 577.277 2015.65 577.277C2021.42 577.277 2029.39 580.298 2029.39 592.965C2029.39 599.201 2026.4 604.171 2022.48 606.607C2022.29 606.705 2022.29 606.899 2022.48 606.996C2028.06 609.043 2032.97 614.11 2032.97 623.659C2032.97 633.014 2028.99 638.957 2023.22 642.66C2019.7 644.901 2015.31 645.681 2010.87 645.681C2007.48 645.681 1998.39 645.097 1993.34 645.292C1992.81 644.999 1993.81 641.491 1994.27 640.906C1995.47 640.809 1996.39 640.711 1997.66 640.127C1999.45 639.445 1999.65 638.665 1999.91 634.67C2000.05 631.26 2000.05 619.176 2000.05 610.602C2000.05 598.811 2000.11 590.821 2000.05 586.924C1999.98 583.903 1999.25 582.929 1997.79 582.343C1996.66 582.052 1994.8 581.662 1993.27 581.37C1992.94 580.882 1994.07 577.569 1994.47 577.18ZM1956.16 637.788C1957.76 639.639 1960.88 640.419 1963.67 640.419C1967.25 640.419 1970.84 639.445 1974.29 634.865C1977.81 630.188 1980.26 622.977 1980.26 611.479C1980.26 600.468 1977.41 591.503 1971.57 586.242C1968.25 583.221 1964 581.954 1959.08 581.954C1957.62 581.954 1956.23 582.052 1955.37 582.636C1955.17 582.831 1954.7 583.708 1954.7 584.195C1954.57 586.144 1954.57 601.15 1954.57 609.92C1954.57 618.982 1954.57 631.649 1954.7 633.111C1954.7 634.573 1955.17 636.814 1956.16 637.788ZM1941.09 577.18C1942.35 577.18 1947.2 577.471 1949.52 577.471C1953.71 577.471 1956.69 577.18 1964.59 577.18C1971.23 577.18 1976.81 579.811 1980.79 584.779C1985.64 590.919 1988.16 599.397 1988.16 609.725C1988.16 624.439 1983.58 632.916 1979 637.788C1974.42 642.758 1968.44 645.681 1959.95 645.681C1955.43 645.681 1947.67 645.486 1941.23 645.388H1941.16C1940.83 644.512 1941.69 641.102 1942.22 641.004C1943.95 640.711 1944.41 640.614 1945.28 640.127C1946.67 639.347 1946.94 638.275 1947.13 634.67C1947.33 627.947 1947.27 619.859 1947.27 610.7C1947.27 604.171 1947.33 591.406 1947.2 587.313C1947 583.903 1946.01 583.026 1944.01 582.441C1943.02 582.149 1941.69 581.759 1939.83 581.467C1939.57 580.784 1940.76 577.764 1941.09 577.18Z" fill="#8E714E"/>
<path fill-rule="evenodd" clip-rule="evenodd" d="M1860.76 641.588C1859.1 641.296 1857.91 640.906 1856.45 639.932C1856.25 639.737 1855.92 638.763 1855.92 638.373C1855.78 634.962 1855.78 625.218 1855.78 618.69C1855.78 613.427 1855.19 608.848 1853.66 605.633C1851.87 601.929 1849.28 599.786 1845.96 599.786C1843.04 599.786 1839.12 602.71 1835.87 606.802C1835.8 606.899 1835.27 607.582 1835.34 606.51C1835.34 605.437 1835.47 603.294 1835.54 601.833C1835.6 600.468 1835.07 599.786 1835.07 599.786C1832.95 601.345 1826.97 603.392 1824.78 603.683C1823.19 604.171 1822.79 606.412 1824.45 607.191H1824.52C1826.31 607.971 1827.5 608.848 1828.43 609.725C1829.1 610.505 1829.03 611.577 1829.03 612.454C1829.1 619.762 1829.1 630.967 1828.9 637.107C1828.83 639.543 1828.37 640.419 1827.17 640.809L1827.3 640.711C1826.37 641.004 1825.64 641.296 1824.52 641.491C1824.12 642.075 1824.12 645.194 1824.52 645.876C1825.25 645.876 1829.1 645.583 1832.28 645.583C1836.67 645.583 1838.92 645.876 1840.05 645.876C1840.52 645.097 1840.65 642.173 1840.38 641.491C1839.12 641.393 1838.19 641.199 1837.33 640.809C1836.13 640.419 1835.8 639.543 1835.74 637.496C1835.6 632.331 1835.6 621.418 1835.6 614.013C1835.6 611.966 1836 610.991 1836.4 610.407C1837.93 608.459 1840.38 607.094 1842.57 607.094C1844.7 607.094 1846.09 608.069 1847.15 609.336C1848.61 611.089 1849.08 613.623 1849.28 615.474C1849.61 619.664 1849.48 627.947 1849.48 635.157C1849.48 639.055 1849.28 640.029 1848.28 640.516C1847.82 640.809 1846.62 641.199 1845.23 641.393C1844.76 642.075 1844.9 645.097 1845.23 645.778C1847.15 645.778 1849.41 645.486 1852.73 645.486C1856.85 645.486 1859.5 645.778 1860.56 645.778C1860.9 645.194 1861.03 642.368 1860.76 641.588H1860.76ZM1879.15 604.366C1875.64 604.366 1873.44 608.361 1873.44 614.597C1873.44 620.931 1875.37 628.239 1880.81 628.239C1881.74 628.239 1883.47 627.654 1884.27 626.29C1885.53 624.536 1886.39 621.028 1886.39 617.326C1886.39 609.238 1883.67 604.366 1879.15 604.366ZM1878.69 647.435C1877.36 647.435 1876.43 648.019 1875.83 648.507C1873.05 651.137 1871.78 653.671 1871.78 656.692C1871.78 659.518 1872.51 661.758 1874.11 663.708C1876.03 666.144 1878.69 667.313 1882.07 667.313C1888.85 667.313 1891.83 661.954 1891.83 656.692C1891.83 652.989 1890.57 650.553 1887.98 649.189C1886.12 648.019 1882.74 647.435 1878.69 647.435ZM1879.15 672.77C1875.1 672.77 1872.18 671.503 1869.66 668.677C1867.2 665.949 1866.14 661.856 1866.14 659.031C1866.14 658.251 1866.27 656.107 1867.47 654.159C1868.2 652.989 1869.79 650.748 1873.58 646.948C1873.71 646.851 1873.78 646.753 1873.78 646.558C1873.78 646.363 1873.64 646.168 1873.51 646.071C1870.39 644.317 1869.46 641.491 1869.2 639.932V639.737C1869.13 639.152 1869 638.568 1869.59 637.983C1870.06 637.496 1870.72 636.911 1871.45 636.23C1872.58 635.255 1873.78 634.183 1874.51 633.306C1874.64 633.111 1874.64 632.916 1874.64 632.721C1874.64 632.526 1874.51 632.331 1874.37 632.235C1869.73 629.993 1867.4 624.926 1867.4 617.326C1867.4 612.356 1868.93 607.873 1871.65 605.048C1873.51 602.904 1878.16 600.274 1881.21 600.274H1881.41C1884.53 600.37 1886.26 601.345 1888.71 602.612C1890.04 603.294 1891.3 603.586 1893.03 603.586C1895.62 603.586 1896.75 602.417 1897.68 601.053C1897.74 601.247 1897.87 601.735 1897.94 603.001C1898.01 604.269 1897.74 606.119 1897.08 607.484C1896.55 608.555 1895.35 609.336 1894.16 609.336H1893.83C1892.63 609.141 1892.1 608.946 1892.1 608.946L1891.83 609.141C1891.77 609.336 1891.83 609.53 1891.9 609.823L1891.97 610.018C1892.1 610.895 1892.36 613.525 1892.36 614.208C1892.36 622.198 1890.17 625.705 1887.85 628.336C1885.59 630.772 1883 632.331 1880.08 632.721C1880.02 632.721 1879.75 632.721 1879.15 632.819C1878.82 632.819 1878.36 632.916 1878.29 632.916H1878.22C1877.69 633.111 1876.37 634.085 1876.37 635.742C1876.37 637.203 1876.96 638.957 1879.82 639.25C1880.41 639.347 1881.01 639.347 1881.68 639.445C1885.46 639.834 1890.17 640.322 1892.36 641.393C1895.42 643.05 1897.34 647.045 1897.34 651.82C1897.34 659.031 1893.83 665.754 1887.98 669.944C1885.13 671.795 1882.27 672.77 1879.15 672.77ZM1916.99 604.853C1915.6 604.853 1914.34 605.34 1913.41 606.314C1910.82 608.653 1909.49 613.331 1909.49 620.151C1909.49 632.916 1913.87 641.881 1920.11 641.881C1921.97 641.881 1923.43 641.102 1924.7 639.543C1926.62 637.203 1927.62 632.526 1927.62 625.998C1927.62 613.331 1923.3 604.853 1916.99 604.853ZM1918.19 646.558C1906.9 646.558 1902.85 634.378 1902.85 622.977C1902.85 614.987 1905.04 608.848 1909.43 604.463C1912.55 601.638 1916.26 600.079 1919.58 600.079C1928.21 600.079 1934.26 609.141 1934.26 622.198C1934.26 631.065 1931.87 638.08 1927.28 642.368C1925.09 644.511 1921.31 646.558 1918.19 646.558H1918.19ZM1799.89 604.853C1798.49 604.853 1797.23 605.34 1796.3 606.314C1793.71 608.653 1792.38 613.331 1792.38 620.151C1792.38 632.916 1796.77 641.881 1803.01 641.881C1804.87 641.881 1806.33 641.102 1807.59 639.543C1809.51 637.203 1810.51 632.526 1810.51 625.998C1810.51 613.331 1806.26 604.853 1799.89 604.853ZM1801.08 646.558C1789.8 646.558 1785.75 634.378 1785.75 622.977C1785.75 614.987 1787.94 608.848 1792.32 604.463C1795.44 601.638 1799.16 600.079 1802.48 600.079C1811.11 600.079 1817.15 609.141 1817.15 622.198C1817.15 631.065 1814.76 638.08 1810.18 642.368C1808.05 644.511 1804.27 646.558 1801.08 646.558ZM1725.2 645.583C1725.07 645.292 1724.93 644.415 1725 643.342C1725 642.563 1725.13 642.075 1725.2 641.881C1726.59 641.588 1727.32 641.296 1728.12 641.004C1729.45 640.516 1729.98 639.445 1730.05 637.009C1730.25 631.162 1730.25 620.054 1730.18 612.356V612.161C1730.18 611.284 1730.18 610.212 1729.45 609.432C1728.39 608.459 1727.12 607.582 1725.47 606.899C1724.87 606.607 1724.47 606.119 1724.54 605.535C1724.54 604.951 1724.93 604.269 1725.8 604.074C1727.99 603.781 1733.7 601.735 1735.95 600.274C1736.09 600.468 1736.29 601.053 1736.29 601.833L1736.22 602.904C1736.15 603.976 1736.09 605.243 1736.09 606.51C1736.09 606.899 1736.35 607.191 1736.62 607.191C1736.75 607.191 1736.88 607.094 1737.02 606.996C1741.27 602.124 1745.12 600.37 1747.11 600.37C1750.36 600.37 1752.88 602.612 1754.81 607.289C1754.94 607.582 1755.07 607.678 1755.27 607.678C1755.41 607.678 1755.61 607.582 1755.67 607.387C1759.59 603.001 1763.51 600.37 1766.09 600.37C1772.27 600.37 1775.92 607.094 1775.92 618.495C1775.92 621.71 1775.92 625.9 1775.85 629.701C1775.85 633.111 1775.79 636.23 1775.79 638.47C1775.79 638.957 1776.25 640.516 1776.98 640.809C1777.91 641.491 1779.17 641.783 1780.83 642.173H1780.9C1781.03 642.855 1780.77 645.388 1780.5 645.876C1780.1 645.876 1779.5 645.876 1778.84 645.778C1777.58 645.681 1775.79 645.583 1773.8 645.583C1769.68 645.583 1767.56 645.681 1765.5 645.876C1765.36 645.097 1765.3 642.758 1765.5 642.173C1766.69 641.881 1767.29 641.588 1768.02 641.296C1769.35 640.711 1769.68 639.834 1769.75 637.301C1769.75 635.45 1770.01 619.664 1769.61 615.863C1769.22 611.966 1767.22 607.387 1762.84 607.387C1761.18 607.387 1758.59 608.361 1756.07 611.186C1755.94 611.382 1755.8 611.868 1755.8 612.161V612.259C1756.07 614.304 1756.07 616.644 1756.07 620.249V626.582C1756.07 630.967 1756 635.06 1756.07 638.178C1756.07 640.322 1756.93 640.809 1757.66 641.199C1758.06 641.296 1758.33 641.393 1758.66 641.491C1759.26 641.686 1759.85 641.881 1760.78 642.173C1760.92 642.563 1760.92 643.829 1760.72 644.901C1760.65 645.486 1760.52 645.778 1760.45 645.876C1758.19 645.778 1755.87 645.681 1752.49 645.681C1751.49 645.681 1749.76 645.778 1748.3 645.778C1747.11 645.778 1745.98 645.876 1745.32 645.876C1745.25 645.681 1745.12 644.999 1745.12 643.927C1745.12 643.05 1745.25 642.368 1745.38 642.173C1745.71 642.075 1745.98 641.979 1746.31 641.979C1747.11 641.783 1747.77 641.588 1748.44 641.393C1749.56 640.906 1749.96 640.029 1750.03 637.886C1750.23 633.014 1750.43 619.08 1749.96 615.572C1749.17 609.92 1746.98 607.094 1743.46 607.094C1741.4 607.094 1738.81 608.555 1736.68 610.895C1736.35 611.284 1736.09 612.259 1736.09 613.136V618.885C1736.09 625.9 1736.09 634.671 1736.15 638.47C1736.22 639.639 1736.49 641.004 1738.01 641.491C1738.34 641.588 1738.88 641.783 1739.54 641.881L1740.73 642.173C1740.87 642.758 1740.8 645.097 1740.54 645.876C1739.87 645.876 1739.07 645.778 1738.15 645.778C1736.75 645.681 1734.96 645.583 1732.97 645.583C1730.64 645.583 1728.98 645.681 1727.66 645.778C1726.73 645.583 1726 645.583 1725.2 645.583Z" fill="#442D22"/>
<path fill-rule="evenodd" clip-rule="evenodd" d="M1690.28 668.97L1687.56 667.605C1687.56 667.605 1687.89 647.24 1682.91 645.778C1679.59 640.127 1683.44 406.072 1695.39 644.999C1695.39 644.999 1691.28 648.019 1690.55 653.184C1689.75 658.251 1690.28 668.97 1690.28 668.97Z" fill="white"/>
<path fill-rule="evenodd" clip-rule="evenodd" d="M1690.28 668.97L1687.56 667.605C1687.56 667.605 1687.89 647.24 1682.91 645.778C1679.59 640.127 1683.44 406.072 1695.39 644.999C1695.39 644.999 1691.28 648.019 1690.55 653.184C1689.75 658.251 1690.28 668.97 1690.28 668.97Z" fill="#A6A385"/>
<path fill-rule="evenodd" clip-rule="evenodd" d="M1691.74 649.287C1691.74 649.287 1715.57 626.29 1710 578.446C1704.62 543.66 1691.94 532.259 1690.55 527.874C1689.02 524.756 1687.56 519.3 1687.56 519.3L1688.55 616.058C1688.55 616.156 1686.5 645.681 1691.74 649.287Z" fill="white"/>
<path fill-rule="evenodd" clip-rule="evenodd" d="M1691.74 649.287C1691.74 649.287 1715.57 626.29 1710 578.446C1704.62 543.66 1691.94 532.259 1690.55 527.874C1689.02 524.756 1687.56 519.3 1687.56 519.3L1688.55 616.058C1688.55 616.156 1686.5 645.681 1691.74 649.287Z" fill="#499D4A"/>
<path fill-rule="evenodd" clip-rule="evenodd" d="M1686.16 650.553C1686.16 650.553 1663.79 628.141 1665.12 588.678C1666.38 549.214 1682.18 529.823 1685.23 526.315C1687.23 523.197 1687.29 522.028 1687.43 518.91C1688.82 523.295 1688.55 584.488 1688.75 591.698C1689.35 619.469 1687.69 645.292 1686.16 650.553Z" fill="white"/>
<path fill-rule="evenodd" clip-rule="evenodd" d="M1686.16 650.553C1686.16 650.553 1663.79 628.141 1665.12 588.678C1666.38 549.214 1682.18 529.823 1685.23 526.315C1687.23 523.197 1687.29 522.028 1687.43 518.91C1688.82 523.295 1688.55 584.488 1688.75 591.698C1689.35 619.469 1687.69 645.292 1686.16 650.553Z" fill="#58AA50"/>
<mask id="path-84-inside-1" fill="white">
<path d="M2141.15 631.426V587.083H2194.75V584.49H2141.15V544.037H2198.14V541.443H2138.64V634.019H2198.64V631.426H2141.15ZM2246.97 567.375L2224.75 597.585L2203.03 567.375H2199.77L2223.24 599.53L2197.51 634.019H2200.52L2224.75 601.475L2249.1 634.019H2252.24L2226.38 599.53L2249.98 567.375H2246.97ZM2259.77 656.839V615.348H2260.02C2261.53 621.399 2264.5 626.261 2268.93 629.935C2273.37 633.608 2279.02 635.445 2285.88 635.445C2290.31 635.445 2294.25 634.516 2297.68 632.658C2301.11 630.799 2303.97 628.271 2306.28 625.073C2308.58 621.874 2310.33 618.158 2311.55 613.922C2312.76 609.687 2313.37 605.235 2313.37 600.567C2313.37 595.554 2312.74 590.929 2311.48 586.694C2310.23 582.458 2308.41 578.785 2306.02 575.673C2303.64 572.561 2300.75 570.141 2297.36 568.412C2293.97 566.683 2290.15 565.819 2285.88 565.819C2282.61 565.819 2279.58 566.316 2276.78 567.31C2273.97 568.304 2271.49 569.709 2269.31 571.524C2267.13 573.339 2265.25 575.479 2263.66 577.942C2262.07 580.406 2260.86 583.107 2260.02 586.046H2259.77V567.375H2257.26V656.839H2259.77ZM2285.88 632.982C2278.01 632.982 2271.69 630.194 2266.92 624.619C2262.15 619.043 2259.77 611.026 2259.77 600.567C2259.77 596.245 2260.36 592.14 2261.53 588.25C2262.7 584.36 2264.39 580.946 2266.61 578.007C2268.83 575.068 2271.57 572.734 2274.83 571.005C2278.1 569.277 2281.78 568.412 2285.88 568.412C2290.06 568.412 2293.72 569.277 2296.86 571.005C2300 572.734 2302.59 575.09 2304.64 578.072C2306.69 581.054 2308.24 584.468 2309.29 588.315C2310.33 592.161 2310.86 596.245 2310.86 600.567C2310.86 604.457 2310.38 608.325 2309.41 612.172C2308.45 616.018 2306.97 619.476 2304.96 622.544C2302.95 625.613 2300.38 628.119 2297.24 630.064C2294.1 632.009 2290.31 632.982 2285.88 632.982ZM2327.17 634.019V596.289C2327.17 592.658 2327.68 589.114 2328.68 585.657C2329.68 582.199 2331.23 579.152 2333.33 576.516C2335.42 573.879 2338.07 571.805 2341.3 570.292C2344.52 568.78 2348.35 568.153 2352.78 568.412V565.819C2348.93 565.733 2345.56 566.165 2342.68 567.116C2339.79 568.066 2337.3 569.363 2335.21 571.005C2333.12 572.648 2331.44 574.571 2330.19 576.775C2328.93 578.979 2328.01 581.335 2327.43 583.841H2327.17V567.375H2324.66V634.019H2327.17ZM2355.92 601.216H2409.89C2410.06 596.634 2409.62 592.226 2408.57 587.991C2407.53 583.755 2405.86 579.995 2403.55 576.71C2401.25 573.426 2398.28 570.789 2394.64 568.801C2391 566.813 2386.67 565.819 2381.65 565.819C2378.05 565.819 2374.54 566.597 2371.11 568.153C2367.68 569.709 2364.66 571.978 2362.07 574.96C2359.48 577.942 2357.38 581.594 2355.79 585.916C2354.2 590.238 2353.41 595.165 2353.41 600.697C2353.41 605.624 2353.95 610.227 2355.04 614.505C2356.13 618.784 2357.8 622.501 2360.06 625.656C2362.32 628.811 2365.23 631.253 2368.78 632.982C2372.34 634.71 2376.63 635.532 2381.65 635.445C2389.01 635.445 2395.21 633.306 2400.23 629.027C2405.25 624.748 2408.22 618.719 2409.14 610.94H2406.63C2405.54 618.287 2402.76 623.798 2398.28 627.471C2393.81 631.145 2388.18 632.982 2381.4 632.982C2376.8 632.982 2372.91 632.16 2369.73 630.518C2366.55 628.876 2363.95 626.628 2361.94 623.776C2359.94 620.923 2358.45 617.574 2357.49 613.728C2356.53 609.881 2356 605.71 2355.92 601.216ZM2407.38 598.622H2355.92C2356.17 593.955 2357.01 589.763 2358.43 586.046C2359.85 582.329 2361.71 579.152 2364.01 576.516C2366.32 573.879 2368.99 571.87 2372.05 570.487C2375.1 569.104 2378.39 568.412 2381.9 568.412C2386.09 568.412 2389.77 569.212 2392.95 570.811C2396.13 572.41 2398.78 574.593 2400.92 577.359C2403.05 580.125 2404.66 583.344 2405.75 587.018C2406.84 590.692 2407.38 594.56 2407.38 598.622ZM2461.98 587.083H2464.49C2464.49 579.649 2462.4 574.247 2458.22 570.876C2454.03 567.505 2448.34 565.819 2441.15 565.819C2437.13 565.819 2433.74 566.338 2430.98 567.375C2428.22 568.412 2425.96 569.752 2424.2 571.394C2422.44 573.037 2421.19 574.852 2420.44 576.84C2419.68 578.828 2419.31 580.73 2419.31 582.545C2419.31 586.175 2419.93 589.071 2421.19 591.232C2422.44 593.393 2424.41 595.078 2427.09 596.289C2428.93 597.153 2431.02 597.931 2433.37 598.622C2435.71 599.314 2438.43 600.049 2441.52 600.827C2444.29 601.518 2447.01 602.21 2449.68 602.901C2452.36 603.593 2454.72 604.522 2456.77 605.689C2458.83 606.856 2460.5 608.347 2461.8 610.162C2463.09 611.977 2463.74 614.354 2463.74 617.293C2463.74 620.146 2463.09 622.566 2461.8 624.554C2460.5 626.542 2458.85 628.163 2456.84 629.416C2454.83 630.669 2452.59 631.577 2450.12 632.139C2447.65 632.701 2445.25 632.982 2442.9 632.982C2435.29 632.982 2429.45 631.231 2425.39 627.731C2421.34 624.23 2419.31 618.719 2419.31 611.199H2416.8C2416.8 619.584 2418.99 625.721 2423.39 629.611C2427.78 633.5 2434.29 635.445 2442.9 635.445C2445.67 635.445 2448.45 635.121 2451.25 634.473C2454.06 633.824 2456.57 632.766 2458.78 631.296C2461 629.827 2462.8 627.925 2464.18 625.591C2465.56 623.257 2466.25 620.405 2466.25 617.034C2466.25 613.836 2465.65 611.242 2464.43 609.254C2463.22 607.266 2461.63 605.624 2459.66 604.327C2457.7 603.031 2455.48 602.015 2453.01 601.28C2450.54 600.546 2448.05 599.833 2445.54 599.141C2442.03 598.19 2438.95 597.369 2436.31 596.678C2433.68 595.986 2431.23 595.165 2428.97 594.214C2426.8 593.263 2425.06 591.902 2423.76 590.13C2422.47 588.358 2421.82 585.83 2421.82 582.545C2421.82 581.94 2421.98 580.859 2422.32 579.303C2422.65 577.748 2423.45 576.17 2424.7 574.571C2425.96 572.972 2427.88 571.546 2430.48 570.292C2433.07 569.039 2436.63 568.412 2441.15 568.412C2444.24 568.412 2447.07 568.758 2449.62 569.449C2452.17 570.141 2454.37 571.243 2456.21 572.756C2458.05 574.268 2459.47 576.192 2460.48 578.526C2461.48 580.859 2461.98 583.712 2461.98 587.083ZM2520.1 587.083H2522.61C2522.61 579.649 2520.52 574.247 2516.33 570.876C2512.15 567.505 2506.46 565.819 2499.26 565.819C2495.25 565.819 2491.86 566.338 2489.1 567.375C2486.34 568.412 2484.08 569.752 2482.32 571.394C2480.56 573.037 2479.31 574.852 2478.55 576.84C2477.8 578.828 2477.42 580.73 2477.42 582.545C2477.42 586.175 2478.05 589.071 2479.31 591.232C2480.56 593.393 2482.53 595.078 2485.21 596.289C2487.05 597.153 2489.14 597.931 2491.48 598.622C2493.82 599.314 2496.54 600.049 2499.64 600.827C2502.4 601.518 2505.12 602.21 2507.8 602.901C2510.48 603.593 2512.84 604.522 2514.89 605.689C2516.94 606.856 2518.61 608.347 2519.91 610.162C2521.21 611.977 2521.86 614.354 2521.86 617.293C2521.86 620.146 2521.21 622.566 2519.91 624.554C2518.61 626.542 2516.96 628.163 2514.95 629.416C2512.95 630.669 2510.71 631.577 2508.24 632.139C2505.77 632.701 2503.36 632.982 2501.02 632.982C2493.41 632.982 2487.57 631.231 2483.51 627.731C2479.45 624.23 2477.42 618.719 2477.42 611.199H2474.91C2474.91 619.584 2477.11 625.721 2481.5 629.611C2485.9 633.5 2492.4 635.445 2501.02 635.445C2503.78 635.445 2506.56 635.121 2509.37 634.473C2512.17 633.824 2514.68 632.766 2516.9 631.296C2519.12 629.827 2520.92 627.925 2522.3 625.591C2523.68 623.257 2524.37 620.405 2524.37 617.034C2524.37 613.836 2523.76 611.242 2522.55 609.254C2521.33 607.266 2519.74 605.624 2517.78 604.327C2515.81 603.031 2513.59 602.015 2511.13 601.28C2508.66 600.546 2506.17 599.833 2503.66 599.141C2500.14 598.19 2497.07 597.369 2494.43 596.678C2491.8 595.986 2489.35 595.165 2487.09 594.214C2484.91 593.263 2483.18 591.902 2481.88 590.13C2480.58 588.358 2479.93 585.83 2479.93 582.545C2479.93 581.94 2480.1 580.859 2480.44 579.303C2480.77 577.748 2481.57 576.17 2482.82 574.571C2484.08 572.972 2486 571.546 2488.59 570.292C2491.19 569.039 2494.74 568.412 2499.26 568.412C2502.36 568.412 2505.18 568.758 2507.74 569.449C2510.29 570.141 2512.49 571.243 2514.33 572.756C2516.17 574.268 2517.59 576.192 2518.59 578.526C2519.6 580.859 2520.1 583.712 2520.1 587.083Z"/>
</mask>
<path d="M2141.15 631.426V587.083H2194.75V584.49H2141.15V544.037H2198.14V541.443H2138.64V634.019H2198.64V631.426H2141.15ZM2246.97 567.375L2224.75 597.585L2203.03 567.375H2199.77L2223.24 599.53L2197.51 634.019H2200.52L2224.75 601.475L2249.1 634.019H2252.24L2226.38 599.53L2249.98 567.375H2246.97ZM2259.77 656.839V615.348H2260.02C2261.53 621.399 2264.5 626.261 2268.93 629.935C2273.37 633.608 2279.02 635.445 2285.88 635.445C2290.31 635.445 2294.25 634.516 2297.68 632.658C2301.11 630.799 2303.97 628.271 2306.28 625.073C2308.58 621.874 2310.33 618.158 2311.55 613.922C2312.76 609.687 2313.37 605.235 2313.37 600.567C2313.37 595.554 2312.74 590.929 2311.48 586.694C2310.23 582.458 2308.41 578.785 2306.02 575.673C2303.64 572.561 2300.75 570.141 2297.36 568.412C2293.97 566.683 2290.15 565.819 2285.88 565.819C2282.61 565.819 2279.58 566.316 2276.78 567.31C2273.97 568.304 2271.49 569.709 2269.31 571.524C2267.13 573.339 2265.25 575.479 2263.66 577.942C2262.07 580.406 2260.86 583.107 2260.02 586.046H2259.77V567.375H2257.26V656.839H2259.77ZM2285.88 632.982C2278.01 632.982 2271.69 630.194 2266.92 624.619C2262.15 619.043 2259.77 611.026 2259.77 600.567C2259.77 596.245 2260.36 592.14 2261.53 588.25C2262.7 584.36 2264.39 580.946 2266.61 578.007C2268.83 575.068 2271.57 572.734 2274.83 571.005C2278.1 569.277 2281.78 568.412 2285.88 568.412C2290.06 568.412 2293.72 569.277 2296.86 571.005C2300 572.734 2302.59 575.09 2304.64 578.072C2306.69 581.054 2308.24 584.468 2309.29 588.315C2310.33 592.161 2310.86 596.245 2310.86 600.567C2310.86 604.457 2310.38 608.325 2309.41 612.172C2308.45 616.018 2306.97 619.476 2304.96 622.544C2302.95 625.613 2300.38 628.119 2297.24 630.064C2294.1 632.009 2290.31 632.982 2285.88 632.982ZM2327.17 634.019V596.289C2327.17 592.658 2327.68 589.114 2328.68 585.657C2329.68 582.199 2331.23 579.152 2333.33 576.516C2335.42 573.879 2338.07 571.805 2341.3 570.292C2344.52 568.78 2348.35 568.153 2352.78 568.412V565.819C2348.93 565.733 2345.56 566.165 2342.68 567.116C2339.79 568.066 2337.3 569.363 2335.21 571.005C2333.12 572.648 2331.44 574.571 2330.19 576.775C2328.93 578.979 2328.01 581.335 2327.43 583.841H2327.17V567.375H2324.66V634.019H2327.17ZM2355.92 601.216H2409.89C2410.06 596.634 2409.62 592.226 2408.57 587.991C2407.53 583.755 2405.86 579.995 2403.55 576.71C2401.25 573.426 2398.28 570.789 2394.64 568.801C2391 566.813 2386.67 565.819 2381.65 565.819C2378.05 565.819 2374.54 566.597 2371.11 568.153C2367.68 569.709 2364.66 571.978 2362.07 574.96C2359.48 577.942 2357.38 581.594 2355.79 585.916C2354.2 590.238 2353.41 595.165 2353.41 600.697C2353.41 605.624 2353.95 610.227 2355.04 614.505C2356.13 618.784 2357.8 622.501 2360.06 625.656C2362.32 628.811 2365.23 631.253 2368.78 632.982C2372.34 634.71 2376.63 635.532 2381.65 635.445C2389.01 635.445 2395.21 633.306 2400.23 629.027C2405.25 624.748 2408.22 618.719 2409.14 610.94H2406.63C2405.54 618.287 2402.76 623.798 2398.28 627.471C2393.81 631.145 2388.18 632.982 2381.4 632.982C2376.8 632.982 2372.91 632.16 2369.73 630.518C2366.55 628.876 2363.95 626.628 2361.94 623.776C2359.94 620.923 2358.45 617.574 2357.49 613.728C2356.53 609.881 2356 605.71 2355.92 601.216ZM2407.38 598.622H2355.92C2356.17 593.955 2357.01 589.763 2358.43 586.046C2359.85 582.329 2361.71 579.152 2364.01 576.516C2366.32 573.879 2368.99 571.87 2372.05 570.487C2375.1 569.104 2378.39 568.412 2381.9 568.412C2386.09 568.412 2389.77 569.212 2392.95 570.811C2396.13 572.41 2398.78 574.593 2400.92 577.359C2403.05 580.125 2404.66 583.344 2405.75 587.018C2406.84 590.692 2407.38 594.56 2407.38 598.622ZM2461.98 587.083H2464.49C2464.49 579.649 2462.4 574.247 2458.22 570.876C2454.03 567.505 2448.34 565.819 2441.15 565.819C2437.13 565.819 2433.74 566.338 2430.98 567.375C2428.22 568.412 2425.96 569.752 2424.2 571.394C2422.44 573.037 2421.19 574.852 2420.44 576.84C2419.68 578.828 2419.31 580.73 2419.31 582.545C2419.31 586.175 2419.93 589.071 2421.19 591.232C2422.44 593.393 2424.41 595.078 2427.09 596.289C2428.93 597.153 2431.02 597.931 2433.37 598.622C2435.71 599.314 2438.43 600.049 2441.52 600.827C2444.29 601.518 2447.01 602.21 2449.68 602.901C2452.36 603.593 2454.72 604.522 2456.77 605.689C2458.83 606.856 2460.5 608.347 2461.8 610.162C2463.09 611.977 2463.74 614.354 2463.74 617.293C2463.74 620.146 2463.09 622.566 2461.8 624.554C2460.5 626.542 2458.85 628.163 2456.84 629.416C2454.83 630.669 2452.59 631.577 2450.12 632.139C2447.65 632.701 2445.25 632.982 2442.9 632.982C2435.29 632.982 2429.45 631.231 2425.39 627.731C2421.34 624.23 2419.31 618.719 2419.31 611.199H2416.8C2416.8 619.584 2418.99 625.721 2423.39 629.611C2427.78 633.5 2434.29 635.445 2442.9 635.445C2445.67 635.445 2448.45 635.121 2451.25 634.473C2454.06 633.824 2456.57 632.766 2458.78 631.296C2461 629.827 2462.8 627.925 2464.18 625.591C2465.56 623.257 2466.25 620.405 2466.25 617.034C2466.25 613.836 2465.65 611.242 2464.43 609.254C2463.22 607.266 2461.63 605.624 2459.66 604.327C2457.7 603.031 2455.48 602.015 2453.01 601.28C2450.54 600.546 2448.05 599.833 2445.54 599.141C2442.03 598.19 2438.95 597.369 2436.31 596.678C2433.68 595.986 2431.23 595.165 2428.97 594.214C2426.8 593.263 2425.06 591.902 2423.76 590.13C2422.47 588.358 2421.82 585.83 2421.82 582.545C2421.82 581.94 2421.98 580.859 2422.32 579.303C2422.65 577.748 2423.45 576.17 2424.7 574.571C2425.96 572.972 2427.88 571.546 2430.48 570.292C2433.07 569.039 2436.63 568.412 2441.15 568.412C2444.24 568.412 2447.07 568.758 2449.62 569.449C2452.17 570.141 2454.37 571.243 2456.21 572.756C2458.05 574.268 2459.47 576.192 2460.48 578.526C2461.48 580.859 2461.98 583.712 2461.98 587.083ZM2520.1 587.083H2522.61C2522.61 579.649 2520.52 574.247 2516.33 570.876C2512.15 567.505 2506.46 565.819 2499.26 565.819C2495.25 565.819 2491.86 566.338 2489.1 567.375C2486.34 568.412 2484.08 569.752 2482.32 571.394C2480.56 573.037 2479.31 574.852 2478.55 576.84C2477.8 578.828 2477.42 580.73 2477.42 582.545C2477.42 586.175 2478.05 589.071 2479.31 591.232C2480.56 593.393 2482.53 595.078 2485.21 596.289C2487.05 597.153 2489.14 597.931 2491.48 598.622C2493.82 599.314 2496.54 600.049 2499.64 600.827C2502.4 601.518 2505.12 602.21 2507.8 602.901C2510.48 603.593 2512.84 604.522 2514.89 605.689C2516.94 606.856 2518.61 608.347 2519.91 610.162C2521.21 611.977 2521.86 614.354 2521.86 617.293C2521.86 620.146 2521.21 622.566 2519.91 624.554C2518.61 626.542 2516.96 628.163 2514.95 629.416C2512.95 630.669 2510.71 631.577 2508.24 632.139C2505.77 632.701 2503.36 632.982 2501.02 632.982C2493.41 632.982 2487.57 631.231 2483.51 627.731C2479.45 624.23 2477.42 618.719 2477.42 611.199H2474.91C2474.91 619.584 2477.11 625.721 2481.5 629.611C2485.9 633.5 2492.4 635.445 2501.02 635.445C2503.78 635.445 2506.56 635.121 2509.37 634.473C2512.17 633.824 2514.68 632.766 2516.9 631.296C2519.12 629.827 2520.92 627.925 2522.3 625.591C2523.68 623.257 2524.37 620.405 2524.37 617.034C2524.37 613.836 2523.76 611.242 2522.55 609.254C2521.33 607.266 2519.74 605.624 2517.78 604.327C2515.81 603.031 2513.59 602.015 2511.13 601.28C2508.66 600.546 2506.17 599.833 2503.66 599.141C2500.14 598.19 2497.07 597.369 2494.43 596.678C2491.8 595.986 2489.35 595.165 2487.09 594.214C2484.91 593.263 2483.18 591.902 2481.88 590.13C2480.58 588.358 2479.93 585.83 2479.93 582.545C2479.93 581.94 2480.1 580.859 2480.44 579.303C2480.77 577.748 2481.57 576.17 2482.82 574.571C2484.08 572.972 2486 571.546 2488.59 570.292C2491.19 569.039 2494.74 568.412 2499.26 568.412C2502.36 568.412 2505.18 568.758 2507.74 569.449C2510.29 570.141 2512.49 571.243 2514.33 572.756C2516.17 574.268 2517.59 576.192 2518.59 578.526C2519.6 580.859 2520.1 583.712 2520.1 587.083Z" fill="#222222" stroke="black" stroke-width="200" mask="url(#path-84-inside-1)"/>
<defs>
<linearGradient id="paint0_linear" x1="2258.12" y1="166.185" x2="2214.18" y2="232.411" gradientUnits="userSpaceOnUse">
<stop stop-color="#41873F"/>
<stop offset="0.3288" stop-color="#418B3D"/>
<stop offset="0.6352" stop-color="#419637"/>
<stop offset="0.9319" stop-color="#3FA92D"/>
<stop offset="1" stop-color="#3FAE2A"/>
</linearGradient>
<linearGradient id="paint1_linear" x1="2236.98" y1="204.231" x2="2342.69" y2="149.136" gradientUnits="userSpaceOnUse">
<stop offset="0.1376" stop-color="#41873F"/>
<stop offset="0.4032" stop-color="#54A044"/>
<stop offset="0.7136" stop-color="#66B848"/>
<stop offset="0.9081" stop-color="#6CC04A"/>
</linearGradient>
<linearGradient id="paint2_linear" x1="2198.99" y1="198.892" x2="2286.48" y2="198.892" gradientUnits="userSpaceOnUse">
<stop offset="0.0919165" stop-color="#6CC04A"/>
<stop offset="0.2864" stop-color="#66B848"/>
<stop offset="0.5968" stop-color="#54A044"/>
<stop offset="0.8624" stop-color="#41873F"/>
</linearGradient>
<linearGradient id="paint3_linear" x1="2198.99" y1="236.695" x2="2286.48" y2="236.695" gradientUnits="userSpaceOnUse">
<stop offset="0.0919165" stop-color="#6CC04A"/>
<stop offset="0.2864" stop-color="#66B848"/>
<stop offset="0.5968" stop-color="#54A044"/>
<stop offset="0.8624" stop-color="#41873F"/>
</linearGradient>
<linearGradient id="paint4_linear" x1="2299.22" y1="164.03" x2="2275.21" y2="284.729" gradientUnits="userSpaceOnUse">
<stop stop-color="#41873F"/>
<stop offset="0.3288" stop-color="#418B3D"/>
<stop offset="0.6352" stop-color="#419637"/>
<stop offset="0.9319" stop-color="#3FA92D"/>
<stop offset="1" stop-color="#3FAE2A"/>
</linearGradient>
<clipPath id="clip0">
<rect x="951.521" y="76.116" width="287.084" height="265.243" fill="white"/>
</clipPath>
<clipPath id="clip1">
<rect x="305.521" y="0.68335" width="260.169" height="345.023" fill="white"/>
</clipPath>
<clipPath id="clip2">
<rect x="1664.83" y="113.832" width="350.628" height="207.923" fill="white"/>
</clipPath>
<clipPath id="clip3">
<rect x="2095.84" y="90.6223" width="397.848" height="254.343" fill="white"/>
</clipPath>
<clipPath id="clip4">
<rect x="589.842" y="67.4122" width="322.278" height="264.716" fill="white"/>
</clipPath>
<clipPath id="clip5">
<rect x="0.994537" y="469.323" width="344.6" height="331.389" fill="white"/>
</clipPath>
<clipPath id="clip6">
<rect x="1292.43" y="496.376" width="287.083" height="198.932" fill="white"/>
</clipPath>
</defs>
</svg>
