<svg width="700" height="300" viewBox="0 0 700 300" fill="none" xmlns="http://www.w3.org/2000/svg">
<g clip-path="url(#clip0)">
<path d="M289.457 54.0119C288.73 53.7067 287.978 53.4179 287.203 53.1448C287.33 52.5103 287.447 51.8839 287.551 51.2682C289.257 41.1584 288.141 33.0138 284.332 30.3322C280.679 27.761 274.705 30.4419 268.672 36.8511C268.092 37.4674 267.51 38.1199 266.928 38.8038C266.541 38.3513 266.154 37.9141 265.768 37.4958C259.445 30.6427 253.107 27.7547 249.301 30.444C245.652 33.0227 244.571 40.6794 246.107 50.2606C246.256 51.1861 246.429 52.1312 246.625 53.092C245.728 53.4029 244.862 53.7342 244.033 54.0867C236.62 57.2416 231.886 62.186 231.886 67.3146C231.886 72.6115 236.968 77.9244 244.69 81.1459C245.299 81.4001 245.931 81.6405 246.583 81.8687C246.371 82.9079 246.187 83.9263 246.033 84.9196C244.568 94.3346 245.712 101.81 249.352 104.373C253.111 107.019 259.42 104.299 265.564 97.7438C266.05 97.2256 266.537 96.6761 267.025 96.1001C267.658 96.8439 268.29 97.5478 268.918 98.2081C274.869 104.459 280.746 106.983 284.383 104.413C288.138 101.76 289.359 93.7288 287.774 83.958C287.653 83.2118 287.512 82.4494 287.354 81.6735C287.797 81.5136 288.232 81.3486 288.656 81.1769C296.683 77.9305 301.906 72.6823 301.906 67.3146C301.906 62.1674 297.019 57.1897 289.457 54.0119ZM287.716 77.7111C287.333 77.8659 286.94 78.0154 286.54 78.1604C285.653 74.736 284.457 71.0946 282.994 67.3324C284.39 63.6599 285.54 60.065 286.402 56.6628C287.118 56.9158 287.813 57.1827 288.483 57.4643C294.962 60.1871 298.915 64.2127 298.915 67.3146C298.915 70.6187 294.646 74.9079 287.716 77.7111ZM284.84 84.6671C285.54 88.9876 285.641 92.8938 285.176 95.9475C284.759 98.6914 283.921 100.521 282.884 101.254C280.677 102.813 275.958 100.786 270.869 95.4403C270.285 94.8275 269.698 94.1732 269.108 93.4806C271.081 90.8467 273.053 87.7847 274.978 84.384C278.363 84.0173 281.561 83.4179 284.461 82.5996C284.604 83.3029 284.73 83.9927 284.84 84.6671ZM255.757 100.984C253.601 101.914 251.884 101.94 250.846 101.21C248.638 99.6546 247.719 93.6522 248.972 85.6006C249.115 84.6785 249.286 83.7313 249.483 82.7631C252.351 83.5373 255.526 84.0945 258.919 84.4302C260.856 87.7579 262.885 90.8166 264.93 93.4948C264.483 94.0212 264.038 94.5223 263.596 94.9945C260.879 97.8932 258.157 99.9497 255.757 100.984ZM245.657 77.6909C242.243 76.2665 239.423 74.4151 237.49 72.3949C235.754 70.5795 234.877 68.7771 234.877 67.3146C234.877 64.2024 238.678 60.2327 245.018 57.5346C245.787 57.2072 246.593 56.8986 247.428 56.6088C248.304 60.0879 249.454 63.7253 250.841 67.4035C249.436 71.1363 248.27 74.8317 247.385 78.3515C246.79 78.1424 246.212 77.9225 245.657 77.6909ZM249.043 49.5595C247.727 41.3505 248.601 35.158 250.8 33.6041C253.142 31.9487 258.322 34.3089 263.782 40.2262C264.131 40.6044 264.481 41.0003 264.833 41.4098C262.798 44.0763 260.788 47.112 258.868 50.4201C255.575 50.7927 252.422 51.3912 249.524 52.1926C249.342 51.2979 249.18 50.4189 249.043 49.5595ZM279.246 58.6631C278.553 57.2023 277.842 55.776 277.117 54.3887C279.351 54.7334 281.492 55.1911 283.502 55.7511C282.898 58.1119 282.146 60.5803 281.261 63.1108C280.626 61.6389 279.954 60.1548 279.246 58.6631ZM266.929 44.0193C268.309 45.8438 269.691 47.8809 271.05 50.0912C269.68 50.0122 268.294 49.9711 266.896 49.9711C265.511 49.9711 264.135 50.0113 262.774 50.0889C264.134 47.8992 265.528 45.8648 266.929 44.0193ZM254.534 58.6884C253.841 60.1533 253.182 61.6293 252.557 63.1081C251.686 60.5864 250.941 58.1068 250.332 55.7124C252.33 55.1667 254.46 54.7205 256.68 54.3823C255.945 55.7824 255.228 57.2192 254.534 58.6881V58.6884ZM256.744 80.5074C254.45 80.1951 252.288 79.7718 250.291 79.2412C250.909 76.8041 251.671 74.2715 252.56 71.6955C253.187 73.1732 253.849 74.6499 254.545 76.118H254.545C255.255 77.6136 255.99 79.0787 256.744 80.5074ZM267.012 90.8674C265.594 89.0002 264.18 86.9348 262.799 84.7132C264.14 84.7774 265.507 84.8103 266.896 84.8103C268.323 84.8103 269.734 84.771 271.123 84.6955C269.759 86.9572 268.383 89.0258 267.012 90.8674ZM281.289 71.5642C282.225 74.168 283.014 76.6874 283.64 79.0829C281.61 79.6483 279.418 80.1036 277.109 80.442C277.836 79.0359 278.553 77.5852 279.258 76.0929C279.972 74.5831 280.649 73.071 281.289 71.5642ZM276.667 74.2688C275.573 76.5853 274.449 78.7968 273.308 80.8842C271.23 81.0656 269.084 81.159 266.896 81.159C264.717 81.159 262.597 81.0764 260.556 80.9147C259.37 78.7998 258.221 76.5818 257.134 74.2887H257.134C256.049 72.0018 255.051 69.6956 254.147 67.4023C255.051 65.1036 256.047 62.7948 257.125 60.512L257.125 60.5125C258.206 58.2236 259.344 56.0164 260.52 53.9148C262.602 53.7227 264.738 53.6224 266.896 53.6224H266.896C269.064 53.6224 271.202 53.7234 273.284 53.9172C274.442 56.0035 275.572 58.2035 276.657 60.4927C277.755 62.8076 278.764 65.101 279.676 67.3504C278.767 69.6383 277.76 71.9549 276.667 74.2688ZM282.838 33.4954C285.183 35.1459 286.094 41.8025 284.621 50.5313C284.527 51.0883 284.421 51.6556 284.307 52.2305C281.402 51.4123 278.247 50.8035 274.944 50.4253C273.02 47.0809 271.027 44.0404 269.025 41.4082C269.563 40.7763 270.101 40.1739 270.636 39.6054C275.805 34.114 280.637 31.9459 282.838 33.4954ZM266.896 59.6824C270.349 59.6824 273.149 63.0994 273.149 67.3146C273.149 71.5297 270.349 74.9468 266.896 74.9468C263.443 74.9468 260.643 71.5297 260.643 67.3146C260.643 63.0994 263.443 59.6824 266.896 59.6824Z" fill="#00D8FF"/>
</g>
<g clip-path="url(#clip1)">
<path d="M106.207 111.117L80.3829 102.21L74.6281 22.014H137.863L132.102 102.198L106.207 111.117Z" fill="#264DE4"/>
<path d="M127.17 97.0919L132.093 28.5713H106.245V104.3L127.17 97.0919Z" fill="#2965F1"/>
<path d="M87.8204 58.3149L88.53 68.1506H106.245V58.3149H87.8204Z" fill="#EBEBEB"/>
<path d="M86.3948 38.4071L87.1144 48.2429H106.245V38.4071H86.3948Z" fill="#EBEBEB"/>
<path d="M106.245 83.8594L106.211 83.8709L97.3941 80.9131L96.8305 73.0686H88.8837L89.9928 88.5121L106.209 94.1053L106.245 94.0927V83.8594Z" fill="#EBEBEB"/>
<path d="M89.5097 0.220215H99.0978V5.20193H93.5193V10.1836H99.0978V15.1653H89.5097V0.220215Z" fill="black"/>
<path d="M101.015 0.220215H110.604V4.55214H105.025V5.41852H110.604V15.3819H101.015V10.8334H106.594V9.96704H101.015V0.220215Z" fill="black"/>
<path d="M112.521 0.220215H122.109V4.55214H116.531V5.41852H122.109V15.3819H112.521V10.8334H118.1V9.96704H112.521V0.220215Z" fill="black"/>
<path d="M124.619 58.3149L126.049 38.4071H106.218V48.243H117.373L116.653 58.3149H106.218V68.1505H115.966L115.047 80.9067L106.218 83.8676V94.1005L122.447 88.5121L122.566 86.8504L124.426 60.9561L124.619 58.3149Z" fill="white"/>
</g>
<g clip-path="url(#clip2)">
<path d="M426.335 54.0594H442.481V55.7242H427.815V68.2544H441.607V69.9193H427.815V83.6762H442.65V85.341H426.335V54.0594ZM443.928 54.0594H445.644L453.246 67.8163L461.017 54.0594L471.586 36.585L454.222 69.2621L463.17 85.341H461.387L453.246 70.7079L445.072 85.341H443.322L452.338 69.2621L443.928 54.0594ZM463.809 55.7242V54.0594H482.209V55.7242H473.732V85.341H472.252V55.7242H463.809ZM406.134 54.0594H407.985L433.497 103.585L422.954 85.341L407.682 56.4252L407.614 85.341H406.134V54.0594ZM482.06 83.1737C481.758 83.1737 481.531 82.8698 481.531 82.477C481.531 82.0842 481.758 81.7802 482.06 81.7802C482.366 81.7802 482.589 82.0842 482.589 82.477C482.589 82.8698 482.366 83.1737 482.06 83.1737ZM483.515 81.3407H484.307C484.317 81.8972 484.631 82.2712 485.091 82.2712C485.606 82.2712 485.898 81.8691 485.898 81.1162V76.3465H486.704V81.1209C486.704 82.477 486.099 83.2579 485.099 83.2579C484.159 83.2579 483.515 82.5004 483.515 81.3407ZM487.759 81.2799H488.558C488.627 81.9205 489.109 82.3274 489.804 82.3274C490.452 82.3274 490.927 81.8925 490.927 81.2939C490.927 80.7795 490.625 80.4709 489.937 80.2605L489.267 80.0501C488.328 79.7648 487.899 79.1756 487.899 78.1843C487.899 76.9825 488.655 76.1829 489.789 76.1829C490.844 76.1829 491.615 76.9825 491.661 78.1188H490.877C490.801 77.4969 490.383 77.1087 489.779 77.1087C489.141 77.1087 488.717 77.5062 488.717 78.1141C488.717 78.5958 488.99 78.8717 489.667 79.0774L490.239 79.2598C491.305 79.5824 491.744 80.1436 491.744 81.1583C491.744 82.4489 490.974 83.2579 489.743 83.2579C488.591 83.2579 487.817 82.4864 487.759 81.2799Z" fill="black"/>
</g>
<g clip-path="url(#clip3)">
<path d="M533.547 119.957C533.26 119.957 532.993 119.837 532.744 119.626L530.203 117.246C529.821 116.915 530.012 116.794 530.127 116.734C530.643 116.463 530.738 116.402 531.273 115.92C531.331 115.86 531.407 115.89 531.464 115.95L533.413 117.788C533.489 117.848 533.585 117.848 533.642 117.788L541.265 110.829C541.341 110.769 541.38 110.648 541.38 110.498V96.6096C541.38 96.4589 541.341 96.3384 541.265 96.2782L533.642 89.3492C533.566 89.2889 533.47 89.2889 533.413 89.3492L525.79 96.2782C525.714 96.3384 525.676 96.489 525.676 96.6096V110.498C525.676 110.618 525.714 110.769 525.79 110.829L527.873 112.727C529 113.631 529.707 112.576 529.707 111.522V97.8146C529.707 97.6338 529.802 97.4531 529.936 97.4531H530.91C531.025 97.4531 531.14 97.6037 531.14 97.8146V111.522C531.14 113.902 530.318 115.288 528.885 115.288C528.446 115.288 528.102 115.288 527.128 114.535L525.122 112.727C524.625 112.275 524.319 111.432 524.319 110.528V96.6397C524.319 95.7359 524.625 94.8924 525.122 94.4405L532.744 87.4814C533.222 87.0596 533.872 87.0596 534.349 87.4814L541.972 94.4405C542.469 94.8924 542.774 95.7359 542.774 96.6397V110.528C542.774 111.432 542.469 112.275 541.972 112.727L534.349 119.686C534.101 119.867 533.814 119.957 533.547 119.957ZM535.897 110.407C532.553 110.407 531.866 107.997 531.866 105.949C531.866 105.768 531.961 105.587 532.095 105.587H533.088C533.203 105.587 533.298 105.708 533.298 105.888C533.451 107.485 533.891 108.268 535.916 108.268C537.521 108.268 538.208 107.696 538.208 106.34C538.208 105.557 538.017 104.985 535.515 104.593C533.432 104.262 532.133 103.539 532.133 100.918C532.133 98.4774 533.432 97.0313 535.61 97.0313C538.055 97.0313 539.259 98.3569 539.412 101.249C539.412 101.339 539.393 101.43 539.355 101.52C539.316 101.58 539.259 101.641 539.202 101.641H538.208C538.113 101.641 538.017 101.52 537.998 101.369C537.769 99.7125 537.177 99.1703 535.61 99.1703C533.852 99.1703 533.642 100.134 533.642 100.857C533.642 101.731 533.891 102.002 536.26 102.484C538.609 102.966 539.718 103.659 539.718 106.25C539.698 108.901 538.323 110.407 535.897 110.407Z" fill="#539E43"/>
<path d="M509.895 65.64C509.895 65.0977 509.704 64.5856 509.398 64.3144L501.298 56.9637C501.164 56.8432 501.011 56.7829 500.858 56.7528H500.782C500.629 56.7528 500.476 56.8432 500.342 56.9637L492.242 64.3144C491.936 64.5856 491.745 65.0977 491.745 65.64L491.764 85.4027C491.764 85.6738 491.86 85.9449 492.013 86.0654C492.166 86.2161 492.357 86.2161 492.49 86.0654L497.305 81.7273C497.61 81.4561 497.802 80.944 497.802 80.4017V71.153C497.802 70.6108 497.993 70.0986 498.298 69.8275L500.342 67.9597C500.495 67.8091 500.667 67.7488 500.839 67.7488C501.011 67.7488 501.183 67.8091 501.317 67.9597L503.361 69.8275C503.667 70.0986 503.858 70.6108 503.858 71.153V80.4017C503.858 80.944 504.049 81.4561 504.354 81.7273L509.169 86.0654C509.322 86.2161 509.513 86.2161 509.666 86.0654C509.818 85.9449 509.914 85.6738 509.914 85.4027L509.895 65.64Z" fill="#333333"/>
<path d="M548.831 38.4362C548.678 38.3157 548.487 38.3157 548.353 38.4362C548.2 38.5868 548.105 38.8278 548.105 39.099V58.6809C548.105 58.8616 548.047 59.0424 547.933 59.1629C547.818 59.2533 547.703 59.2533 547.589 59.1629L545.564 57.3252C545.258 57.0541 544.895 57.0541 544.589 57.3252L536.489 64.7061C536.183 64.9772 535.992 65.4894 535.992 66.0316V80.7633C535.992 81.3055 536.183 81.8177 536.489 82.0888L544.589 89.4697C544.895 89.7408 545.258 89.7408 545.564 89.4697L553.664 82.0888C553.97 81.8177 554.161 81.3055 554.161 80.7633V44.0396C554.161 43.4672 553.97 42.9551 553.664 42.684L548.831 38.4362ZM548.085 75.913C548.085 76.0636 548.047 76.1841 547.971 76.2444L545.201 78.775C545.124 78.8352 545.029 78.8352 544.952 78.775L542.182 76.2444C542.106 76.1841 542.067 76.0335 542.067 75.913V70.8518C542.067 70.7012 542.106 70.5807 542.182 70.5204L544.952 67.9898C545.029 67.9296 545.124 67.9296 545.201 67.9898L547.971 70.5204C548.047 70.5807 548.085 70.7313 548.085 70.8518V75.913Z" fill="#333333"/>
<path d="M575.787 70.7312C576.093 70.4601 576.265 69.948 576.265 69.4057V65.8207C576.265 65.2784 576.074 64.7663 575.787 64.4951L567.744 57.1444C567.439 56.8733 567.076 56.8733 566.77 57.1444L558.67 64.5253C558.364 64.7964 558.173 65.3085 558.173 65.8508V80.5825C558.173 81.1247 558.364 81.6369 558.67 81.908L566.713 89.1383C567.018 89.4094 567.381 89.4094 567.668 89.1383L572.54 84.8604C572.692 84.7399 572.788 84.4687 572.788 84.1976C572.788 83.9264 572.692 83.6553 572.54 83.5348L564.401 76.1539C564.248 76.0033 564.153 75.7623 564.153 75.4912V70.8819C564.153 70.6107 564.248 70.3396 564.401 70.2191L566.942 67.9295C567.095 67.7789 567.286 67.7789 567.439 67.9295L569.98 70.2191C570.132 70.3697 570.228 70.6107 570.228 70.8819V74.497C570.228 74.7681 570.323 75.0393 570.476 75.1598C570.629 75.3104 570.82 75.3104 570.973 75.1598L575.787 70.7312Z" fill="#333333"/>
<path d="M567.133 70.0384C567.19 69.9781 567.267 69.9781 567.324 70.0384L568.872 71.4543C568.929 71.5145 568.967 71.6049 568.967 71.7254V74.5573C568.967 74.6778 568.929 74.7681 568.872 74.8284L567.324 76.2443C567.267 76.3046 567.19 76.3046 567.133 76.2443L565.586 74.8284C565.528 74.7681 565.49 74.6778 565.49 74.5573V71.7254C565.49 71.6049 565.528 71.5145 565.586 71.4543L567.133 70.0384Z" fill="#539E43"/>
<mask id="mask0" style="mask-type:alpha" maskUnits="userSpaceOnUse" x="513" y="57" width="19" height="33">
<path d="M523.44 57.2047C523.135 56.9336 522.772 56.9336 522.466 57.2047L514.423 64.5253C514.117 64.7965 513.945 65.3086 513.945 65.8509V80.5222C513.945 81.0645 514.136 81.5766 514.423 81.8478L522.466 89.1684C522.772 89.4395 523.135 89.4395 523.44 89.1684L531.483 81.8478C531.789 81.5766 531.961 81.0645 531.961 80.5222V65.8509C531.961 65.3086 531.77 64.7965 531.483 64.5253L523.44 57.2047Z" fill="white"/>
</mask>
<g mask="url(#mask0)">
<path d="M523.44 57.2047C523.135 56.9336 522.772 56.9336 522.466 57.2047L514.423 64.5253C514.117 64.7965 513.945 65.3086 513.945 65.8509V80.5222C513.945 81.0645 514.136 81.5766 514.423 81.8478L522.466 89.1684C522.772 89.4395 523.135 89.4395 523.44 89.1684L531.483 81.8478C531.789 81.5766 531.961 81.0645 531.961 80.5222V65.8509C531.961 65.3086 531.77 64.7965 531.483 64.5253L523.44 57.2047Z" fill="url(#paint0_linear)"/>
<path d="M531.503 64.5257L523.421 57.2051C523.345 57.1448 523.249 57.0846 523.173 57.0544L514.117 81.5168C514.194 81.6674 514.289 81.7879 514.385 81.8783L522.466 89.1989C522.695 89.4098 522.963 89.4701 523.211 89.3495L531.713 64.827C531.655 64.7065 531.579 64.6161 531.503 64.5257Z" fill="url(#paint1_linear)"/>
<path fill-rule="evenodd" clip-rule="evenodd" d="M531.522 81.8477C531.751 81.6368 531.923 81.2753 531.999 80.8837L523.135 57.0239C522.905 56.9636 522.657 56.9937 522.447 57.2046L514.423 64.4951L523.077 89.3792C523.192 89.3491 523.326 89.2888 523.44 89.1985L531.522 81.8477Z" fill="url(#paint2_linear)"/>
<path fill-rule="evenodd" clip-rule="evenodd" d="M531.522 81.8477L523.459 89.1683C523.345 89.2587 523.23 89.3189 523.096 89.3491L523.249 89.8009L532.19 81.6368V81.456L531.961 80.8535C531.923 81.2753 531.751 81.6368 531.522 81.8477Z" fill="url(#paint3_linear)"/>
<path fill-rule="evenodd" clip-rule="evenodd" d="M531.522 81.8477L523.459 89.1683C523.345 89.2587 523.23 89.3189 523.096 89.3491L523.249 89.8009L532.19 81.6368V81.456L531.961 80.8535C531.923 81.2753 531.751 81.6368 531.522 81.8477Z" fill="url(#paint4_linear)"/>
</g>
</g>
<path d="M136.951 204.356C136.632 203.054 135.794 202.146 134.711 201.928C134.201 201.826 133.616 201.869 132.924 202.061C131.717 202.396 130.822 202.524 130.169 202.549C132.635 196.947 134.639 190.559 135.793 184.547C137.659 174.824 136.662 170.395 135.497 168.391C132.413 163.089 127.914 160.24 122.486 160.152C119.59 160.105 117.048 160.874 115.722 161.427C114.487 161.134 113.16 160.971 111.767 160.94C109.156 160.884 106.849 161.65 104.878 163.225C103.786 162.728 102.035 162.028 100.012 161.581C95.2545 160.53 91.4203 161.349 88.6158 164.015C85.2197 167.244 83.6453 172.853 83.9365 180.686C84.0289 183.174 85.0629 190.741 86.6907 197.918C87.6263 202.043 88.6239 205.469 89.6559 208.1C91.1194 211.832 92.6853 214.03 94.4433 214.819C95.4288 215.261 97.219 215.57 99.1021 213.46C99.3408 213.849 99.6591 214.236 100.082 214.595C100.618 215.05 101.275 215.422 101.93 215.643C104.292 216.438 106.505 216.239 108.392 215.125C108.404 215.577 108.413 216.008 108.42 216.381C108.433 216.986 108.445 217.578 108.462 218.133C108.574 221.881 108.763 224.796 109.325 226.835C109.355 226.948 109.397 227.118 109.441 227.3C109.721 228.454 110.189 230.386 111.381 231.899C112.615 233.467 114.108 233.948 115.475 233.948C116.16 233.948 116.814 233.827 117.388 233.661C119.434 233.071 121.756 232.173 123.437 228.953C125.025 225.909 125.798 221.325 125.937 214.101C125.955 213.896 125.972 213.701 125.988 213.516C125.999 213.39 126.01 213.262 126.021 213.134L126.396 213.178L126.492 213.187C128.575 213.315 131.123 212.72 132.687 211.742C133.923 210.97 137.884 208.156 136.951 204.356Z" fill="black"/>
<path d="M133.389 205.096C127.195 206.815 126.77 203.993 126.77 203.993C133.309 190.934 136.043 174.357 133.684 170.3C127.248 159.233 116.106 164.467 115.92 164.603L115.86 164.617C114.637 164.275 113.267 164.072 111.728 164.038C108.925 163.976 106.799 165.027 105.186 166.673C105.186 166.673 85.3109 155.654 86.2353 180.531C86.4319 185.824 91.8719 220.576 98.3605 210.079C100.732 206.241 103.024 202.995 103.024 202.995C104.162 204.013 105.524 204.532 106.953 204.345L107.063 204.219C107.029 204.695 107.045 205.161 107.108 205.713C105.436 208.226 105.928 208.668 102.586 209.593C99.2049 210.531 101.191 212.201 102.488 212.637C104.06 213.166 107.698 213.916 110.155 209.286L110.057 209.814C110.712 210.52 111.172 214.406 111.095 217.928C111.018 221.451 110.966 223.87 111.482 225.759C111.998 227.648 112.513 231.898 116.906 230.632C120.576 229.573 122.478 226.83 122.743 222.254C122.931 219.001 123.355 219.482 123.382 216.574L123.723 215.197C124.116 210.787 123.786 209.365 126.047 210.026L126.597 210.091C128.261 210.193 130.439 209.731 131.718 208.931C134.471 207.212 136.104 204.341 133.389 205.096H133.389Z" fill="#336791"/>
<path d="M106.35 182.898C105.792 182.794 105.286 182.89 105.03 183.151C104.886 183.297 104.842 183.467 104.83 183.584C104.798 183.894 104.959 184.236 105.058 184.413C105.338 184.913 105.748 185.257 106.153 185.332C106.212 185.343 106.27 185.349 106.329 185.349C107.005 185.349 107.619 184.64 107.673 184.118C107.741 183.463 107.035 183.026 106.35 182.898Z" fill="white"/>
<path d="M124.841 182.919H124.841C124.788 182.406 124.109 182.259 123.465 182.38C122.822 182.5 122.198 182.891 122.25 183.405C122.292 183.805 122.829 184.488 123.464 184.488C123.518 184.488 123.572 184.483 123.626 184.473C124.05 184.394 124.361 184.032 124.509 183.823C124.734 183.504 124.865 183.15 124.841 182.919Z" fill="white"/>
<path d="M135.451 204.9C135.214 203.939 134.454 203.63 133.191 203.981C129.441 205.022 128.098 204.301 127.657 203.864C130.572 197.888 132.97 190.665 134.264 183.926C134.876 180.733 135.215 177.768 135.242 175.352C135.273 172.699 134.937 170.751 134.245 169.56C131.454 164.76 127.357 162.185 122.398 162.115C118.989 162.063 116.109 163.237 115.55 163.567C114.374 163.174 113.092 162.932 111.697 162.901C109.137 162.846 106.925 163.67 105.094 165.351C104.298 164.953 102.242 164.003 99.7278 163.458C95.3806 162.516 91.9263 163.229 89.4611 165.58C86.5197 168.384 85.1618 173.397 85.4249 180.479C85.5134 182.862 86.5222 190.192 88.1143 197.212C90.2099 206.451 92.4878 211.681 94.8847 212.757C95.1652 212.883 95.4888 212.971 95.8454 212.971C96.7198 212.971 97.7917 212.44 98.9071 210.636C100.76 207.637 102.489 205.123 103.127 204.21C104.069 204.891 105.104 205.271 106.163 205.309C106.165 205.346 106.168 205.384 106.17 205.421C105.958 205.76 105.783 206.057 105.635 206.311C104.901 207.564 104.749 207.824 102.387 208.479C101.716 208.665 99.9318 209.16 99.9058 210.843C99.8774 212.681 102.014 213.454 102.258 213.535C103.106 213.821 103.924 213.962 104.703 213.962C106.599 213.962 108.268 213.124 109.601 211.501C109.56 218.056 109.763 224.515 110.348 226.483C110.827 228.093 111.997 232.031 115.693 232.03C116.235 232.03 116.832 231.945 117.489 231.756C121.346 230.643 123.021 228.349 123.669 223.291C124.016 220.587 124.611 214.132 124.891 210.67C125.482 210.918 126.242 211.031 127.064 211.031C128.779 211.031 130.757 210.541 131.998 209.766C133.391 208.895 135.907 206.757 135.451 204.9ZM126.265 181.502C126.252 182.524 126.147 183.452 126.036 184.421C125.917 185.463 125.794 186.54 125.763 187.848C125.732 189.12 125.85 190.443 125.964 191.722C126.195 194.306 126.432 196.967 125.515 199.592C125.373 199.252 125.235 198.88 125.109 198.469C124.995 198.097 124.748 197.5 124.405 196.673C123.073 193.457 119.952 185.925 121.549 182.851C122.025 181.936 123.233 180.996 126.265 181.502ZM122.59 164.185C127.033 164.317 130.548 166.554 133.036 170.833C134.945 174.115 132.843 189.051 126.759 201.935C126.699 201.832 126.638 201.729 126.574 201.622C126.549 201.58 126.523 201.536 126.497 201.493C128.07 197.998 127.762 194.541 127.489 191.476C127.376 190.218 127.27 189.03 127.297 187.914C127.325 186.731 127.441 185.717 127.553 184.736C127.692 183.527 127.832 182.276 127.793 180.801C127.822 180.647 127.834 180.464 127.819 180.247C127.72 178.833 126.52 174.601 124.075 170.77C122.738 168.676 120.787 166.331 118.124 164.75C119.27 164.43 120.836 164.132 122.59 164.185ZM97.7268 209.315C96.4981 211.303 95.6494 210.923 95.3704 210.797C93.552 209.981 91.4424 204.81 89.5823 196.608C87.9728 189.512 87.0322 182.377 86.9578 180.376C86.7227 174.048 87.8626 169.637 90.3459 167.268C94.3872 163.411 101.032 165.719 103.701 166.89C103.663 166.941 103.623 166.989 103.585 167.04C99.2039 172.995 99.3079 183.168 99.3186 183.79C99.3182 184.03 99.3331 184.369 99.3537 184.837C99.429 186.548 99.5693 189.732 99.1946 193.339C98.8462 196.69 99.6139 199.97 101.3 202.338C101.475 202.583 101.657 202.813 101.845 203.03C101.095 204.112 99.4633 206.504 97.7268 209.315ZM102.409 200.909C101.049 199 100.432 196.346 100.715 193.625C101.11 189.815 100.964 186.497 100.886 184.714C100.875 184.465 100.865 184.246 100.859 184.074C101.499 183.31 104.465 181.171 106.58 181.824C107.546 182.121 108.134 183.006 108.378 184.527C109.644 192.404 108.546 195.687 107.664 198.325C107.482 198.868 107.31 199.382 107.163 199.914L107.05 200.324C106.762 201.363 106.494 202.329 106.328 203.246C104.883 203.24 103.477 202.41 102.409 200.909ZM102.63 211.532C102.208 211.39 101.829 211.143 101.606 210.939C101.792 210.821 102.123 210.661 102.697 210.502C105.475 209.732 105.904 209.189 106.841 207.588C107.056 207.222 107.299 206.806 107.636 206.299C107.636 206.298 107.636 206.298 107.636 206.298C108.139 205.541 108.368 205.67 108.785 205.902C109.123 206.09 109.451 206.66 109.585 207.286C109.648 207.582 109.719 208.144 109.487 208.581C107.53 212.269 104.678 212.221 102.63 211.532ZM117.167 229.736C113.769 230.716 112.566 228.383 111.773 225.715C111.261 223.993 111.01 216.228 111.188 207.652C111.191 207.538 111.179 207.428 111.155 207.324C111.135 207.124 111.104 206.922 111.06 206.718C110.795 205.47 110.148 204.427 109.373 203.994C109.064 203.822 108.499 203.507 107.819 203.741C107.964 202.937 108.215 202.029 108.488 201.046L108.602 200.633C108.731 200.167 108.892 199.684 109.063 199.173C109.986 196.412 111.251 192.632 109.879 184.091C109.365 180.892 107.648 179.329 105.046 179.692C103.486 179.909 102.059 180.757 101.347 181.242C101.194 181.347 101.054 181.447 100.923 181.546C101.122 178.322 101.872 172.299 104.68 168.487C106.448 166.088 108.803 164.903 111.671 164.967C117.324 165.091 120.949 168.995 122.994 172.248C124.757 175.052 125.712 177.875 126.093 179.398C123.228 179.006 121.279 179.767 120.292 181.667C118.143 185.801 121.467 193.824 123.065 197.679C123.358 198.386 123.611 198.997 123.69 199.256C124.211 200.953 124.884 202.086 125.376 202.913C125.527 203.166 125.673 203.412 125.784 203.627C124.916 203.963 123.358 204.741 123.5 208.629C123.385 210.58 122.571 219.713 122.157 222.94C121.611 227.203 120.445 228.791 117.167 229.736ZM131.352 207.892C130.464 208.447 128.98 208.862 127.569 208.951C126.011 209.05 125.218 208.717 125.032 208.512C124.944 206.089 125.614 205.836 126.323 205.568C126.435 205.526 126.543 205.485 126.648 205.435C126.714 205.507 126.785 205.578 126.863 205.647C128.115 206.759 130.349 206.879 133.502 206.004C133.513 206 133.525 205.997 133.536 205.994C133.111 206.529 132.383 207.247 131.352 207.892Z" fill="white"/>
<g clip-path="url(#clip4)">
<path d="M150.114 21.4471H222.578V106.748H150.114V21.4471Z" fill="#F7DF1E"/>
<path d="M169.168 92.7306L174.713 88.7801C175.783 91.0129 176.756 92.9021 179.09 92.9021C181.328 92.9021 182.739 91.8717 182.739 87.864V60.6084H189.548V87.9773C189.548 96.2799 185.414 100.059 179.382 100.059C173.935 100.059 170.773 96.7378 169.167 92.7299" fill="black"/>
<path d="M193.247 91.8715L198.792 88.0925C200.252 90.8984 202.149 92.9596 205.505 92.9596C208.326 92.9596 210.126 91.2989 210.126 89.0086C210.126 86.2601 208.277 85.2866 205.164 83.6839L203.462 82.8244C198.549 80.3627 195.29 77.2708 195.29 70.7431C195.29 64.7309 199.181 60.15 205.262 60.15C209.591 60.15 212.704 61.9252 214.941 66.5633L209.639 70.5712C208.472 68.1092 207.207 67.136 205.262 67.136C203.267 67.136 202.003 68.6247 202.003 70.5712C202.003 72.9761 203.267 73.9498 206.186 75.4386L207.888 76.2974C213.676 79.2178 216.936 82.1949 216.936 88.894C216.936 96.1091 212.12 100.06 205.651 100.06C199.327 100.06 195.241 96.5097 193.247 91.8715" fill="black"/>
</g>
<path d="M354.476 33.2528C337.492 33.2528 323.724 50.2045 323.724 71.1156C323.724 92.0267 337.492 108.978 354.476 108.978C371.46 108.978 385.229 92.0266 385.229 71.1156C385.229 50.2045 371.46 33.2528 354.476 33.2528ZM330.331 71.5103L354.155 100.843C341.073 100.633 330.502 87.617 330.331 71.5103ZM359.881 100.099L330.935 64.4611C333.39 51.2445 342.997 41.3836 354.476 41.3836C362.5 41.3836 369.608 46.2031 374 53.6178L370.656 57.2501C367.094 50.9607 361.176 46.8446 354.476 46.8446C345.946 46.8446 338.682 53.5156 335.936 62.8513L361.188 93.9424C367.321 91.2082 372.037 84.8345 373.617 76.9406H363.15V71.1156H374.189V71.1155H378.625V71.1156C378.625 85.2483 370.616 97.0773 359.881 100.099Z" fill="#744C9E"/>
<path d="M75.5488 218.706C72.3107 218.597 69.8012 219.033 67.6964 220.231C67.0892 220.558 66.1177 220.558 66.0367 221.593C66.3607 222.029 66.4011 222.737 66.6845 223.337C67.1705 224.426 68.0201 225.897 68.7893 226.66C69.6392 227.531 70.4893 228.403 71.3796 229.166C72.9582 230.473 74.7393 231.236 76.2773 232.543C77.1681 233.305 78.0581 234.286 78.9486 235.104C79.394 235.539 79.6771 236.248 80.2439 236.52V236.357C79.9605 235.866 79.8795 235.158 79.5964 234.613C79.1919 234.068 78.7869 233.578 78.3821 233.033C77.2082 230.909 75.7512 229.057 74.1725 227.531C72.8775 226.333 70.0439 224.698 69.5178 222.683C69.5178 222.683 69.4772 222.628 69.4368 222.574C70.3273 222.465 71.3796 222.029 72.2297 221.702C73.606 221.212 74.8607 221.321 76.2773 220.831C76.9248 220.613 77.5726 220.34 78.2201 220.068V219.578C77.4919 218.597 76.9655 217.29 76.1963 216.364C74.1321 213.966 71.8653 211.624 69.5178 209.663C68.2629 208.574 66.6438 207.865 65.3082 206.939C64.8227 206.612 64.0129 206.449 63.7298 205.904C63.001 204.706 62.5962 203.126 62.0701 201.709C60.8967 198.713 59.7629 195.39 58.751 192.231C58.0228 190.106 57.5774 187.981 56.6869 186.02C52.5179 176.759 47.9845 171.148 41.0226 165.646C39.525 164.502 37.7442 164.012 35.8418 163.413C34.8301 163.358 33.818 163.249 32.8061 163.195C32.1586 162.813 31.5108 161.778 30.944 161.288C28.6374 159.327 22.6871 155.078 20.9871 160.689C19.8942 164.23 22.6061 167.716 23.537 169.514C24.2254 170.767 25.1156 172.183 25.6014 173.6C25.8848 174.525 25.9655 175.506 26.2489 176.487C26.8967 178.883 27.5036 181.553 28.3537 183.787C28.7991 184.931 29.2846 186.129 29.8514 187.164C30.1751 187.763 30.7416 188.036 30.8633 189.017C30.2968 190.106 30.2561 191.74 29.9321 193.102C28.4751 199.258 29.0419 206.885 31.106 211.406C31.7535 212.768 33.2918 215.765 35.356 214.62C37.1774 213.64 36.7727 210.535 37.2988 207.811C37.4204 207.157 37.3394 206.721 37.5822 206.286C37.5824 206.34 37.5822 206.395 37.5822 206.395C38.1489 207.92 38.7155 209.391 39.2416 210.916C40.4965 213.585 42.6821 216.364 44.5035 218.216C45.4752 219.196 46.2441 220.885 47.4584 221.485V221.321H47.3774C47.1344 220.83 46.7703 220.613 46.4465 220.231C45.718 219.251 44.9082 218.052 44.3417 216.963C42.6419 213.912 41.144 210.535 39.8084 207.048C39.1608 205.359 38.5941 203.507 38.0679 201.818C37.8249 201.164 37.8249 200.184 37.4202 199.857C36.813 201.056 35.9228 202.091 35.4774 203.562C34.7087 205.904 34.6275 208.791 34.3441 211.788C34.1824 211.842 34.2631 211.788 34.1821 211.897C32.8871 211.46 32.4417 209.663 31.9559 208.138C30.7416 204.27 30.5393 198.059 31.5918 193.593C31.8752 192.448 33.0894 188.853 32.6037 187.764C32.3609 186.728 31.5512 186.129 31.106 185.312C30.5799 184.277 30.0131 182.97 29.649 181.826C28.6775 178.775 28.1917 175.397 27.1394 172.347C26.6537 170.93 25.8038 169.459 25.1156 168.152C24.3468 166.681 23.4966 165.646 22.8895 163.903C22.6873 163.304 22.4037 162.323 22.7274 161.669C22.8085 161.234 22.9702 161.07 23.2942 160.961C23.8203 160.362 25.318 161.125 25.8441 161.451C27.3418 162.268 28.5964 163.031 29.8514 164.175C30.4179 164.72 31.025 165.755 31.7535 166.027H32.6037C33.8989 166.409 35.356 166.136 36.5703 166.627C38.7157 167.552 40.6582 168.915 42.3989 170.386C47.7014 174.907 52.0725 181.336 55.0275 189.017C55.5132 190.269 55.7153 191.414 56.1607 192.721C57.0109 195.39 58.0631 198.114 58.913 200.729C59.7629 203.289 60.5724 205.904 61.7867 208.029C62.3941 209.172 64.8224 209.772 65.9153 210.371C66.7248 210.861 67.9797 211.297 68.7083 211.897C70.0843 213.04 71.4606 214.348 72.7558 215.601C73.4036 216.254 75.4272 217.617 75.5488 218.706L75.5488 218.706Z" fill="#00546B"/>
<path d="M37.4454 173.362C36.8865 173.362 36.4921 173.455 36.0976 173.594C36.0976 173.594 36.0976 173.641 36.0976 173.687H36.1634C36.4265 174.43 36.8865 174.941 37.2152 175.59C37.4784 176.333 37.7084 177.076 37.9715 177.819C38.0043 177.772 38.0371 177.726 38.0371 177.726C38.4977 177.262 38.7276 176.519 38.7276 175.405C38.5303 175.08 38.4975 174.755 38.3331 174.43C38.1359 173.965 37.7084 173.734 37.4454 173.362Z" fill="#00546B"/>
<path d="M64.9857 22.0693L59.6034 102.456L35.4097 111.398L11.2826 102.469L5.90602 22.0693H64.9857Z" fill="#E44D26"/>
<path d="M35.4458 104.563L54.9955 97.3374L59.5951 28.6432H35.4458V104.563Z" fill="#F16529"/>
<path d="M24.9829 48.3647H35.4459V38.5039H16.8998L17.0769 41.1494L18.8947 68.3226H35.4459V58.4621H25.6588L24.9829 48.3647Z" fill="#EBEBEB"/>
<path d="M26.6497 73.2532H19.2251L20.2613 88.7358L35.4118 94.3432L35.4459 94.3306V84.0713L35.4134 84.0828L27.1763 81.1175L26.6497 73.2532Z" fill="#EBEBEB"/>
<path d="M11.4028 0.220215H15.1614V5.17111H18.5997V0.220215H22.3585V15.2128H18.5999V10.1924H15.1616V15.2128H11.403V0.220215H11.4028Z" fill="black"/>
<path d="M27.3012 5.19196H23.9923V0.220215H34.3706V5.19196H31.0602V15.2128H27.3014V5.19196H27.3012Z" fill="black"/>
<path d="M36.0177 0.220215H39.9369L42.3478 5.48814L44.7562 0.220215H48.6768V15.2128H44.9337V7.78163L42.3478 13.1123H42.2831L39.6954 7.78163V15.2128H36.0177V0.220215Z" fill="black"/>
<path d="M50.5475 0.220215H54.3072V10.2571H59.5929V15.2128H50.5475V0.220215Z" fill="black"/>
<path d="M35.3109 68.4671H44.4184L43.5599 81.2556L35.3109 84.224V94.4828L50.4734 88.8802L50.5846 87.2143L52.3227 61.2544L52.5031 58.6066H35.3109V68.4671Z" fill="white"/>
<path d="M35.4203 48.3406V48.3647H53.2855L53.4339 46.1483L53.7709 41.1494L53.9478 38.5039H35.4203V48.3406Z" fill="white"/>
<g clip-path="url(#clip5)">
<path d="M390.51 200.695C388.074 200.709 385.957 201.37 384.184 202.347C383.534 200.896 382.883 199.604 382.768 198.656C382.641 197.55 382.488 196.875 382.641 195.553C382.794 194.232 383.483 192.351 383.47 192.207C383.457 192.063 383.317 191.388 381.914 191.374C380.511 191.36 379.299 191.676 379.159 192.092C379.019 192.509 378.751 193.456 378.572 194.433C378.33 195.869 375.766 200.997 374.3 203.682C373.828 202.634 373.42 201.715 373.33 200.982C373.203 199.876 373.05 199.201 373.203 197.88C373.356 196.559 374.045 194.677 374.032 194.534C374.019 194.39 373.879 193.715 372.476 193.701C371.073 193.686 369.861 194.002 369.721 194.419C369.581 194.835 369.428 195.812 369.134 196.76C368.841 197.708 365.436 206.268 364.543 208.479C364.084 209.614 363.688 210.519 363.408 211.137C363.408 211.137 363.395 211.18 363.357 211.251C363.114 211.783 362.974 212.07 362.974 212.07C362.974 212.07 362.974 212.07 362.974 212.084C362.783 212.472 362.579 212.831 362.477 212.831C362.4 212.831 362.26 211.797 362.502 210.39C363.012 207.417 364.224 202.792 364.211 202.634C364.211 202.548 364.441 201.744 363.42 201.327C362.426 200.911 362.068 201.6 361.979 201.6C361.89 201.6 361.826 201.844 361.826 201.844C361.826 201.844 362.936 196.645 359.709 196.645C357.694 196.645 354.913 199.13 353.536 201.37C352.669 201.902 350.819 203.036 348.842 204.257C348.09 204.731 347.312 205.205 346.585 205.65C346.534 205.593 346.483 205.521 346.432 205.463C342.529 200.767 335.31 197.449 335.616 191.144C335.731 188.846 336.433 182.814 349.48 175.489C360.219 169.529 368.764 171.181 370.244 174.843C372.361 180.071 365.665 189.78 354.569 191.187C350.335 191.719 348.115 189.88 347.554 189.191C346.968 188.473 346.878 188.43 346.661 188.573C346.304 188.789 346.534 189.435 346.661 189.808C346.993 190.785 348.358 192.509 350.666 193.356C352.707 194.103 357.668 194.519 363.675 191.905C370.397 188.975 375.652 180.832 374.108 174.01C372.565 167.087 362.362 164.804 352.707 168.667C346.968 170.965 340.744 174.584 336.267 179.295C330.948 184.897 330.107 189.765 330.451 191.805C331.688 199.043 340.552 203.754 344.098 207.244C343.919 207.359 343.753 207.46 343.613 207.546C341.84 208.537 335.081 212.515 333.397 216.723C331.484 221.492 333.703 224.91 335.17 225.37C339.723 226.791 344.404 224.235 346.917 220.012C349.429 215.79 349.123 210.304 347.962 207.79C347.95 207.761 347.937 207.733 347.911 207.704C348.37 207.402 348.842 207.086 349.302 206.785C350.207 206.182 351.1 205.621 351.865 205.162C351.431 206.497 351.113 208.092 350.96 210.39C350.768 213.09 351.75 216.594 353.038 217.973C353.612 218.576 354.288 218.591 354.722 218.591C356.227 218.591 356.903 217.183 357.655 215.517C358.574 213.478 359.403 211.108 359.403 211.108C359.403 211.108 358.37 217.513 361.176 217.513C362.196 217.513 363.229 216.02 363.688 215.259V215.273C363.688 215.273 363.714 215.23 363.765 215.129C363.867 214.943 363.931 214.828 363.931 214.828V214.799C364.339 213.995 365.257 212.171 366.622 209.14C368.382 205.234 370.078 200.35 370.078 200.35C370.078 200.35 370.231 201.542 370.754 203.524C371.06 204.688 371.698 205.966 372.208 207.201C371.8 207.848 371.545 208.207 371.545 208.207C371.545 208.207 371.545 208.207 371.557 208.221C371.226 208.709 370.869 209.241 370.473 209.758C369.083 211.625 367.425 213.765 367.196 214.382C366.928 215.115 366.992 215.646 367.502 216.077C367.872 216.393 368.535 216.436 369.211 216.393C370.461 216.293 371.341 215.948 371.774 215.732C372.45 215.46 373.241 215.043 373.981 214.426C375.345 213.291 376.174 211.668 376.098 209.528C376.06 208.35 375.715 207.173 375.294 206.067C375.422 205.866 375.537 205.664 375.664 205.463C377.82 201.916 379.491 198.024 379.491 198.024C379.491 198.024 379.644 199.216 380.167 201.198C380.422 202.203 380.945 203.295 381.404 204.358C379.376 206.21 378.126 208.365 377.679 209.772C376.876 212.386 377.501 213.564 378.687 213.837C379.223 213.966 379.988 213.679 380.549 213.406C381.263 213.147 382.105 212.702 382.909 212.041C384.273 210.907 385.587 209.327 385.511 207.187C385.472 206.21 385.243 205.248 384.924 204.314C386.646 203.51 388.865 203.065 391.696 203.438C397.767 204.243 398.966 208.508 398.737 210.304C398.507 212.099 397.232 213.075 396.811 213.377C396.39 213.679 396.249 213.779 396.288 213.995C396.339 214.311 396.543 214.296 396.9 214.239C397.397 214.138 400.088 212.788 400.203 209.485C400.395 205.262 396.823 200.652 390.51 200.695ZM343.677 218.476C341.662 220.946 338.856 221.88 337.644 221.09C336.343 220.242 336.853 216.594 339.328 213.98C340.833 212.386 342.771 210.907 344.06 210.002C344.353 209.801 344.787 209.514 345.309 209.155C345.399 209.097 345.45 209.068 345.45 209.068C345.552 208.997 345.654 208.925 345.756 208.853C346.661 212.587 345.794 215.876 343.677 218.476ZM358.344 207.244C357.643 209.169 356.176 214.095 355.283 213.822C354.518 213.592 354.046 209.858 355.13 206.167C355.679 204.314 356.839 202.103 357.515 201.241C358.612 199.862 359.824 199.403 360.117 199.963C360.487 200.695 358.778 206.038 358.344 207.244ZM370.448 213.765C370.155 213.937 369.874 214.052 369.746 213.966C369.657 213.908 369.874 213.679 369.874 213.679C369.874 213.679 371.392 211.84 371.991 211.007C372.335 210.519 372.744 209.944 373.177 209.298V209.485C373.177 211.682 371.29 213.162 370.448 213.765ZM379.784 211.366C379.567 211.194 379.605 210.619 380.332 208.824C380.613 208.12 381.276 206.943 382.411 205.808C382.539 206.268 382.628 206.713 382.615 207.129C382.603 209.901 380.842 210.935 379.784 211.366Z" fill="#CD6799"/>
</g>
<path fill-rule="evenodd" clip-rule="evenodd" d="M448.894 174.296L462.08 182.942C462.451 182.495 462.885 182.101 463.377 181.776C466.112 179.991 469.6 181.051 471.188 184.157C472.76 187.262 471.827 191.224 469.092 193.027C468.604 193.346 468.091 193.574 467.569 193.716V211.014C468.085 211.157 468.592 211.383 469.076 211.699C471.827 213.502 472.76 217.464 471.172 220.569C469.6 223.675 466.095 224.735 463.36 222.95C462.816 222.594 462.343 222.152 461.947 221.647L448.841 230.24C449.028 230.883 449.13 231.57 449.13 232.285C449.13 235.856 446.575 238.775 443.415 238.775C440.254 238.775 437.7 235.874 437.7 232.285C437.7 231.647 437.78 231.031 437.931 230.449L424.748 221.805C424.381 222.243 423.953 222.63 423.469 222.95C420.718 224.735 417.23 223.675 415.658 220.569C414.086 217.464 415.019 213.502 417.754 211.699C418.237 211.383 418.744 211.156 419.26 211.014V193.716C418.738 193.574 418.226 193.346 417.737 193.027C415.003 191.242 414.069 187.262 415.641 184.157C417.213 181.051 420.718 179.991 423.453 181.776C423.942 182.099 424.374 182.491 424.743 182.935L437.933 174.287C437.781 173.702 437.7 173.082 437.7 172.441C437.7 168.852 440.254 165.951 443.415 165.951C446.575 165.951 449.13 168.852 449.13 172.441C449.13 173.086 449.047 173.708 448.894 174.296ZM447.52 176.96L460.737 185.626C460.329 187.256 460.479 189.063 461.281 190.647C462.085 192.237 463.396 193.29 464.851 193.701V211.021C464.777 211.041 464.703 211.064 464.629 211.088L447.366 177.133C447.419 177.076 447.47 177.019 447.52 176.96ZM439.467 177.137L422.204 211.091C422.129 211.066 422.054 211.044 421.979 211.022V193.701C423.433 193.29 424.744 192.237 425.549 190.647C426.352 189.06 426.501 187.249 426.09 185.617L439.303 176.953C439.357 177.015 439.411 177.077 439.467 177.137ZM445.012 178.675L462.27 212.622C461.884 213.04 461.544 213.527 461.264 214.079C460.987 214.628 460.787 215.204 460.662 215.79H426.168C426.043 215.204 425.843 214.628 425.565 214.079C425.285 213.531 424.945 213.046 424.561 212.63L441.823 178.677C442.328 178.842 442.862 178.931 443.415 178.931C443.969 178.931 444.505 178.842 445.012 178.675ZM447.641 227.913L460.773 219.303C460.734 219.162 460.698 219.02 460.667 218.877H426.161C426.142 218.961 426.122 219.045 426.101 219.128L439.297 227.78C440.336 226.556 441.796 225.795 443.415 225.795C445.091 225.795 446.597 226.611 447.641 227.913Z" fill="#E535AB"/>
<path fill-rule="evenodd" clip-rule="evenodd" d="M231.939 192.899C231.858 192.93 231.777 193.276 231.777 193.464C231.761 194.72 231.745 198.048 231.745 200.309C231.745 200.372 231.793 200.497 231.842 200.497C232.085 200.529 232.668 200.56 233.17 200.56C233.866 200.56 234.271 200.372 234.497 200.183C235.08 199.618 235.356 198.393 235.356 197.043C235.356 193.998 234.254 192.836 232.619 192.836C232.506 192.805 232.182 192.805 231.939 192.899ZM236.117 206.934C236.117 203.826 234.935 202.099 232.797 202.099C232.7 202.099 232.02 202.067 231.858 202.13C231.809 202.161 231.745 202.224 231.745 202.319C231.745 204.548 231.729 208.096 231.777 209.477C231.809 210.074 232.036 210.922 232.312 211.173C232.603 211.487 233.267 211.55 233.72 211.55C234.999 211.55 236.117 210.168 236.117 206.934ZM228.636 191.172C228.798 191.172 229.284 191.266 230.53 191.266C231.712 191.266 232.652 191.203 233.801 191.203C235.21 191.203 237.153 192.177 237.153 196.258C237.153 198.268 236.424 199.869 235.469 200.654C235.42 200.686 235.42 200.748 235.469 200.78C236.829 201.439 238.027 203.072 238.027 206.149C238.027 209.164 237.056 211.079 235.647 212.272C234.789 212.994 233.72 213.245 232.635 213.245C231.809 213.245 229.591 213.057 228.361 213.12C228.231 213.026 228.474 211.895 228.587 211.707C228.879 211.675 229.105 211.644 229.413 211.456C229.85 211.236 229.899 210.985 229.964 209.697C229.996 208.598 229.996 204.705 229.996 201.942C229.996 198.142 230.012 195.568 229.996 194.312C229.98 193.338 229.802 193.024 229.446 192.836C229.17 192.742 228.717 192.616 228.344 192.522C228.263 192.365 228.539 191.297 228.636 191.172ZM219.293 210.702C219.682 211.298 220.443 211.55 221.123 211.55C221.997 211.55 222.871 211.236 223.713 209.76C224.572 208.253 225.171 205.929 225.171 202.224C225.171 198.676 224.474 195.787 223.05 194.092C222.24 193.118 221.204 192.71 220.005 192.71C219.649 192.71 219.309 192.742 219.099 192.93C219.05 192.993 218.937 193.276 218.937 193.432C218.904 194.061 218.904 198.896 218.904 201.722C218.904 204.642 218.904 208.724 218.937 209.195C218.937 209.666 219.05 210.388 219.293 210.702ZM215.617 191.172C215.925 191.172 217.107 191.266 217.674 191.266C218.694 191.266 219.422 191.172 221.349 191.172C222.969 191.172 224.329 192.02 225.3 193.621C226.482 195.599 227.098 198.331 227.098 201.659C227.098 206.4 225.98 209.132 224.863 210.702C223.746 212.303 222.288 213.245 220.216 213.245C219.115 213.245 217.22 213.182 215.65 213.151H215.634C215.553 212.869 215.763 211.77 215.893 211.738C216.314 211.644 216.427 211.613 216.637 211.456C216.977 211.204 217.042 210.859 217.091 209.697C217.139 207.531 217.123 204.925 217.123 201.973C217.123 199.869 217.139 195.756 217.107 194.437C217.059 193.338 216.816 193.056 216.33 192.867C216.087 192.773 215.763 192.648 215.31 192.554C215.245 192.333 215.536 191.36 215.617 191.172Z" fill="#8E714E"/>
<path fill-rule="evenodd" clip-rule="evenodd" d="M196.025 211.927C195.62 211.832 195.329 211.707 194.972 211.393C194.924 211.33 194.843 211.016 194.843 210.89C194.81 209.791 194.81 206.652 194.81 204.548C194.81 202.852 194.665 201.377 194.292 200.34C193.855 199.147 193.224 198.456 192.414 198.456C191.701 198.456 190.746 199.399 189.953 200.717C189.937 200.748 189.807 200.968 189.823 200.623C189.823 200.278 189.856 199.587 189.872 199.116C189.888 198.676 189.759 198.456 189.759 198.456C189.24 198.959 187.783 199.618 187.249 199.712C186.86 199.869 186.763 200.592 187.168 200.843H187.184C187.621 201.094 187.913 201.377 188.139 201.659C188.301 201.91 188.285 202.256 188.285 202.538C188.301 204.893 188.301 208.504 188.253 210.482C188.236 211.267 188.123 211.55 187.832 211.675L187.864 211.644C187.637 211.738 187.459 211.832 187.184 211.895C187.087 212.083 187.087 213.088 187.184 213.308C187.362 213.308 188.301 213.214 189.078 213.214C190.147 213.214 190.698 213.308 190.973 213.308C191.086 213.057 191.119 212.115 191.054 211.895C190.746 211.864 190.52 211.801 190.309 211.675C190.018 211.55 189.937 211.267 189.92 210.608C189.888 208.944 189.888 205.427 189.888 203.041C189.888 202.381 189.985 202.067 190.082 201.879C190.455 201.251 191.054 200.811 191.588 200.811C192.106 200.811 192.446 201.125 192.705 201.534C193.062 202.099 193.175 202.915 193.224 203.512C193.304 204.862 193.272 207.531 193.272 209.854C193.272 211.11 193.224 211.424 192.981 211.581C192.867 211.675 192.576 211.801 192.236 211.864C192.122 212.083 192.155 213.057 192.236 213.277C192.705 213.277 193.256 213.183 194.066 213.183C195.069 213.183 195.717 213.277 195.976 213.277C196.057 213.088 196.09 212.178 196.025 211.927H196.025ZM200.51 199.932C199.652 199.932 199.118 201.22 199.118 203.229C199.118 205.27 199.587 207.625 200.915 207.625C201.142 207.625 201.563 207.437 201.757 206.997C202.065 206.432 202.275 205.301 202.275 204.108C202.275 201.502 201.611 199.932 200.51 199.932ZM200.397 213.811C200.073 213.811 199.846 213.999 199.701 214.156C199.02 215.004 198.713 215.82 198.713 216.794C198.713 217.704 198.891 218.426 199.28 219.054C199.749 219.839 200.397 220.216 201.223 220.216C202.874 220.216 203.603 218.489 203.603 216.794C203.603 215.6 203.295 214.815 202.664 214.376C202.21 213.999 201.384 213.811 200.397 213.811ZM200.51 221.974C199.522 221.974 198.81 221.566 198.195 220.656C197.595 219.776 197.336 218.458 197.336 217.547C197.336 217.296 197.369 216.605 197.66 215.977C197.838 215.6 198.227 214.878 199.15 213.654C199.182 213.622 199.198 213.591 199.198 213.528C199.198 213.465 199.166 213.402 199.134 213.371C198.373 212.806 198.146 211.895 198.081 211.393V211.33C198.065 211.142 198.033 210.953 198.178 210.765C198.292 210.608 198.454 210.42 198.632 210.2C198.907 209.886 199.198 209.54 199.377 209.258C199.409 209.195 199.409 209.132 199.409 209.069C199.409 209.006 199.377 208.944 199.344 208.912C198.211 208.19 197.644 206.557 197.644 204.108C197.644 202.507 198.017 201.063 198.68 200.152C199.134 199.461 200.267 198.614 201.012 198.614H201.061C201.822 198.645 202.243 198.959 202.842 199.367C203.166 199.587 203.473 199.681 203.894 199.681C204.526 199.681 204.801 199.304 205.028 198.865C205.044 198.927 205.076 199.085 205.093 199.493C205.109 199.901 205.044 200.497 204.882 200.937C204.752 201.282 204.461 201.534 204.17 201.534H204.089C203.797 201.471 203.668 201.408 203.668 201.408L203.603 201.471C203.587 201.534 203.603 201.596 203.619 201.691L203.635 201.753C203.668 202.036 203.732 202.884 203.732 203.104C203.732 205.678 203.198 206.808 202.631 207.656C202.081 208.441 201.449 208.944 200.737 209.069C200.721 209.069 200.656 209.069 200.51 209.101C200.429 209.101 200.316 209.132 200.3 209.132H200.283C200.154 209.195 199.83 209.509 199.83 210.043C199.83 210.514 199.976 211.079 200.672 211.173C200.818 211.205 200.963 211.205 201.125 211.236C202.048 211.361 203.198 211.519 203.732 211.864C204.477 212.398 204.947 213.685 204.947 215.224C204.947 217.547 204.089 219.714 202.664 221.064C201.967 221.66 201.271 221.974 200.51 221.974ZM209.74 200.089C209.4 200.089 209.092 200.246 208.865 200.56C208.234 201.314 207.91 202.821 207.91 205.019C207.91 209.132 208.979 212.021 210.501 212.021C210.954 212.021 211.31 211.77 211.618 211.267C212.087 210.514 212.33 209.006 212.33 206.903C212.33 202.821 211.278 200.089 209.74 200.089ZM210.031 213.528C207.278 213.528 206.291 209.603 206.291 205.929C206.291 203.355 206.825 201.377 207.894 199.963C208.655 199.053 209.562 198.551 210.371 198.551C212.476 198.551 213.95 201.471 213.95 205.678C213.95 208.536 213.367 210.796 212.249 212.178C211.715 212.868 210.792 213.528 210.031 213.528H210.031ZM181.177 200.089C180.837 200.089 180.529 200.246 180.302 200.56C179.671 201.314 179.347 202.821 179.347 205.019C179.347 209.132 180.416 212.021 181.938 212.021C182.391 212.021 182.747 211.77 183.055 211.267C183.524 210.514 183.767 209.006 183.767 206.903C183.767 202.821 182.731 200.089 181.177 200.089ZM181.468 213.528C178.715 213.528 177.728 209.603 177.728 205.929C177.728 203.355 178.262 201.377 179.331 199.963C180.092 199.053 180.998 198.551 181.808 198.551C183.913 198.551 185.387 201.471 185.387 205.678C185.387 208.536 184.804 210.796 183.686 212.178C183.168 212.868 182.245 213.528 181.468 213.528ZM162.96 213.214C162.928 213.12 162.896 212.837 162.912 212.492C162.912 212.241 162.944 212.083 162.96 212.021C163.3 211.927 163.479 211.832 163.673 211.738C163.997 211.581 164.126 211.236 164.142 210.451C164.191 208.567 164.191 204.987 164.175 202.507V202.444C164.175 202.162 164.175 201.816 163.997 201.565C163.738 201.251 163.43 200.968 163.025 200.748C162.879 200.654 162.782 200.497 162.798 200.309C162.798 200.121 162.896 199.901 163.106 199.838C163.641 199.744 165.033 199.085 165.583 198.614C165.616 198.676 165.665 198.865 165.665 199.116L165.648 199.461C165.632 199.807 165.616 200.215 165.616 200.623C165.616 200.748 165.681 200.843 165.745 200.843C165.778 200.843 165.81 200.811 165.843 200.78C166.879 199.21 167.818 198.645 168.304 198.645C169.097 198.645 169.713 199.367 170.182 200.874C170.214 200.968 170.247 201 170.295 201C170.328 201 170.376 200.968 170.393 200.906C171.348 199.493 172.303 198.645 172.935 198.645C174.441 198.645 175.331 200.811 175.331 204.485C175.331 205.521 175.331 206.871 175.315 208.096C175.315 209.195 175.299 210.2 175.299 210.922C175.299 211.079 175.412 211.581 175.59 211.675C175.817 211.895 176.125 211.989 176.529 212.115H176.546C176.578 212.335 176.513 213.151 176.449 213.308C176.351 213.308 176.206 213.308 176.044 213.277C175.736 213.245 175.299 213.214 174.813 213.214C173.809 213.214 173.291 213.245 172.789 213.308C172.757 213.057 172.741 212.304 172.789 212.115C173.08 212.021 173.226 211.927 173.404 211.832C173.728 211.644 173.809 211.361 173.825 210.545C173.825 209.949 173.89 204.862 173.793 203.637C173.696 202.381 173.21 200.906 172.141 200.906C171.737 200.906 171.105 201.22 170.49 202.13C170.457 202.193 170.425 202.35 170.425 202.444V202.476C170.49 203.135 170.49 203.889 170.49 205.05V207.091C170.49 208.504 170.474 209.823 170.49 210.828C170.49 211.519 170.7 211.675 170.878 211.801C170.976 211.832 171.04 211.864 171.121 211.895C171.267 211.958 171.413 212.021 171.639 212.115C171.672 212.241 171.672 212.649 171.623 212.994C171.607 213.183 171.575 213.277 171.559 213.308C171.008 213.277 170.441 213.245 169.615 213.245C169.373 213.245 168.952 213.277 168.595 213.277C168.304 213.277 168.028 213.308 167.867 213.308C167.85 213.245 167.818 213.026 167.818 212.68C167.818 212.398 167.85 212.178 167.883 212.115C167.964 212.083 168.028 212.052 168.11 212.052C168.304 211.989 168.466 211.927 168.628 211.864C168.903 211.707 169 211.424 169.016 210.734C169.065 209.164 169.113 204.674 169 203.543C168.806 201.722 168.271 200.811 167.413 200.811C166.911 200.811 166.28 201.282 165.762 202.036C165.681 202.162 165.616 202.476 165.616 202.758V204.611C165.616 206.871 165.616 209.697 165.632 210.922C165.648 211.299 165.713 211.738 166.086 211.895C166.166 211.927 166.296 211.989 166.458 212.021L166.749 212.115C166.782 212.304 166.766 213.057 166.701 213.308C166.539 213.308 166.345 213.277 166.118 213.277C165.778 213.245 165.341 213.214 164.855 213.214C164.288 213.214 163.883 213.245 163.559 213.277C163.333 213.214 163.155 213.214 162.96 213.214Z" fill="#442D22"/>
<path fill-rule="evenodd" clip-rule="evenodd" d="M154.443 220.75L153.779 220.31C153.779 220.31 153.86 213.748 152.646 213.277C151.836 211.456 152.776 136.035 155.69 213.026C155.69 213.026 154.686 213.999 154.508 215.663C154.314 217.296 154.443 220.75 154.443 220.75Z" fill="white"/>
<path fill-rule="evenodd" clip-rule="evenodd" d="M154.443 220.75L153.779 220.31C153.779 220.31 153.86 213.748 152.646 213.277C151.836 211.456 152.776 136.035 155.69 213.026C155.69 213.026 154.686 213.999 154.508 215.663C154.314 217.296 154.443 220.75 154.443 220.75Z" fill="#A6A385"/>
<path fill-rule="evenodd" clip-rule="evenodd" d="M154.8 214.407C154.8 214.407 160.612 206.997 159.252 191.58C157.941 180.371 154.848 176.697 154.508 175.284C154.136 174.279 153.779 172.521 153.779 172.521L154.022 203.7C154.022 203.731 153.52 213.245 154.8 214.407Z" fill="white"/>
<path fill-rule="evenodd" clip-rule="evenodd" d="M154.8 214.407C154.8 214.407 160.612 206.997 159.252 191.58C157.941 180.371 154.848 176.697 154.508 175.284C154.136 174.279 153.779 172.521 153.779 172.521L154.022 203.7C154.022 203.731 153.52 213.245 154.8 214.407Z" fill="#499D4A"/>
<path fill-rule="evenodd" clip-rule="evenodd" d="M153.439 214.815C153.439 214.815 147.983 207.593 148.307 194.877C148.614 182.16 152.468 175.912 153.213 174.782C153.699 173.777 153.715 173.4 153.747 172.395C154.087 173.808 154.022 193.527 154.071 195.85C154.217 204.799 153.812 213.12 153.439 214.815Z" fill="white"/>
<path fill-rule="evenodd" clip-rule="evenodd" d="M153.439 214.815C153.439 214.815 147.983 207.593 148.307 194.877C148.614 182.16 152.468 175.912 153.213 174.782C153.699 173.777 153.715 173.4 153.747 172.395C154.087 173.808 154.022 193.527 154.071 195.85C154.217 204.799 153.812 213.12 153.439 214.815Z" fill="#58AA50"/>
<mask id="path-54-inside-1" fill="white">
<path d="M587.402 85.9315V71.6916H599.637V70.8589H587.402V57.8681H600.411V57.0354H586.829V86.7642H600.525V85.9315H587.402ZM611.556 65.3628L606.485 75.0642L601.528 65.3628H600.783L606.141 75.6888L600.267 86.7642H600.955L606.485 76.3133L612.043 86.7642H612.76L606.857 75.6888L612.244 65.3628H611.556ZM614.479 94.0923V80.7685H614.536C614.88 82.7116 615.558 84.2729 616.57 85.4527C617.583 86.6324 618.872 87.2222 620.439 87.2222C621.451 87.2222 622.349 86.9238 623.132 86.327C623.915 85.7302 624.569 84.9183 625.095 83.8913C625.62 82.8642 626.021 81.6706 626.298 80.3105C626.575 78.9503 626.713 77.5208 626.713 76.0219C626.713 74.4119 626.57 72.9269 626.284 71.5667C625.997 70.2066 625.582 69.0269 625.037 68.0276C624.493 67.0283 623.834 66.2511 623.06 65.6959C622.287 65.1407 621.413 64.8632 620.439 64.8632C619.694 64.8632 619.001 65.0228 618.361 65.342C617.721 65.6612 617.153 66.1123 616.656 66.6952C616.16 67.2781 615.73 67.9651 615.367 68.7562C615.004 69.5473 614.727 70.4148 614.536 71.3585H614.479V65.3628H613.906V94.0923H614.479ZM620.439 86.4311C618.643 86.4311 617.201 85.5359 616.112 83.7455C615.023 81.9551 614.479 79.3806 614.479 76.0219C614.479 74.634 614.613 73.3155 614.88 72.0664C615.147 70.8172 615.534 69.7208 616.04 68.777C616.547 67.8333 617.172 67.0838 617.917 66.5286C618.662 65.9735 619.503 65.6959 620.439 65.6959C621.394 65.6959 622.229 65.9735 622.946 66.5286C623.662 67.0838 624.254 67.8402 624.722 68.7979C625.19 69.7555 625.543 70.8519 625.782 72.0872C626.021 73.3224 626.14 74.634 626.14 76.0219C626.14 77.271 626.031 78.5131 625.811 79.7484C625.591 80.9836 625.252 82.0939 624.794 83.0793C624.335 84.0648 623.748 84.8697 623.032 85.4943C622.315 86.1188 621.451 86.4311 620.439 86.4311ZM629.865 86.7642V74.6479C629.865 73.482 629.98 72.3439 630.209 71.2336C630.438 70.1233 630.792 69.1448 631.269 68.2982C631.747 67.4516 632.353 66.7854 633.089 66.2996C633.824 65.8139 634.698 65.6126 635.71 65.6959V64.8632C634.832 64.8354 634.063 64.9742 633.404 65.2795C632.745 65.5849 632.176 66.0012 631.699 66.5286C631.221 67.056 630.839 67.6736 630.553 68.3815C630.266 69.0893 630.056 69.8457 629.922 70.6507H629.865V65.3628H629.292V86.7642H629.865ZM636.427 76.2301H648.747C648.785 74.7589 648.685 73.3432 648.446 71.9831C648.207 70.6229 647.825 69.4155 647.3 68.3607C646.775 67.3059 646.097 66.4592 645.266 65.8208C644.435 65.1824 643.446 64.8632 642.3 64.8632C641.479 64.8632 640.677 65.113 639.893 65.6126C639.11 66.1123 638.423 66.8409 637.831 67.7986C637.238 68.7562 636.761 69.929 636.398 71.3169C636.035 72.7048 635.854 74.287 635.854 76.0635C635.854 77.6457 635.978 79.1238 636.226 80.4979C636.474 81.8719 636.856 83.0655 637.372 84.0786C637.888 85.0918 638.552 85.876 639.363 86.4311C640.175 86.9863 641.154 87.25 642.3 87.2222C643.981 87.2222 645.395 86.5352 646.541 85.1612C647.687 83.7872 648.365 81.8511 648.575 79.3528H648.002C647.754 81.7123 647.119 83.4818 646.097 84.6615C645.075 85.8413 643.79 86.4311 642.243 86.4311C641.192 86.4311 640.304 86.1674 639.578 85.64C638.852 85.1126 638.26 84.3909 637.802 83.4749C637.343 82.5589 637.004 81.4833 636.785 80.248C636.565 79.0128 636.446 77.6735 636.427 76.2301ZM648.174 75.3973H636.427C636.484 73.8984 636.675 72.5521 637 71.3585C637.324 70.1649 637.749 69.1448 638.275 68.2982C638.8 67.4516 639.411 66.8062 640.108 66.3621C640.806 65.918 641.555 65.6959 642.358 65.6959C643.313 65.6959 644.153 65.9527 644.879 66.4662C645.605 66.9797 646.211 67.6806 646.698 68.5688C647.186 69.4571 647.553 70.4911 647.802 71.6708C648.05 72.8505 648.174 74.0927 648.174 75.3973ZM660.638 71.6916H661.211C661.211 69.3044 660.733 67.5696 659.778 66.487C658.823 65.4044 657.524 64.8632 655.882 64.8632C654.965 64.8632 654.191 65.0297 653.561 65.3628C652.93 65.6959 652.415 66.1261 652.013 66.6535C651.612 67.181 651.326 67.7639 651.154 68.4023C650.982 69.0407 650.896 69.6514 650.896 70.2343C650.896 71.4002 651.039 72.3301 651.326 73.024C651.612 73.718 652.061 74.2592 652.672 74.6479C653.093 74.9254 653.57 75.1753 654.105 75.3973C654.64 75.6194 655.261 75.8553 655.967 76.1051C656.598 76.3272 657.219 76.5493 657.83 76.7713C658.441 76.9934 658.981 77.2918 659.449 77.6665C659.917 78.0413 660.299 78.5201 660.595 79.103C660.891 79.6859 661.039 80.4493 661.039 81.393C661.039 82.3091 660.891 83.0863 660.595 83.7247C660.299 84.3632 659.922 84.8836 659.463 85.2861C659.005 85.6886 658.494 85.9801 657.93 86.1605C657.367 86.3409 656.818 86.4311 656.283 86.4311C654.544 86.4311 653.212 85.869 652.286 84.7448C651.359 83.6206 650.896 81.8511 650.896 79.4361H650.323C650.323 82.1286 650.824 84.0994 651.827 85.3486C652.83 86.5977 654.315 87.2222 656.283 87.2222C656.913 87.2222 657.548 87.1181 658.188 86.9099C658.828 86.7018 659.401 86.3617 659.907 85.8898C660.413 85.418 660.824 84.8073 661.139 84.0578C661.454 83.3083 661.612 82.3923 661.612 81.3098C661.612 80.2827 661.474 79.45 661.197 78.8116C660.92 78.1731 660.557 77.6457 660.108 77.2293C659.659 76.813 659.153 76.4868 658.589 76.2509C658.026 76.0149 657.457 75.7859 656.884 75.5639C656.082 75.2585 655.38 74.9948 654.778 74.7728C654.177 74.5507 653.618 74.287 653.102 73.9817C652.606 73.6763 652.209 73.2391 651.913 72.6701C651.617 72.1011 651.469 71.2891 651.469 70.2343C651.469 70.04 651.507 69.6931 651.584 69.1934C651.66 68.6938 651.842 68.1872 652.128 67.6737C652.415 67.1601 652.854 66.7021 653.446 66.2996C654.038 65.8971 654.85 65.6959 655.882 65.6959C656.588 65.6959 657.233 65.8069 657.816 66.029C658.398 66.2511 658.9 66.605 659.32 67.0907C659.74 67.5765 660.065 68.1941 660.294 68.9436C660.523 69.6931 660.638 70.6091 660.638 71.6916ZM673.904 71.6916H674.477C674.477 69.3044 673.999 67.5696 673.044 66.487C672.089 65.4044 670.79 64.8632 669.148 64.8632C668.231 64.8632 667.457 65.0297 666.827 65.3628C666.196 65.6959 665.681 66.1261 665.28 66.6535C664.878 67.181 664.592 67.7639 664.42 68.4023C664.248 69.0407 664.162 69.6514 664.162 70.2343C664.162 71.4002 664.305 72.3301 664.592 73.024C664.878 73.718 665.327 74.2592 665.939 74.6479C666.359 74.9254 666.836 75.1753 667.371 75.3973C667.906 75.6194 668.527 75.8553 669.234 76.1051C669.864 76.3272 670.485 76.5493 671.096 76.7713C671.707 76.9934 672.247 77.2918 672.715 77.6665C673.183 78.0413 673.565 78.5201 673.861 79.103C674.157 79.6859 674.305 80.4493 674.305 81.393C674.305 82.3091 674.157 83.0863 673.861 83.7247C673.565 84.3632 673.188 84.8836 672.729 85.2861C672.271 85.6886 671.76 85.9801 671.196 86.1605C670.633 86.3409 670.084 86.4311 669.549 86.4311C667.81 86.4311 666.478 85.869 665.552 84.7448C664.625 83.6206 664.162 81.8511 664.162 79.4361H663.589C663.589 82.1286 664.09 84.0994 665.093 85.3486C666.096 86.5977 667.581 87.2222 669.549 87.2222C670.179 87.2222 670.814 87.1181 671.454 86.9099C672.094 86.7018 672.667 86.3617 673.173 85.8898C673.679 85.418 674.09 84.8073 674.405 84.0578C674.72 83.3083 674.878 82.3923 674.878 81.3098C674.878 80.2827 674.74 79.45 674.463 78.8116C674.186 78.1731 673.823 77.6457 673.374 77.2293C672.925 76.813 672.419 76.4868 671.855 76.2509C671.292 76.0149 670.723 75.7859 670.15 75.5639C669.348 75.2585 668.646 74.9948 668.044 74.7728C667.443 74.5507 666.884 74.287 666.368 73.9817C665.872 73.6763 665.475 73.2391 665.179 72.6701C664.883 72.1011 664.735 71.2891 664.735 70.2343C664.735 70.04 664.773 69.6931 664.85 69.1934C664.926 68.6938 665.108 68.1872 665.394 67.6737C665.681 67.1601 666.12 66.7021 666.712 66.2996C667.304 65.8971 668.116 65.6959 669.148 65.6959C669.854 65.6959 670.499 65.8069 671.082 66.029C671.664 66.2511 672.166 66.605 672.586 67.0907C673.006 67.5765 673.331 68.1941 673.56 68.9436C673.789 69.6931 673.904 70.6091 673.904 71.6916Z"/>
</mask>
<path d="M587.402 85.9315V71.6916H599.637V70.8589H587.402V57.8681H600.411V57.0354H586.829V86.7642H600.525V85.9315H587.402ZM611.556 65.3628L606.485 75.0642L601.528 65.3628H600.783L606.141 75.6888L600.267 86.7642H600.955L606.485 76.3133L612.043 86.7642H612.76L606.857 75.6888L612.244 65.3628H611.556ZM614.479 94.0923V80.7685H614.536C614.88 82.7116 615.558 84.2729 616.57 85.4527C617.583 86.6324 618.872 87.2222 620.439 87.2222C621.451 87.2222 622.349 86.9238 623.132 86.327C623.915 85.7302 624.569 84.9183 625.095 83.8913C625.62 82.8642 626.021 81.6706 626.298 80.3105C626.575 78.9503 626.713 77.5208 626.713 76.0219C626.713 74.4119 626.57 72.9269 626.284 71.5667C625.997 70.2066 625.582 69.0269 625.037 68.0276C624.493 67.0283 623.834 66.2511 623.06 65.6959C622.287 65.1407 621.413 64.8632 620.439 64.8632C619.694 64.8632 619.001 65.0228 618.361 65.342C617.721 65.6612 617.153 66.1123 616.656 66.6952C616.16 67.2781 615.73 67.9651 615.367 68.7562C615.004 69.5473 614.727 70.4148 614.536 71.3585H614.479V65.3628H613.906V94.0923H614.479ZM620.439 86.4311C618.643 86.4311 617.201 85.5359 616.112 83.7455C615.023 81.9551 614.479 79.3806 614.479 76.0219C614.479 74.634 614.613 73.3155 614.88 72.0664C615.147 70.8172 615.534 69.7208 616.04 68.777C616.547 67.8333 617.172 67.0838 617.917 66.5286C618.662 65.9735 619.503 65.6959 620.439 65.6959C621.394 65.6959 622.229 65.9735 622.946 66.5286C623.662 67.0838 624.254 67.8402 624.722 68.7979C625.19 69.7555 625.543 70.8519 625.782 72.0872C626.021 73.3224 626.14 74.634 626.14 76.0219C626.14 77.271 626.031 78.5131 625.811 79.7484C625.591 80.9836 625.252 82.0939 624.794 83.0793C624.335 84.0648 623.748 84.8697 623.032 85.4943C622.315 86.1188 621.451 86.4311 620.439 86.4311ZM629.865 86.7642V74.6479C629.865 73.482 629.98 72.3439 630.209 71.2336C630.438 70.1233 630.792 69.1448 631.269 68.2982C631.747 67.4516 632.353 66.7854 633.089 66.2996C633.824 65.8139 634.698 65.6126 635.71 65.6959V64.8632C634.832 64.8354 634.063 64.9742 633.404 65.2795C632.745 65.5849 632.176 66.0012 631.699 66.5286C631.221 67.056 630.839 67.6736 630.553 68.3815C630.266 69.0893 630.056 69.8457 629.922 70.6507H629.865V65.3628H629.292V86.7642H629.865ZM636.427 76.2301H648.747C648.785 74.7589 648.685 73.3432 648.446 71.9831C648.207 70.6229 647.825 69.4155 647.3 68.3607C646.775 67.3059 646.097 66.4592 645.266 65.8208C644.435 65.1824 643.446 64.8632 642.3 64.8632C641.479 64.8632 640.677 65.113 639.893 65.6126C639.11 66.1123 638.423 66.8409 637.831 67.7986C637.238 68.7562 636.761 69.929 636.398 71.3169C636.035 72.7048 635.854 74.287 635.854 76.0635C635.854 77.6457 635.978 79.1238 636.226 80.4979C636.474 81.8719 636.856 83.0655 637.372 84.0786C637.888 85.0918 638.552 85.876 639.363 86.4311C640.175 86.9863 641.154 87.25 642.3 87.2222C643.981 87.2222 645.395 86.5352 646.541 85.1612C647.687 83.7872 648.365 81.8511 648.575 79.3528H648.002C647.754 81.7123 647.119 83.4818 646.097 84.6615C645.075 85.8413 643.79 86.4311 642.243 86.4311C641.192 86.4311 640.304 86.1674 639.578 85.64C638.852 85.1126 638.26 84.3909 637.802 83.4749C637.343 82.5589 637.004 81.4833 636.785 80.248C636.565 79.0128 636.446 77.6735 636.427 76.2301ZM648.174 75.3973H636.427C636.484 73.8984 636.675 72.5521 637 71.3585C637.324 70.1649 637.749 69.1448 638.275 68.2982C638.8 67.4516 639.411 66.8062 640.108 66.3621C640.806 65.918 641.555 65.6959 642.358 65.6959C643.313 65.6959 644.153 65.9527 644.879 66.4662C645.605 66.9797 646.211 67.6806 646.698 68.5688C647.186 69.4571 647.553 70.4911 647.802 71.6708C648.05 72.8505 648.174 74.0927 648.174 75.3973ZM660.638 71.6916H661.211C661.211 69.3044 660.733 67.5696 659.778 66.487C658.823 65.4044 657.524 64.8632 655.882 64.8632C654.965 64.8632 654.191 65.0297 653.561 65.3628C652.93 65.6959 652.415 66.1261 652.013 66.6535C651.612 67.181 651.326 67.7639 651.154 68.4023C650.982 69.0407 650.896 69.6514 650.896 70.2343C650.896 71.4002 651.039 72.3301 651.326 73.024C651.612 73.718 652.061 74.2592 652.672 74.6479C653.093 74.9254 653.57 75.1753 654.105 75.3973C654.64 75.6194 655.261 75.8553 655.967 76.1051C656.598 76.3272 657.219 76.5493 657.83 76.7713C658.441 76.9934 658.981 77.2918 659.449 77.6665C659.917 78.0413 660.299 78.5201 660.595 79.103C660.891 79.6859 661.039 80.4493 661.039 81.393C661.039 82.3091 660.891 83.0863 660.595 83.7247C660.299 84.3632 659.922 84.8836 659.463 85.2861C659.005 85.6886 658.494 85.9801 657.93 86.1605C657.367 86.3409 656.818 86.4311 656.283 86.4311C654.544 86.4311 653.212 85.869 652.286 84.7448C651.359 83.6206 650.896 81.8511 650.896 79.4361H650.323C650.323 82.1286 650.824 84.0994 651.827 85.3486C652.83 86.5977 654.315 87.2222 656.283 87.2222C656.913 87.2222 657.548 87.1181 658.188 86.9099C658.828 86.7018 659.401 86.3617 659.907 85.8898C660.413 85.418 660.824 84.8073 661.139 84.0578C661.454 83.3083 661.612 82.3923 661.612 81.3098C661.612 80.2827 661.474 79.45 661.197 78.8116C660.92 78.1731 660.557 77.6457 660.108 77.2293C659.659 76.813 659.153 76.4868 658.589 76.2509C658.026 76.0149 657.457 75.7859 656.884 75.5639C656.082 75.2585 655.38 74.9948 654.778 74.7728C654.177 74.5507 653.618 74.287 653.102 73.9817C652.606 73.6763 652.209 73.2391 651.913 72.6701C651.617 72.1011 651.469 71.2891 651.469 70.2343C651.469 70.04 651.507 69.6931 651.584 69.1934C651.66 68.6938 651.842 68.1872 652.128 67.6737C652.415 67.1601 652.854 66.7021 653.446 66.2996C654.038 65.8971 654.85 65.6959 655.882 65.6959C656.588 65.6959 657.233 65.8069 657.816 66.029C658.398 66.2511 658.9 66.605 659.32 67.0907C659.74 67.5765 660.065 68.1941 660.294 68.9436C660.523 69.6931 660.638 70.6091 660.638 71.6916ZM673.904 71.6916H674.477C674.477 69.3044 673.999 67.5696 673.044 66.487C672.089 65.4044 670.79 64.8632 669.148 64.8632C668.231 64.8632 667.457 65.0297 666.827 65.3628C666.196 65.6959 665.681 66.1261 665.28 66.6535C664.878 67.181 664.592 67.7639 664.42 68.4023C664.248 69.0407 664.162 69.6514 664.162 70.2343C664.162 71.4002 664.305 72.3301 664.592 73.024C664.878 73.718 665.327 74.2592 665.939 74.6479C666.359 74.9254 666.836 75.1753 667.371 75.3973C667.906 75.6194 668.527 75.8553 669.234 76.1051C669.864 76.3272 670.485 76.5493 671.096 76.7713C671.707 76.9934 672.247 77.2918 672.715 77.6665C673.183 78.0413 673.565 78.5201 673.861 79.103C674.157 79.6859 674.305 80.4493 674.305 81.393C674.305 82.3091 674.157 83.0863 673.861 83.7247C673.565 84.3632 673.188 84.8836 672.729 85.2861C672.271 85.6886 671.76 85.9801 671.196 86.1605C670.633 86.3409 670.084 86.4311 669.549 86.4311C667.81 86.4311 666.478 85.869 665.552 84.7448C664.625 83.6206 664.162 81.8511 664.162 79.4361H663.589C663.589 82.1286 664.09 84.0994 665.093 85.3486C666.096 86.5977 667.581 87.2222 669.549 87.2222C670.179 87.2222 670.814 87.1181 671.454 86.9099C672.094 86.7018 672.667 86.3617 673.173 85.8898C673.679 85.418 674.09 84.8073 674.405 84.0578C674.72 83.3083 674.878 82.3923 674.878 81.3098C674.878 80.2827 674.74 79.45 674.463 78.8116C674.186 78.1731 673.823 77.6457 673.374 77.2293C672.925 76.813 672.419 76.4868 671.855 76.2509C671.292 76.0149 670.723 75.7859 670.15 75.5639C669.348 75.2585 668.646 74.9948 668.044 74.7728C667.443 74.5507 666.884 74.287 666.368 73.9817C665.872 73.6763 665.475 73.2391 665.179 72.6701C664.883 72.1011 664.735 71.2891 664.735 70.2343C664.735 70.04 664.773 69.6931 664.85 69.1934C664.926 68.6938 665.108 68.1872 665.394 67.6737C665.681 67.1601 666.12 66.7021 666.712 66.2996C667.304 65.8971 668.116 65.6959 669.148 65.6959C669.854 65.6959 670.499 65.8069 671.082 66.029C671.664 66.2511 672.166 66.605 672.586 67.0907C673.006 67.5765 673.331 68.1941 673.56 68.9436C673.789 69.6931 673.904 70.6091 673.904 71.6916Z" fill="#222222" stroke="black" stroke-width="200" mask="url(#path-54-inside-1)"/>
<path d="M588.916 234.834C587.465 234.834 586.096 233.983 585.169 232.439L571.07 209.288C570.144 207.745 569.781 205.776 570.144 203.86L575.179 174.961C575.501 173.045 576.468 171.502 577.797 170.65L598.181 157.771C598.825 157.345 599.55 157.132 600.275 157.132C601.001 157.132 601.726 157.345 602.37 157.771L622.753 170.597C624.083 171.448 625.05 172.992 625.372 174.908L630.407 203.807C630.73 205.723 630.407 207.692 629.481 209.235L615.382 232.386C614.455 233.876 613.086 234.781 611.635 234.781L588.916 234.834Z" fill="#326DE6"/>
<path d="M600.235 158.463C600.799 158.463 601.363 158.622 601.887 158.942L622.27 171.768C623.317 172.46 624.123 173.737 624.365 175.227L629.4 204.126C629.682 205.669 629.4 207.266 628.635 208.49L614.536 231.641C613.811 232.865 612.683 233.557 611.514 233.557H588.916C587.747 233.557 586.619 232.865 585.894 231.641L571.795 208.49C571.07 207.266 570.788 205.669 571.03 204.126L576.065 175.227C576.347 173.684 577.113 172.406 578.16 171.768L598.543 158.888C599.067 158.622 599.671 158.463 600.235 158.463ZM600.235 155.961C599.389 155.961 598.543 156.227 597.738 156.706L577.354 169.586C575.743 170.597 574.615 172.46 574.212 174.748L569.177 203.647C568.774 205.935 569.177 208.277 570.305 210.14L584.404 233.291C585.491 235.1 587.143 236.112 588.875 236.112H611.474C613.206 236.112 614.858 235.1 615.946 233.291L630.045 210.14C631.173 208.33 631.575 205.935 631.173 203.647L626.137 174.748C625.734 172.46 624.606 170.597 622.995 169.586L602.692 156.706C601.927 156.227 601.081 155.961 600.235 155.961Z" fill="white"/>
<path d="M620.659 201.837C620.618 201.837 620.618 201.837 620.659 201.837H620.618C620.578 201.837 620.538 201.837 620.538 201.784C620.457 201.784 620.377 201.731 620.296 201.731C620.014 201.678 619.773 201.625 619.531 201.625C619.41 201.625 619.289 201.625 619.128 201.571H619.088C618.242 201.465 617.557 201.358 616.912 201.092C616.63 200.933 616.55 200.72 616.469 200.507C616.469 200.454 616.429 200.454 616.429 200.4L615.905 200.188C616.147 197.739 616.066 195.185 615.623 192.684C615.18 190.182 614.415 187.84 613.367 185.712L613.77 185.233V185.126C613.77 184.86 613.811 184.594 613.972 184.328C614.455 183.742 615.059 183.263 615.784 182.678C615.905 182.572 616.026 182.518 616.147 182.412C616.389 182.252 616.59 182.093 616.832 181.88C616.872 181.827 616.953 181.773 617.033 181.667C617.074 181.614 617.114 181.614 617.114 181.56C617.678 180.922 617.799 179.857 617.396 179.165C617.194 178.793 616.832 178.58 616.469 178.58C616.147 178.58 615.865 178.74 615.583 179.006C615.543 179.059 615.543 179.059 615.502 179.112C615.422 179.165 615.382 179.272 615.301 179.325C615.1 179.591 614.939 179.804 614.777 180.07C614.697 180.177 614.616 180.336 614.495 180.443C613.931 181.241 613.408 181.88 612.884 182.359C612.763 182.465 612.642 182.518 612.522 182.518C612.441 182.518 612.36 182.518 612.28 182.465H612.199L611.716 182.891C611.192 182.146 610.628 181.507 610.064 180.869C607.647 178.367 604.707 176.824 601.645 176.451L601.605 175.759C601.564 175.706 601.564 175.706 601.524 175.653C601.403 175.493 601.242 175.334 601.202 174.961C601.162 174.11 601.242 173.152 601.323 172.087V172.034C601.323 171.874 601.363 171.661 601.403 171.502C601.444 171.182 601.484 170.863 601.524 170.491V170.171V170.012C601.524 169.054 600.96 168.255 600.275 168.255C599.953 168.255 599.631 168.468 599.389 168.787C599.147 169.107 599.027 169.533 599.027 170.012V170.118V170.437C599.027 170.81 599.067 171.129 599.147 171.448C599.188 171.608 599.188 171.768 599.228 171.981V172.034C599.309 173.098 599.429 174.056 599.349 174.908C599.309 175.28 599.147 175.44 599.027 175.6C598.986 175.653 598.986 175.653 598.946 175.706L598.906 176.398C598.181 176.504 597.456 176.611 596.73 176.824C593.629 177.729 590.889 179.804 588.754 182.784L588.352 182.412H588.271C588.19 182.412 588.11 182.465 588.029 182.465C587.908 182.465 587.788 182.412 587.667 182.305C587.143 181.827 586.619 181.135 586.055 180.336C585.975 180.23 585.894 180.07 585.773 179.964C585.612 179.698 585.451 179.485 585.25 179.219C585.209 179.165 585.129 179.112 585.048 179.006C585.008 178.953 584.968 178.953 584.968 178.899C584.726 178.633 584.404 178.474 584.082 178.474C583.719 178.474 583.356 178.686 583.155 179.059C582.752 179.751 582.873 180.815 583.437 181.454C583.477 181.454 583.477 181.507 583.518 181.507C583.598 181.56 583.638 181.667 583.719 181.72C583.961 181.933 584.162 182.093 584.404 182.252C584.525 182.305 584.645 182.412 584.766 182.518C585.491 183.104 586.096 183.583 586.579 184.168C586.78 184.434 586.78 184.7 586.78 184.967V185.073L587.183 185.552C587.103 185.712 587.022 185.818 586.982 185.978C584.968 190.182 584.202 195.132 584.726 200.028L584.202 200.241C584.202 200.294 584.162 200.294 584.162 200.347C584.082 200.56 583.961 200.773 583.719 200.933C583.115 201.199 582.39 201.305 581.544 201.412H581.503C581.383 201.412 581.221 201.412 581.101 201.465C580.859 201.465 580.617 201.518 580.335 201.571C580.255 201.571 580.174 201.625 580.093 201.625C580.053 201.625 580.013 201.625 579.973 201.678C579.248 201.891 578.804 202.795 578.925 203.647C579.046 204.392 579.57 204.871 580.214 204.871C580.335 204.871 580.416 204.871 580.537 204.818C580.577 204.818 580.617 204.818 580.617 204.765C580.698 204.765 580.778 204.711 580.859 204.711C581.141 204.605 581.342 204.498 581.584 204.339C581.705 204.286 581.826 204.179 581.946 204.126H581.987C582.752 203.753 583.437 203.434 584.082 203.328H584.162C584.404 203.328 584.565 203.487 584.686 203.594C584.726 203.594 584.726 203.647 584.766 203.647L585.33 203.541C586.297 207.479 588.15 210.991 590.607 213.546C591.171 214.131 591.735 214.61 592.34 215.089L592.098 215.781C592.098 215.834 592.138 215.834 592.138 215.888C592.219 216.101 592.299 216.367 592.219 216.739C591.977 217.538 591.614 218.336 591.171 219.241V219.294C591.091 219.453 591.01 219.56 590.93 219.72C590.769 219.986 590.648 220.252 590.487 220.571C590.446 220.624 590.406 220.731 590.366 220.837C590.366 220.89 590.325 220.944 590.325 220.944C590.003 221.848 590.245 222.86 590.849 223.232C591.01 223.339 591.171 223.392 591.332 223.392C591.816 223.392 592.299 222.966 592.541 222.381C592.541 222.327 592.581 222.274 592.581 222.274C592.622 222.168 592.662 222.061 592.702 222.008C592.823 221.636 592.863 221.369 592.944 221.05C592.984 220.89 593.024 220.731 593.065 220.571C593.347 219.507 593.548 218.655 593.911 217.91C594.072 217.591 594.273 217.538 594.434 217.431C594.475 217.431 594.475 217.431 594.515 217.378L594.797 216.686C596.569 217.591 598.503 218.07 600.437 218.07C601.605 218.07 602.813 217.91 603.941 217.538C604.666 217.325 605.351 217.059 606.036 216.739L606.278 217.325C606.318 217.325 606.318 217.325 606.358 217.378C606.56 217.431 606.721 217.538 606.882 217.857C607.204 218.602 607.446 219.507 607.728 220.518V220.571C607.768 220.731 607.808 220.89 607.849 221.05C607.929 221.369 607.97 221.689 608.09 222.008C608.131 222.114 608.171 222.168 608.211 222.274C608.211 222.327 608.251 222.381 608.251 222.381C608.493 223.019 608.977 223.392 609.46 223.392C609.621 223.392 609.782 223.339 609.943 223.232C610.225 223.019 610.467 222.7 610.548 222.274C610.628 221.848 610.628 221.369 610.467 220.944C610.467 220.89 610.427 220.89 610.427 220.837C610.387 220.731 610.346 220.624 610.306 220.571C610.185 220.252 610.024 219.986 609.863 219.72C609.782 219.56 609.702 219.453 609.621 219.294V219.241C609.178 218.336 608.775 217.538 608.574 216.739C608.493 216.367 608.574 216.154 608.614 215.888C608.614 215.834 608.654 215.834 608.654 215.781L608.453 215.143C610.588 213.493 612.401 211.151 613.77 208.277C614.495 206.787 615.059 205.137 615.462 203.487L615.946 203.594C615.986 203.594 615.986 203.541 616.026 203.541C616.187 203.434 616.308 203.274 616.55 203.274H616.63C617.275 203.381 617.96 203.7 618.725 204.073H618.765C618.886 204.126 619.007 204.232 619.128 204.286C619.37 204.445 619.571 204.552 619.853 204.658C619.934 204.658 620.014 204.711 620.095 204.711C620.135 204.711 620.175 204.711 620.216 204.765C620.336 204.818 620.417 204.818 620.538 204.818C621.142 204.818 621.666 204.286 621.827 203.594C621.827 202.955 621.384 202.104 620.659 201.837ZM602.008 199.23L600.235 200.347L598.463 199.23L598.02 196.728L599.228 194.706H601.202L602.41 196.728L602.008 199.23ZM612.522 193.695C612.844 195.504 612.924 197.314 612.804 199.07L606.64 196.728C606.076 196.515 605.754 195.77 605.875 195.025C605.915 194.812 605.996 194.599 606.116 194.44L610.991 188.639C611.676 190.129 612.199 191.832 612.522 193.695ZM609.057 185.446L603.78 190.395C603.337 190.768 602.733 190.661 602.37 190.076C602.249 189.916 602.209 189.703 602.169 189.49L601.806 180.815C604.586 181.241 607.124 182.891 609.057 185.446ZM597.375 181.081C597.818 180.975 598.221 180.869 598.664 180.762L598.302 189.277C598.261 190.022 597.818 190.661 597.214 190.661C597.053 190.661 596.851 190.608 596.73 190.501L591.373 185.446C593.024 183.263 595.079 181.773 597.375 181.081ZM589.439 188.639L594.233 194.28C594.676 194.759 594.716 195.664 594.354 196.249C594.233 196.462 594.072 196.622 593.87 196.675L587.626 199.07C587.385 195.451 587.989 191.779 589.439 188.639ZM588.352 203.062L594.757 201.625C595.28 201.571 595.764 202.05 595.885 202.742C595.925 203.062 595.925 203.328 595.844 203.594L593.387 211.417C591.131 209.501 589.318 206.574 588.352 203.062ZM603.055 213.652C602.128 213.919 601.202 214.078 600.235 214.078C598.825 214.078 597.456 213.759 596.166 213.227L599.349 205.616C599.671 205.137 600.195 204.924 600.638 205.244C600.839 205.403 601 205.616 601.121 205.829L604.223 213.227C603.861 213.386 603.458 213.493 603.055 213.652ZM610.91 206.255C609.903 208.384 608.574 210.087 607.043 211.417L604.505 203.381C604.384 202.742 604.586 202.05 605.069 201.731C605.23 201.625 605.432 201.571 605.633 201.571L612.078 203.008C611.837 204.179 611.434 205.244 610.91 206.255Z" fill="white"/>
<path d="M307.583 233.866C307.583 238.905 297.024 242.965 284.007 242.965C270.989 242.965 260.431 238.869 260.431 233.866C260.431 228.826 270.989 224.766 284.007 224.766C297.024 224.766 307.583 228.826 307.583 233.866Z" fill="#9EDCF2"/>
<path d="M307.583 233.866C307.583 238.905 297.024 242.965 284.007 242.965C270.989 242.965 260.431 238.869 260.431 233.866C260.431 228.826 270.989 224.766 284.007 224.766C297.024 224.766 307.583 228.826 307.583 233.866Z" fill="#7DBCE7"/>
<path d="M257.086 207.073L256.397 209.683C256.397 209.683 256.233 210.626 257.02 210.807C257.873 210.771 257.807 209.901 257.742 209.647L257.086 207.073Z" fill="#9EDCF2"/>
<path d="M325.585 196.088L325.65 195.761C318.732 194.239 311.649 194.202 307.353 194.42C308.042 191.628 308.271 188.365 308.271 184.776C308.271 179.592 306.501 175.459 303.681 172.341C304.173 170.564 304.828 166.612 303.025 161.573C303.025 161.573 299.812 160.449 292.499 165.851C289.647 165.053 286.597 164.655 283.548 164.655C280.203 164.655 276.826 165.126 273.645 166.069C266.103 160.376 262.791 161.537 262.791 161.537C260.627 167.519 261.972 171.978 262.365 173.066C259.808 176.111 258.266 179.99 258.266 184.74C258.266 188.329 258.627 191.556 259.545 194.347C255.217 194.166 248.397 194.239 241.707 195.725L241.773 196.051C248.462 194.565 255.348 194.529 259.644 194.71C259.84 195.29 260.07 195.87 260.299 196.414C256.037 196.559 248.79 197.175 241.838 199.351L241.937 199.677C248.954 197.502 256.266 196.922 260.496 196.777C263.054 201.997 268.038 205.405 276.957 206.457C275.678 207.399 274.399 208.995 273.875 211.714C272.137 212.62 266.693 214.868 263.414 208.632C263.414 208.632 261.578 204.934 258.07 204.644C258.07 204.644 254.659 204.571 257.84 207C257.84 207 260.103 208.197 261.677 212.656C261.677 212.656 263.742 220.27 273.612 217.804V225.599C273.612 225.599 273.415 228.391 271.087 229.297C271.087 229.297 269.71 230.349 271.186 230.929C271.186 230.929 277.58 231.509 277.58 225.708V217.152C277.58 217.152 277.317 213.744 278.826 212.584V226.651C278.826 226.651 278.727 230.022 277.154 231.291C277.154 231.291 276.104 233.358 278.4 232.814C278.4 232.814 282.793 232.125 282.99 226.433L283.089 212.185H284.138L284.236 226.433C284.433 232.089 288.827 232.814 288.827 232.814C291.122 233.394 290.073 231.291 290.073 231.291C288.499 230.022 288.401 226.651 288.401 226.651V212.693C289.909 213.998 289.647 217.152 289.647 217.152V225.708C289.647 231.509 296.041 230.929 296.041 230.929C297.516 230.349 296.139 229.297 296.139 229.297C293.844 228.355 293.614 225.599 293.614 225.599V214.36C293.614 209.973 291.942 207.653 290.302 206.457C299.812 205.405 304.369 202.034 306.468 196.74C310.632 196.849 318.141 197.429 325.29 199.677L325.388 199.351C318.272 197.139 310.829 196.559 306.599 196.414C306.796 195.87 306.96 195.326 307.124 194.746C311.518 194.565 318.633 194.565 325.585 196.088Z" fill="#010101"/>
<path d="M298.959 184.522C300.992 186.589 302.205 189.054 302.205 191.701C302.205 204.173 293.811 204.499 283.449 204.499C273.088 204.499 264.693 202.759 264.693 191.701C264.693 189.054 265.874 186.589 267.907 184.559C271.284 181.151 276.99 182.963 283.449 182.963C289.909 182.963 295.582 181.114 298.959 184.522Z" fill="#F5CCB3"/>
<path d="M277.219 192.353C277.219 195.798 275.481 198.553 273.317 198.553C271.153 198.553 269.415 195.761 269.415 192.353C269.415 188.909 271.153 186.154 273.317 186.154C275.481 186.118 277.219 188.909 277.219 192.353Z" fill="white"/>
<path d="M275.973 192.426C275.973 194.71 274.793 196.559 273.383 196.559C271.94 196.559 270.792 194.71 270.792 192.426C270.792 190.142 271.973 188.293 273.383 188.293C274.793 188.293 275.973 190.142 275.973 192.426Z" fill="#AF5C51"/>
<path d="M298.172 192.353C298.172 195.798 296.434 198.553 294.27 198.553C292.106 198.553 290.368 195.761 290.368 192.353C290.368 188.909 292.106 186.154 294.27 186.154C296.401 186.118 298.172 188.909 298.172 192.353Z" fill="white"/>
<path d="M296.893 192.426C296.893 194.71 295.713 196.559 294.303 196.559C292.86 196.559 291.712 194.71 291.712 192.426C291.712 190.142 292.893 188.293 294.303 188.293C295.746 188.293 296.893 190.142 296.893 192.426Z" fill="#AF5C51"/>
<path d="M284.499 197.864C284.499 198.444 284.072 198.952 283.515 198.952C282.99 198.952 282.531 198.481 282.531 197.864C282.531 197.248 282.957 196.777 283.515 196.777C284.039 196.777 284.499 197.248 284.499 197.864Z" fill="#AF5C51"/>
<path d="M281.252 200.583C281.187 200.402 281.285 200.221 281.449 200.148C281.613 200.076 281.777 200.185 281.843 200.366C282.105 201.163 282.761 201.671 283.515 201.671C284.269 201.671 284.925 201.127 285.187 200.366C285.253 200.185 285.417 200.076 285.581 200.148C285.745 200.221 285.843 200.402 285.777 200.583C285.449 201.635 284.531 202.36 283.515 202.36C282.498 202.36 281.58 201.635 281.252 200.583Z" fill="#AF5C51"/>
<path d="M259.578 205.514C259.578 205.804 259.283 206.022 258.889 206.022C258.529 206.022 258.201 205.804 258.201 205.514C258.201 205.224 258.496 205.006 258.889 205.006C259.283 205.006 259.578 205.224 259.578 205.514Z" fill="#C4E5D9"/>
<path d="M261.48 206.674C261.48 206.964 261.185 207.182 260.791 207.182C260.431 207.182 260.103 206.964 260.103 206.674C260.103 206.384 260.398 206.167 260.791 206.167C261.185 206.167 261.48 206.384 261.48 206.674Z" fill="#C4E5D9"/>
<path d="M262.627 208.197C262.627 208.487 262.332 208.704 261.939 208.704C261.578 208.704 261.25 208.487 261.25 208.197C261.25 207.907 261.545 207.689 261.939 207.689C262.332 207.653 262.627 207.907 262.627 208.197Z" fill="#C4E5D9"/>
<path d="M263.677 209.937C263.677 210.227 263.382 210.445 262.988 210.445C262.627 210.445 262.3 210.227 262.3 209.937C262.3 209.647 262.595 209.43 262.988 209.43C263.382 209.393 263.677 209.647 263.677 209.937Z" fill="#C4E5D9"/>
<path d="M264.824 211.532C264.824 211.822 264.529 212.04 264.136 212.04C263.775 212.04 263.447 211.822 263.447 211.532C263.447 211.242 263.742 211.025 264.136 211.025C264.529 211.025 264.824 211.242 264.824 211.532Z" fill="#C4E5D9"/>
<path d="M266.398 212.946C266.398 213.236 266.103 213.454 265.71 213.454C265.349 213.454 265.021 213.236 265.021 212.946C265.021 212.656 265.316 212.439 265.71 212.439C266.103 212.403 266.398 212.656 266.398 212.946Z" fill="#C4E5D9"/>
<path d="M268.595 213.853C268.595 214.143 268.3 214.36 267.907 214.36C267.546 214.36 267.218 214.143 267.218 213.853C267.218 213.563 267.513 213.345 267.907 213.345C268.3 213.345 268.595 213.563 268.595 213.853Z" fill="#C4E5D9"/>
<path d="M270.792 213.853C270.792 214.143 270.497 214.36 270.104 214.36C269.743 214.36 269.415 214.143 269.415 213.853C269.415 213.563 269.71 213.345 270.104 213.345C270.497 213.345 270.792 213.563 270.792 213.853Z" fill="#C4E5D9"/>
<path d="M273.022 213.454C273.022 213.744 272.727 213.961 272.333 213.961C271.973 213.961 271.645 213.744 271.645 213.454C271.645 213.164 271.94 212.946 272.333 212.946C272.694 212.946 273.022 213.164 273.022 213.454Z" fill="#C4E5D9"/>
<path d="M552.126 192.534C550.72 191.245 547.498 190.762 544.979 191.406C544.686 188.184 543.338 185.365 540.995 182.867L539.647 181.578L538.71 183.431C537.538 185.848 536.953 189.231 537.128 192.453C537.187 193.581 537.48 195.595 538.359 197.367C537.538 198.012 535.839 198.817 533.613 198.817H491.257L491.14 199.462C490.73 202.684 490.73 212.753 495.534 220.487C499.166 226.367 504.556 229.348 511.644 229.348C526.993 229.348 538.359 219.601 543.69 201.959C545.799 202.04 550.31 201.959 552.594 195.917C552.653 195.756 552.77 195.434 553.18 194.226L553.415 193.581L552.126 192.534ZM525.119 169.817H518.674V177.873H525.119V169.817ZM525.119 179.484H518.674V187.54H525.119V179.484ZM517.503 179.484H511.059V187.54H517.503V179.484ZM509.887 179.484H503.443V187.54H509.887V179.484ZM502.271 189.151H495.827V197.206H502.271V189.151ZM509.887 189.151H503.443V197.206H509.887V189.151ZM517.503 189.151H511.059V197.206H517.503V189.151ZM525.119 189.151H518.674V197.206H525.119V189.151ZM532.735 189.151H526.29V197.206H532.735V189.151Z" fill="#2396ED"/>
<defs>
<linearGradient id="paint0_linear" x1="526.23" y1="62.6619" x2="510.884" y2="77.9528" gradientUnits="userSpaceOnUse">
<stop stop-color="#41873F"/>
<stop offset="0.3288" stop-color="#418B3D"/>
<stop offset="0.6352" stop-color="#419637"/>
<stop offset="0.9319" stop-color="#3FA92D"/>
<stop offset="1" stop-color="#3FAE2A"/>
</linearGradient>
<linearGradient id="paint1_linear" x1="521.732" y1="74.9051" x2="547.294" y2="66.0981" gradientUnits="userSpaceOnUse">
<stop offset="0.1376" stop-color="#41873F"/>
<stop offset="0.4032" stop-color="#54A044"/>
<stop offset="0.7136" stop-color="#66B848"/>
<stop offset="0.9081" stop-color="#6CC04A"/>
</linearGradient>
<linearGradient id="paint2_linear" x1="513.651" y1="73.1869" x2="532.263" y2="73.1869" gradientUnits="userSpaceOnUse">
<stop offset="0.0919165" stop-color="#6CC04A"/>
<stop offset="0.2864" stop-color="#66B848"/>
<stop offset="0.5968" stop-color="#54A044"/>
<stop offset="0.8624" stop-color="#41873F"/>
</linearGradient>
<linearGradient id="paint3_linear" x1="513.651" y1="85.3519" x2="532.263" y2="85.3519" gradientUnits="userSpaceOnUse">
<stop offset="0.0919165" stop-color="#6CC04A"/>
<stop offset="0.2864" stop-color="#66B848"/>
<stop offset="0.5968" stop-color="#54A044"/>
<stop offset="0.8624" stop-color="#41873F"/>
</linearGradient>
<linearGradient id="paint4_linear" x1="534.974" y1="61.9682" x2="523.832" y2="98.9932" gradientUnits="userSpaceOnUse">
<stop stop-color="#41873F"/>
<stop offset="0.3288" stop-color="#418B3D"/>
<stop offset="0.6352" stop-color="#419637"/>
<stop offset="0.9319" stop-color="#3FA92D"/>
<stop offset="1" stop-color="#3FAE2A"/>
</linearGradient>
<clipPath id="clip0">
<rect width="70.0204" height="85.4703" fill="white" transform="translate(232.078 24.5272)"/>
</clipPath>
<clipPath id="clip1">
<rect width="63.4559" height="111.178" fill="white" transform="translate(74.5173 0.220215)"/>
</clipPath>
<clipPath id="clip2">
<rect width="85.6099" height="67.0247" fill="white" transform="translate(406.097 36.7347)"/>
</clipPath>
<clipPath id="clip3">
<rect width="84.6342" height="81.8475" fill="white" transform="translate(491.707 38.3458)"/>
</clipPath>
<clipPath id="clip4">
<rect width="78.6043" height="85.3006" fill="white" transform="translate(143.864 21.7225)"/>
</clipPath>
<clipPath id="clip5">
<rect width="70.0202" height="64.1027" fill="white" transform="translate(319.268 164.017)"/>
</clipPath>
</defs>
</svg>
